<svg width="534" height="419" viewBox="0 0 534 419" fill="none" xmlns="http://www.w3.org/2000/svg">
<path d="M398.92 43.5256L395.543 42.9041C392.056 42.2472 388.918 40.3704 386.69 37.6099C384.462 34.8495 383.289 31.3858 383.383 27.8396C383.473 24.5522 383.789 21.2749 384.329 18.0308C386.49 5.01988 387.031 0.142491 392.435 1.22335C397.839 2.30421 401.109 3.9255 401.109 10.9916C401.109 18.0578 398.92 43.5256 398.92 43.5256Z" fill="#03DAC6" stroke="#263238" stroke-linecap="round" stroke-linejoin="round"/>
<path d="M265.515 26.3804H237.277C236.896 26.3804 236.518 26.3053 236.166 26.1593C235.813 26.0133 235.493 25.7993 235.223 25.5296C234.954 25.2599 234.74 24.9397 234.594 24.5872C234.448 24.2348 234.372 23.8571 234.372 23.4756V23.4756C234.372 23.0948 234.448 22.7177 234.594 22.366C234.74 22.0143 234.954 21.695 235.224 21.4263C235.494 21.1577 235.814 20.945 236.167 20.8005C236.519 20.656 236.896 20.5825 237.277 20.5843H265.515C266.282 20.5843 267.017 20.8889 267.559 21.4311C268.101 21.9734 268.406 22.7088 268.406 23.4756C268.408 23.8564 268.334 24.2338 268.19 24.5862C268.045 24.9385 267.833 25.2589 267.564 25.5288C267.295 25.7987 266.976 26.0129 266.624 26.159C266.273 26.3052 265.896 26.3804 265.515 26.3804Z" fill="white"/>
<path d="M115.802 245.16C115.802 245.16 90.8609 264.967 78.9444 285.598C67.0279 306.229 67.3927 320.267 67.3927 320.267C67.3927 320.267 102.521 295.096 110.533 278.113C115.32 267.833 117.145 256.421 115.802 245.16Z" fill="#03DAC6"/>
<path d="M10.4177 217.585C10.4177 217.585 5.01338 253.145 18.0378 275.033C31.0622 296.92 67.1224 319.645 67.1224 319.645C67.1224 319.645 72.297 303.676 53.436 279.397C34.575 255.118 10.4177 217.585 10.4177 217.585Z" fill="#03DAC6"/>
<path d="M69.014 280.221C67.8099 260.58 61.8669 241.522 51.6932 224.678C34.7101 196.481 14.3629 167.933 9.58009 155.773C6.4073 147.374 3.83823 138.759 1.89246 129.995C1.89246 129.995 -5.18719 153.436 8.03986 184.632C21.2669 215.829 69.014 280.221 69.014 280.221Z" fill="#03DAC6"/>
<path d="M67.7305 268.993C67.7305 268.993 87.7805 243.485 101.629 214.329C115.478 185.173 113.262 154.881 113.262 154.881C113.262 154.881 87.2671 188.604 78.9985 214.883C73.6969 232.563 69.927 250.667 67.7305 268.993V268.993Z" fill="#03DAC6"/>
<path d="M63.7718 211.343C63.7718 211.343 59.0566 169.46 47.7616 146.208C36.4666 122.955 13.3496 87.0438 13.3496 87.0438C13.3496 87.0438 10.5124 127.265 28.6844 159.353C46.8564 191.442 63.7718 211.343 63.7718 211.343Z" fill="#03DAC6"/>
<path d="M62.8261 187.28C62.8261 187.28 86.3348 152.287 92.7524 127.252C99.17 102.216 104.764 59.8737 104.764 59.8737C104.764 59.8737 76.5935 88.7057 69.703 124.928C62.8125 161.15 62.8261 187.28 62.8261 187.28Z" fill="#03DAC6"/>
<path d="M74.4994 36.2163C74.4994 36.2163 52.4363 52.4292 55.922 86.6385C59.4078 120.848 62.7585 132.318 62.7585 132.318C59.2862 108.945 74.4994 36.2163 74.4994 36.2163Z" fill="#03DAC6"/>
<path opacity="0.3" d="M115.802 245.16C115.802 245.16 90.8609 264.967 78.9444 285.598C67.0279 306.229 67.3927 320.267 67.3927 320.267C67.3927 320.267 102.521 295.096 110.533 278.113C115.32 267.833 117.145 256.421 115.802 245.16Z" fill="white"/>
<path opacity="0.3" d="M10.4177 217.585C10.4177 217.585 5.01338 253.145 18.0378 275.033C31.0622 296.92 67.1224 319.645 67.1224 319.645C67.1224 319.645 72.297 303.676 53.436 279.397C34.575 255.118 10.4177 217.585 10.4177 217.585Z" fill="white"/>
<path opacity="0.3" d="M69.014 280.221C67.8099 260.58 61.8669 241.522 51.6932 224.678C34.7101 196.481 14.3629 167.933 9.58009 155.773C6.4073 147.374 3.83823 138.759 1.89246 129.995C1.89246 129.995 -5.18719 153.436 8.03986 184.632C21.2669 215.829 69.014 280.221 69.014 280.221Z" fill="white"/>
<path opacity="0.3" d="M67.7305 268.993C67.7305 268.993 87.7805 243.485 101.629 214.329C115.478 185.173 113.262 154.881 113.262 154.881C113.262 154.881 87.2671 188.604 78.9985 214.883C73.6969 232.563 69.927 250.667 67.7305 268.993V268.993Z" fill="white"/>
<path opacity="0.3" d="M63.7718 211.343C63.7718 211.343 59.0566 169.46 47.7616 146.208C36.4666 122.955 13.3496 87.0438 13.3496 87.0438C13.3496 87.0438 10.5124 127.265 28.6844 159.353C46.8564 191.442 63.7718 211.343 63.7718 211.343Z" fill="white"/>
<path opacity="0.3" d="M62.8261 187.28C62.8261 187.28 86.3348 152.287 92.7524 127.252C99.17 102.216 104.764 59.8737 104.764 59.8737C104.764 59.8737 76.5935 88.7057 69.703 124.928C62.8125 161.15 62.8261 187.28 62.8261 187.28Z" fill="white"/>
<path opacity="0.3" d="M74.4994 36.2163C74.4994 36.2163 52.4363 52.4292 55.922 86.6385C59.4078 120.848 62.7585 132.318 62.7585 132.318C59.2862 108.945 74.4994 36.2163 74.4994 36.2163Z" fill="white"/>
<path d="M66.7172 331.075C66.7172 331.075 68.7438 325.671 68.7438 284.463C68.7438 243.255 63.3395 227.043 63.3395 186.51C63.3395 145.978 60.6373 108.148 60.6373 108.148" stroke="#03DAC6" stroke-miterlimit="10"/>
<path d="M63.6367 207.357C63.6367 207.357 48.937 175.702 42.722 163.853C36.9664 152.868 30.2921 135.034 30.2921 135.034" stroke="#03DAC6" stroke-miterlimit="10"/>
<path d="M31.427 212.437C31.427 212.437 64.2312 273.452 69.014 280.221" stroke="#03DAC6" stroke-miterlimit="10"/>
<path d="M68.7167 263.846L95.2653 200.575" stroke="#03DAC6" stroke-miterlimit="10"/>
<path d="M37.0746 280.234C43.2895 290.395 68.7168 316.957 68.7168 316.957C68.7168 316.957 85.6594 298.879 96.4004 282.491" stroke="#03DAC6" stroke-miterlimit="10"/>
<path d="M63.6367 181.363L80.0118 125.995" stroke="#03DAC6" stroke-miterlimit="10"/>
<path d="M84.781 323.928H47.8156V337.142H51.3013L55.8004 366.19H76.7962L81.2953 337.142H84.781V323.928Z" fill="#03DAC6"/>
<path opacity="0.3" d="M84.781 323.928H47.8156V337.142H51.3013L55.8004 366.19H76.7962L81.2953 337.142H84.781V323.928Z" fill="white"/>
<path d="M139.365 192.05C139.365 192.05 119.098 193.171 113.505 202.453C107.912 211.735 115.194 221.287 125.867 225.232C136.541 229.177 140.216 227.475 141.621 224.948C143.026 222.422 139.365 192.05 139.365 192.05Z" fill="white" stroke="#263238" stroke-linecap="round" stroke-linejoin="round"/>
<path d="M529.461 250.011C529.461 250.011 518.653 250.551 483.376 222.354C448.1 194.157 445.951 177.89 393.894 150.747C341.837 123.604 316.883 120.929 315.262 126.887C313.64 132.845 314.721 382.849 321.233 388.267C327.745 393.684 370.034 390.969 403.109 385.564C436.183 380.16 472.014 383.943 484.457 388.267C496.9 392.59 533.771 404.034 533.771 404.034" fill="white"/>
<path d="M380.127 375.661C371.331 368.906 365.265 341.79 374.033 328.252C382.802 314.714 394.299 319.443 403.838 319.443C413.377 319.443 390.327 307.932 380.87 291.665C371.412 275.398 412.715 188.037 407.297 166.352C406.036 162.07 403.932 158.083 401.109 154.625C398.826 153.368 396.448 152.085 393.935 150.774C341.878 123.658 316.923 120.956 315.302 126.914C313.681 132.872 314.762 382.876 321.274 388.294C327.786 393.711 370.075 390.996 403.149 385.591C406.783 384.997 410.431 384.524 414.093 384.146C400.082 382.038 384.653 379.093 380.127 375.661Z" fill="#03DAC6"/>
<path opacity="0.5" d="M380.127 375.661C371.331 368.906 365.265 341.79 374.033 328.252C382.802 314.714 394.299 319.443 403.838 319.443C413.377 319.443 390.327 307.932 380.87 291.665C371.412 275.398 412.715 188.037 407.297 166.352C406.036 162.07 403.932 158.083 401.109 154.625C398.826 153.368 396.448 152.085 393.935 150.774C341.878 123.658 316.923 120.956 315.302 126.914C313.681 132.872 314.762 382.876 321.274 388.294C327.786 393.711 370.075 390.996 403.149 385.591C406.783 384.997 410.431 384.524 414.093 384.146C400.082 382.038 384.653 379.093 380.127 375.661Z" fill="white"/>
<path d="M529.461 250.011C529.461 250.011 518.653 250.551 483.376 222.354C448.1 194.157 445.951 177.89 393.894 150.747C341.837 123.604 316.883 120.929 315.262 126.887C313.64 132.845 314.721 382.849 321.233 388.267C327.745 393.684 370.034 390.969 403.109 385.564C436.183 380.16 472.014 383.943 484.457 388.267C496.9 392.59 533.771 404.034 533.771 404.034" stroke="#263238" stroke-linecap="round" stroke-linejoin="round"/>
<path d="M133.19 83.504C133.19 83.504 116.599 79.5724 109.29 92.7859C101.98 105.999 120.247 121.469 131.785 125.131L133.19 83.504Z" fill="#03DAC6" stroke="#263238" stroke-linecap="round" stroke-linejoin="round"/>
<path d="M142.742 84.0714C142.621 81.1801 133.906 82.8555 132.366 83.0717C128.328 83.6045 124.579 85.4541 121.699 88.334C118.819 91.2138 116.97 94.9631 116.437 99.0009C114.856 111.161 126.408 124.523 137.905 127.373L144.418 129.008C144.418 129.008 142.742 84.112 142.742 84.0714Z" fill="white" stroke="#263238" stroke-linecap="round" stroke-linejoin="round"/>
<path d="M128.191 253.632C128.191 253.632 114.235 254.186 111.37 266.224C108.506 278.262 126.34 286.49 136.244 286.787L128.191 253.632Z" fill="#03DAC6" stroke="#263238" stroke-linecap="round" stroke-linejoin="round"/>
<path d="M139.932 250.538C139.203 248.281 128.624 252.956 127.448 253.47C124.381 254.78 121.831 257.066 120.194 259.973C118.558 262.879 117.926 266.245 118.396 269.547C119.828 279.518 131.907 287.49 141.58 287.233L147.079 287.084C147.079 287.084 139.946 250.565 139.932 250.538Z" fill="white" stroke="#263238" stroke-linecap="round" stroke-linejoin="round"/>
<path d="M139.365 142.56C139.365 142.56 119.098 143.681 113.505 152.963C107.912 162.245 115.194 171.797 125.867 175.742C136.541 179.687 140.216 177.985 141.621 175.458C143.026 172.932 139.365 142.56 139.365 142.56Z" fill="white" stroke="#263238" stroke-linecap="round" stroke-linejoin="round"/>
<path d="M129.542 205.547C129.542 205.547 137.135 222.976 136.568 237.04C136 251.105 119.977 255.307 114.072 252.78C108.168 250.254 105.642 219.882 109.573 209.762C113.505 199.643 121.112 198.791 121.112 198.791" fill="white"/>
<path d="M129.542 205.547C129.542 205.547 137.135 222.976 136.568 237.04C136 251.105 119.977 255.307 114.072 252.78C108.168 250.254 105.642 219.882 109.573 209.762C113.505 199.643 121.112 198.791 121.112 198.791" stroke="#263238" stroke-linecap="round" stroke-linejoin="round"/>
<path d="M110.127 222.138C110.127 222.138 107.925 239.851 107.925 247.444C107.925 255.037 109.6 253.348 113.546 244.066C117.491 234.784 117.72 213.978 110.127 222.138Z" fill="#03DAC6" stroke="#263238" stroke-linecap="round" stroke-linejoin="round"/>
<path d="M129.542 156.057C129.542 156.057 137.135 173.486 136.568 187.551C136 201.615 119.977 205.831 114.072 203.291C108.168 200.751 105.642 170.392 109.573 160.272C113.505 150.153 121.112 149.302 121.112 149.302" fill="white"/>
<path d="M129.542 156.057C129.542 156.057 137.135 173.486 136.568 187.551C136 201.615 119.977 205.831 114.072 203.291C108.168 200.751 105.642 170.392 109.573 160.272C113.505 150.153 121.112 149.302 121.112 149.302" stroke="#263238" stroke-linecap="round" stroke-linejoin="round"/>
<path d="M110.127 172.648C110.127 172.648 107.925 190.361 107.925 197.954C107.925 205.547 109.6 203.858 113.546 194.576C117.491 185.294 117.72 164.488 110.127 172.648Z" fill="#03DAC6" stroke="#263238" stroke-linecap="round" stroke-linejoin="round"/>
<path d="M451.356 380.647C448.01 368.461 446.364 355.871 446.465 343.235" stroke="#263238" stroke-linecap="round" stroke-linejoin="round"/>
<path d="M456.774 333.467C456.774 333.467 456.233 356.786 459.476 364.92" stroke="#263238" stroke-linecap="round" stroke-linejoin="round"/>
<path d="M385.734 312.323C385.734 312.323 407.972 327.509 434.535 327.509" stroke="#263238" stroke-linecap="round" stroke-linejoin="round"/>
<path d="M492.361 229.893C492.361 229.893 481.552 222.3 468.501 201.156C455.449 180.011 424.077 134.453 418.673 111.674C413.269 88.8948 412.715 81.3152 409.459 68.2909C406.202 55.2665 398.069 48.7678 399.704 32.5008C401.339 16.2338 396.448 8.10033 388.895 7.01947C381.343 5.93861 369.913 4.84424 363.954 33.0412C357.996 61.2382 368.832 100.825 372.628 119.267C376.425 137.709 376.425 153.976 368.832 173.499C361.239 193.022 353.105 219.044 360.725 257.55C368.345 296.056 392.719 307.445 411.701 315.579" fill="white"/>
<path d="M385.95 133.035C383.396 101.798 373.196 71.8172 370.642 48.8624C368.656 30.9336 375.222 14.1802 378.195 7.69504C372.79 9.95134 367.386 16.3825 363.846 33.0413C357.875 61.2383 368.724 100.825 372.52 119.267C376.317 137.709 376.317 153.976 368.724 173.499C361.131 193.022 352.997 219.044 360.617 257.55C362.374 267.291 365.929 276.619 371.102 285.058C353.375 230.893 388.436 163.542 385.95 133.035Z" fill="#03DAC6"/>
<path opacity="0.5" d="M385.95 133.035C383.396 101.798 373.196 71.8172 370.642 48.8624C368.656 30.9336 375.222 14.1802 378.195 7.69504C372.79 9.95134 367.386 16.3825 363.846 33.0413C357.875 61.2383 368.724 100.825 372.52 119.267C376.317 137.709 376.317 153.976 368.724 173.499C361.131 193.022 352.997 219.044 360.617 257.55C362.374 267.291 365.929 276.619 371.102 285.058C353.375 230.893 388.436 163.542 385.95 133.035Z" fill="white"/>
<path d="M492.361 229.893C492.361 229.893 481.552 222.3 468.501 201.156C455.449 180.011 424.077 134.453 418.673 111.674C413.269 88.8948 412.715 81.3152 409.459 68.2909C406.202 55.2665 398.069 48.7678 399.704 32.5008C401.339 16.2338 396.448 8.10033 388.895 7.01947C381.343 5.93861 369.913 4.84424 363.954 33.0412C357.996 61.2382 368.832 100.825 372.628 119.267C376.425 137.709 376.425 153.976 368.832 173.499C361.239 193.022 353.105 219.044 360.725 257.55C368.345 296.056 392.719 307.445 411.701 315.579" stroke="#263238" stroke-linecap="round" stroke-linejoin="round"/>
<path d="M406.203 68.4125C406.203 68.4125 402.257 63.4946 391.435 69.3988" stroke="#263238" stroke-linecap="round" stroke-linejoin="round"/>
<path d="M392.422 74.803C392.422 74.803 400.298 69.8851 406.689 74.3167" stroke="#263238" stroke-linecap="round" stroke-linejoin="round"/>
<path d="M409.215 79.2346C405.784 79.6119 402.332 79.7744 398.88 79.721" stroke="#263238" stroke-linecap="round" stroke-linejoin="round"/>
<path d="M354.132 9.61353H145.526C140.489 9.61353 136.406 13.6966 136.406 18.7333V409.316C136.406 414.353 140.489 418.436 145.526 418.436H354.132C359.169 418.436 363.252 414.353 363.252 409.316V18.7333C363.252 13.6966 359.169 9.61353 354.132 9.61353Z" fill="#03DAC6" stroke="#263238" stroke-linecap="round" stroke-linejoin="round"/>
<path d="M354.132 1.95294H145.526C140.489 1.95294 136.406 6.036 136.406 11.0727V401.656C136.406 406.693 140.489 410.776 145.526 410.776H354.132C359.169 410.776 363.252 406.693 363.252 401.656V11.0727C363.252 6.036 359.169 1.95294 354.132 1.95294Z" fill="#263238" stroke="#263238" stroke-miterlimit="10"/>
<path d="M348.917 374.31H150.741V26.7047H197.718L203 31.0957C204.846 32.6263 207.169 33.4627 209.567 33.4601H292.442C294.928 33.4513 297.327 32.5444 299.197 30.9065L303.966 26.7047H348.876L348.917 374.31Z" fill="#03DAC6" stroke="#263238" stroke-linecap="round" stroke-linejoin="round"/>
<path d="M249.829 214.68C281.131 214.68 306.507 189.305 306.507 158.002C306.507 126.7 281.131 101.325 249.829 101.325C218.527 101.325 193.151 126.7 193.151 158.002C193.151 189.305 218.527 214.68 249.829 214.68Z" fill="white"/>
<path d="M243.357 101.392C243.357 101.392 237.507 99.0549 223.186 106.067C208.864 113.079 201.271 123.023 207.405 131.737C213.539 140.452 223.483 140.506 229.022 148.113C234.562 155.719 226.604 164.028 220.47 176.89C214.336 189.753 225.091 197.278 234.156 200.197C243.222 203.115 243.925 193.117 254.152 176.161C264.38 159.205 249.18 130.224 244.506 119.416C239.831 108.607 243.357 101.392 243.357 101.392Z" fill="#263238" stroke="#263238" stroke-linecap="round" stroke-linejoin="round"/>
<path d="M234.724 122.023C234.724 122.023 224.807 122.969 222.442 126.752C220.078 130.535 226.225 130.994 226.225 130.994" stroke="white" stroke-linecap="round" stroke-linejoin="round"/>
<path d="M234.724 113.998C234.724 113.998 212.066 122.496 211.593 128.644C211.12 134.791 222.915 135.25 222.915 135.25" stroke="white" stroke-linecap="round" stroke-linejoin="round"/>
<path d="M242.763 176.809C242.763 176.809 230.752 192.266 224.023 197.224C217.295 202.183 215.457 208.925 218.957 212.437C222.456 215.95 220.848 216.261 242.182 218.017C263.515 219.774 274.918 215.68 281.93 208.965C288.942 202.25 292.442 196.684 292.442 191.131C292.442 185.578 267.893 172.432 259.421 172.432C250.95 172.432 242.763 176.809 242.763 176.809Z" fill="white" stroke="#263238" stroke-linecap="round" stroke-linejoin="round"/>
<path d="M244.519 189.672L233.413 203.412C233.413 203.412 238.088 206.911 238.966 205.452C239.844 203.993 243.938 196.4 243.938 196.4" stroke="#263238" stroke-linecap="round" stroke-linejoin="round"/>
<path d="M251.247 169.514C251.247 169.514 243.357 172.432 241.884 174.472C240.412 176.512 227.023 186.172 230.792 186.456C234.562 186.74 242.182 180.322 242.182 180.322C242.182 180.322 242.763 189.672 244.519 189.672C246.275 189.672 258.543 184.7 258.543 184.7C258.543 184.7 263.218 196.981 266.15 193.765C269.082 190.55 271.703 172.729 269.649 168.338C267.595 163.947 251.247 169.514 251.247 169.514Z" fill="#03DAC6" stroke="#263238" stroke-linecap="round" stroke-linejoin="round"/>
<path d="M247.437 162.191V178.269C247.437 183.227 245.397 185.862 248.613 185.024C251.828 184.186 259.138 177.715 263.475 171C267.812 164.285 265.812 154.044 264.056 146.748C262.299 139.452 257.922 144.694 255.287 147.91C252.653 151.125 247.437 162.191 247.437 162.191Z" fill="white" stroke="#263238" stroke-linecap="round" stroke-linejoin="round"/>
<path d="M236.277 120.996L224.591 135.021C224.591 135.021 226.644 149.882 230.144 155.476C233.643 161.069 242.128 168.041 245.924 166.879C249.721 165.717 260.786 149.315 261.421 147.302C262.849 142.968 262.534 138.248 260.543 134.142C257.665 127.725 236.277 120.996 236.277 120.996Z" fill="white" stroke="#263238" stroke-linecap="round" stroke-linejoin="round"/>
<path d="M235.17 138.236C235.17 138.236 236.926 143.208 236.048 145.248C235.17 147.288 232.251 148.464 233.346 149.923C233.749 150.361 234.251 150.697 234.811 150.902C235.37 151.106 235.97 151.174 236.561 151.098" stroke="#263238" stroke-linecap="round" stroke-linejoin="round"/>
<path d="M236.048 155.773C236.048 155.773 242.479 156.949 243.641 153.139" stroke="#263238" stroke-linecap="round" stroke-linejoin="round"/>
<path d="M244.978 141.249C244.978 142.262 244.479 143.073 243.884 143.073C243.29 143.073 242.79 142.262 242.79 141.249C242.79 140.236 243.276 139.439 243.884 139.439C244.492 139.439 244.978 140.249 244.978 141.249Z" fill="#263238"/>
<path d="M234.926 142.668C234.926 143.681 234.44 144.492 233.832 144.492C233.224 144.492 232.738 143.681 232.738 142.668C232.738 141.654 233.224 140.857 233.832 140.857C234.44 140.857 234.926 141.668 234.926 142.668Z" fill="#263238"/>
<path d="M228.171 139.222C228.171 139.222 228.982 135.453 231.535 135.453C234.089 135.453 234.508 136.264 234.508 136.264" stroke="#263238" stroke-linecap="round" stroke-linejoin="round"/>
<path d="M238.831 135.264C239.029 134.237 239.616 133.326 240.469 132.722C241.323 132.117 242.377 131.866 243.411 132.021C247.181 132.562 247.316 134.723 247.316 134.723" stroke="#263238" stroke-linecap="round" stroke-linejoin="round"/>
<path d="M233.129 114.565C233.129 114.565 234.589 129.765 248.316 137.655C262.042 145.545 268.487 155.476 264.096 167.757C259.705 180.038 254.747 190.847 266.433 198.44C278.12 206.033 291.564 203.115 300.926 190.55C310.289 177.985 311.357 159.475 301.413 143.357C291.469 127.238 288.24 120.186 281.822 110.553C275.405 100.919 256.152 99.3791 245.978 100.244C243.159 100.377 240.434 101.297 238.111 102.899C235.787 104.502 233.959 106.722 232.832 109.31" fill="#263238"/>
<path d="M233.129 114.565C233.129 114.565 234.589 129.765 248.316 137.655C262.042 145.545 268.487 155.476 264.096 167.757C259.705 180.038 254.747 190.847 266.433 198.44C278.12 206.033 291.564 203.115 300.926 190.55C310.289 177.985 311.357 159.475 301.413 143.357C291.469 127.238 288.24 120.186 281.822 110.553C275.405 100.919 256.152 99.3791 245.978 100.244C243.159 100.377 240.434 101.297 238.111 102.899C235.787 104.502 233.959 106.722 232.832 109.31" stroke="#263238" stroke-linecap="round" stroke-linejoin="round"/>
<path d="M238.507 117.308C238.507 117.308 234.251 129.589 254.558 137.142C274.864 144.694 297.995 145.167 299.413 162.637" stroke="white" stroke-linecap="round" stroke-linejoin="round"/>
<path d="M270.311 192.874C270.814 193.967 271.563 194.928 272.5 195.684" stroke="white" stroke-linecap="round" stroke-linejoin="round"/>
<path d="M253.139 136.669C253.139 136.669 271.554 147.478 273.405 161.218C274.648 170.203 270.392 179.39 269.595 186.524" stroke="white" stroke-linecap="round" stroke-linejoin="round"/>
<path d="M240.331 107.499C233.819 113.174 234.737 122.023 234.737 122.023" stroke="white" stroke-linecap="round" stroke-linejoin="round"/>
<path d="M246.532 104.094C245.519 104.419 244.534 104.826 243.587 105.31" stroke="white" stroke-linecap="round" stroke-linejoin="round"/>
<path d="M249.829 214.68C281.131 214.68 306.507 189.305 306.507 158.002C306.507 126.7 281.131 101.325 249.829 101.325C218.527 101.325 193.151 126.7 193.151 158.002C193.151 189.305 218.527 214.68 249.829 214.68Z" stroke="#263238" stroke-miterlimit="10"/>
<path d="M294.779 235.608H204.865C199.97 235.608 196.002 239.576 196.002 244.471V251.416C196.002 256.311 199.97 260.279 204.865 260.279H294.779C299.674 260.279 303.642 256.311 303.642 251.416V244.471C303.642 239.576 299.674 235.608 294.779 235.608Z" fill="white" stroke="#263238" stroke-linecap="round" stroke-linejoin="round"/>
<path d="M294.779 276.546H204.865C199.97 276.546 196.002 280.514 196.002 285.409V292.354C196.002 297.249 199.97 301.217 204.865 301.217H294.779C299.674 301.217 303.642 297.249 303.642 292.354V285.409C303.642 280.514 299.674 276.546 294.779 276.546Z" fill="white" stroke="#263238" stroke-linecap="round" stroke-linejoin="round"/>
<path d="M294.779 317.484H204.865C199.97 317.484 196.002 321.452 196.002 326.347V333.291C196.002 338.186 199.97 342.154 204.865 342.154H294.779C299.674 342.154 303.642 338.186 303.642 333.291V326.347C303.642 321.452 299.674 317.484 294.779 317.484Z" fill="#263238"/>
<path d="M219.674 330.904C219.074 330.904 218.498 330.816 217.946 330.64C217.402 330.456 216.966 330.212 216.638 329.908C216.518 329.796 216.458 329.656 216.458 329.488C216.458 329.376 216.49 329.28 216.554 329.2C216.618 329.112 216.694 329.068 216.782 329.068C216.886 329.068 216.998 329.112 217.118 329.2C217.862 329.776 218.71 330.064 219.662 330.064C220.35 330.064 220.878 329.932 221.246 329.668C221.614 329.404 221.798 329.028 221.798 328.54C221.798 328.26 221.71 328.036 221.534 327.868C221.358 327.692 221.126 327.552 220.838 327.448C220.55 327.344 220.162 327.236 219.674 327.124C219.018 326.972 218.478 326.812 218.054 326.644C217.638 326.476 217.298 326.236 217.034 325.924C216.778 325.612 216.65 325.204 216.65 324.7C216.65 324.22 216.778 323.796 217.034 323.428C217.298 323.052 217.662 322.764 218.126 322.564C218.598 322.356 219.134 322.252 219.734 322.252C220.294 322.252 220.814 322.34 221.294 322.516C221.782 322.684 222.19 322.928 222.518 323.248C222.646 323.376 222.71 323.516 222.71 323.668C222.71 323.78 222.678 323.88 222.614 323.968C222.55 324.048 222.474 324.088 222.386 324.088C222.298 324.088 222.182 324.044 222.038 323.956C221.646 323.636 221.282 323.412 220.946 323.284C220.61 323.156 220.206 323.092 219.734 323.092C219.07 323.092 218.554 323.232 218.186 323.512C217.818 323.784 217.634 324.168 217.634 324.664C217.634 325.088 217.794 325.408 218.114 325.624C218.442 325.832 218.942 326.016 219.614 326.176C220.342 326.352 220.914 326.516 221.33 326.668C221.746 326.812 222.09 327.032 222.362 327.328C222.642 327.624 222.782 328.02 222.782 328.516C222.782 328.988 222.65 329.404 222.386 329.764C222.13 330.124 221.766 330.404 221.294 330.604C220.822 330.804 220.282 330.904 219.674 330.904ZM224.873 330.868C224.721 330.868 224.601 330.824 224.513 330.736C224.425 330.64 224.381 330.516 224.381 330.364V322.792C224.381 322.64 224.425 322.52 224.513 322.432C224.601 322.336 224.721 322.288 224.873 322.288C225.025 322.288 225.145 322.336 225.233 322.432C225.321 322.52 225.365 322.64 225.365 322.792V330.364C225.365 330.516 225.321 330.64 225.233 330.736C225.145 330.824 225.025 330.868 224.873 330.868ZM233.739 326.404C233.859 326.404 233.955 326.44 234.027 326.512C234.107 326.584 234.147 326.684 234.147 326.812V329.8C234.147 329.992 234.115 330.136 234.051 330.232C233.995 330.328 233.887 330.404 233.727 330.46C233.407 330.596 233.019 330.704 232.563 330.784C232.107 330.864 231.651 330.904 231.195 330.904C230.355 330.904 229.631 330.732 229.023 330.388C228.415 330.044 227.947 329.548 227.619 328.9C227.299 328.252 227.139 327.476 227.139 326.572C227.139 325.684 227.299 324.916 227.619 324.268C227.939 323.62 228.399 323.124 228.999 322.78C229.599 322.428 230.303 322.252 231.111 322.252C231.671 322.252 232.191 322.34 232.671 322.516C233.151 322.684 233.555 322.928 233.883 323.248C234.019 323.384 234.087 323.524 234.087 323.668C234.087 323.78 234.055 323.88 233.991 323.968C233.927 324.048 233.847 324.088 233.751 324.088C233.655 324.088 233.543 324.04 233.415 323.944C232.999 323.624 232.623 323.404 232.287 323.284C231.951 323.156 231.563 323.092 231.123 323.092C230.171 323.092 229.439 323.392 228.927 323.992C228.423 324.592 228.171 325.452 228.171 326.572C228.171 327.716 228.427 328.588 228.939 329.188C229.459 329.78 230.219 330.076 231.219 330.076C231.963 330.076 232.639 329.964 233.247 329.74V327.172H231.495C231.359 327.172 231.251 327.136 231.171 327.064C231.091 326.992 231.051 326.9 231.051 326.788C231.051 326.668 231.091 326.576 231.171 326.512C231.251 326.44 231.359 326.404 231.495 326.404H233.739ZM242.458 322.288C242.602 322.288 242.714 322.336 242.794 322.432C242.874 322.52 242.914 322.64 242.914 322.792V330.364C242.914 330.516 242.87 330.64 242.782 330.736C242.702 330.824 242.586 330.868 242.434 330.868C242.282 330.868 242.15 330.8 242.038 330.664L237.058 324.004V330.364C237.058 330.516 237.014 330.64 236.926 330.736C236.846 330.824 236.734 330.868 236.59 330.868C236.446 330.868 236.334 330.824 236.254 330.736C236.174 330.64 236.134 330.516 236.134 330.364V322.792C236.134 322.64 236.174 322.52 236.254 322.432C236.342 322.336 236.462 322.288 236.614 322.288C236.774 322.288 236.91 322.356 237.022 322.492L241.99 329.152V322.792C241.99 322.64 242.03 322.52 242.11 322.432C242.198 322.336 242.314 322.288 242.458 322.288ZM248.591 330.868C248.439 330.868 248.319 330.824 248.231 330.736C248.143 330.64 248.099 330.516 248.099 330.364V322.792C248.099 322.64 248.143 322.52 248.231 322.432C248.319 322.336 248.439 322.288 248.591 322.288C248.743 322.288 248.863 322.336 248.951 322.432C249.039 322.52 249.083 322.64 249.083 322.792V330.364C249.083 330.516 249.039 330.64 248.951 330.736C248.863 330.824 248.743 330.868 248.591 330.868ZM257.494 322.288C257.638 322.288 257.75 322.336 257.83 322.432C257.91 322.52 257.95 322.64 257.95 322.792V330.364C257.95 330.516 257.906 330.64 257.818 330.736C257.738 330.824 257.622 330.868 257.47 330.868C257.318 330.868 257.186 330.8 257.074 330.664L252.094 324.004V330.364C252.094 330.516 252.05 330.64 251.962 330.736C251.882 330.824 251.77 330.868 251.626 330.868C251.482 330.868 251.37 330.824 251.29 330.736C251.21 330.64 251.17 330.516 251.17 330.364V322.792C251.17 322.64 251.21 322.52 251.29 322.432C251.378 322.336 251.498 322.288 251.65 322.288C251.81 322.288 251.946 322.356 252.058 322.492L257.026 329.152V322.792C257.026 322.64 257.066 322.52 257.146 322.432C257.234 322.336 257.35 322.288 257.494 322.288Z" fill="white"/>
<path d="M277.148 87.0979C272.364 87.0979 267.776 85.1975 264.394 81.815C261.011 78.4324 259.111 73.8447 259.111 69.061C259.111 64.2773 261.011 59.6895 264.394 56.307C267.776 52.9244 272.364 51.0241 277.148 51.0241V51.0241C281.929 51.0277 286.513 52.9295 289.893 56.3117C293.273 59.6939 295.171 64.2796 295.171 69.061C295.171 73.8423 293.273 78.428 289.893 81.8102C286.513 85.1924 281.929 87.0943 277.148 87.0979V87.0979Z" fill="#263238"/>
<path d="M274.283 79.9642H278.674V68.9664H281.741L282.066 65.2915H278.674V63.1973C278.674 62.3191 278.85 61.9813 279.688 61.9813H282.066V58.1578H279.026C275.756 58.1578 274.283 59.6034 274.283 62.3596V65.2915H272V68.9664H274.283V79.9642Z" fill="white"/>
<path d="M221.861 87.0979C217.082 87.0907 212.502 85.1872 209.125 81.8054C205.748 78.4236 203.852 73.84 203.852 69.061V69.061C203.852 64.2773 205.752 59.6895 209.134 56.307C212.517 52.9244 217.105 51.0241 221.888 51.0241C224.257 51.0241 226.603 51.4906 228.791 52.3971C230.979 53.3035 232.968 54.6321 234.642 56.307C236.317 57.9818 237.646 59.9702 238.552 62.1586C239.459 64.3469 239.925 66.6923 239.925 69.061V69.061C239.925 71.4319 239.458 73.7795 238.55 75.9696C237.642 78.1597 236.311 80.1493 234.633 81.8245C232.955 83.4998 230.964 84.8278 228.772 85.7326C226.581 86.6375 224.232 87.1014 221.861 87.0979V87.0979Z" fill="#263238"/>
<path d="M212.255 75.1003C213.986 76.2188 215.991 76.8383 218.051 76.8905C220.111 76.9427 222.146 76.4257 223.931 75.3963C225.716 74.3669 227.182 72.8651 228.169 71.0561C229.155 69.247 229.623 67.2009 229.522 65.1428C230.295 64.5841 230.962 63.8935 231.495 63.1027C230.773 63.4214 230.008 63.6309 229.225 63.7242C230.055 63.234 230.676 62.4547 230.968 61.5355C230.196 61.9967 229.35 62.3213 228.468 62.4947C228.094 62.1053 227.645 61.7946 227.148 61.5812C226.652 61.3677 226.117 61.2557 225.577 61.2517C224.984 61.2526 224.398 61.3874 223.864 61.6459C223.33 61.9045 222.861 62.2802 222.492 62.745C222.123 63.2099 221.864 63.752 221.734 64.3309C221.604 64.9098 221.606 65.5106 221.74 66.0886C220.181 66.0151 218.654 65.6166 217.258 64.9186C215.862 64.2206 214.628 63.2385 213.633 62.0354C213.131 62.9021 212.977 63.9275 213.203 64.9035C213.429 65.8796 214.017 66.7332 214.849 67.2911C214.225 67.2725 213.614 67.1058 213.066 66.8047C213.057 67.7215 213.368 68.6127 213.945 69.3253C214.522 70.0379 215.329 70.5272 216.228 70.7093C215.647 70.8742 215.035 70.8974 214.444 70.7768C214.702 71.5545 215.196 72.2325 215.857 72.7167C216.518 73.201 217.313 73.4674 218.133 73.479C217.308 74.1223 216.364 74.5966 215.355 74.8748C214.347 75.153 213.293 75.2296 212.255 75.1003V75.1003Z" fill="white"/>
<path d="M256.165 384.943C256.165 384.05 255.901 383.178 255.405 382.436C254.909 381.694 254.204 381.115 253.38 380.774C252.555 380.432 251.648 380.343 250.772 380.517C249.897 380.691 249.093 381.121 248.462 381.752C247.831 382.383 247.401 383.187 247.227 384.063C247.053 384.938 247.142 385.845 247.484 386.67C247.825 387.494 248.404 388.199 249.146 388.695C249.888 389.191 250.76 389.456 251.653 389.456C252.85 389.456 253.997 388.98 254.844 388.134C255.69 387.288 256.165 386.14 256.165 384.943V384.943Z" fill="white"/>
</svg>
