<svg width="347" height="401" viewBox="0 0 347 401" fill="none"
  xmlns="http://www.w3.org/2000/svg">
  <path d="M172.264 401C246.204 401 306.145 386.428 306.145 368.453C306.145 350.478 246.204 335.906 172.264 335.906C98.3231 335.906 38.3824 350.478 38.3824 368.453C38.3824 386.428 98.3231 401 172.264 401Z" fill="#92E3A9"/>
  <path opacity="0.5" d="M172.264 401C246.204 401 306.145 386.428 306.145 368.453C306.145 350.478 246.204 335.906 172.264 335.906C98.3231 335.906 38.3824 350.478 38.3824 368.453C38.3824 386.428 98.3231 401 172.264 401Z" fill="white"/>
  <path d="M35.2637 147.486L36.1548 147.932" stroke="#263238" stroke-linecap="round" stroke-linejoin="round"/>
  <path d="M37.9172 148.823L171.313 215.828" stroke="#263238" stroke-linecap="round" stroke-linejoin="round" stroke-dasharray="2 2"/>
  <path d="M172.195 216.264L173.086 216.709L172.591 215.848" stroke="#263238" stroke-linecap="round" stroke-linejoin="round"/>
  <path d="M171.63 214.145L89.0004 67.9357" stroke="#263238" stroke-linecap="round" stroke-linejoin="round" stroke-dasharray="1.98 1.98"/>
  <path d="M88.5153 67.0842L88.0301 66.2227" stroke="#263238" stroke-linecap="round" stroke-linejoin="round"/>
  <path d="M310.848 147.486L309.957 147.932" stroke="#263238" stroke-linecap="round" stroke-linejoin="round"/>
  <path d="M308.194 148.823L174.798 215.828" stroke="#263238" stroke-linecap="round" stroke-linejoin="round" stroke-dasharray="2 2"/>
  <path d="M173.918 216.264L173.027 216.709L173.512 215.848" stroke="#263238" stroke-linecap="round" stroke-linejoin="round"/>
  <path d="M174.482 214.145L257.112 67.9357" stroke="#263238" stroke-linecap="round" stroke-linejoin="round" stroke-dasharray="1.98 1.98"/>
  <path d="M257.597 67.0842L258.082 66.2227" stroke="#263238" stroke-linecap="round" stroke-linejoin="round"/>
  <path d="M173.086 216.709V215.719" stroke="#263238" stroke-linecap="round" stroke-linejoin="round"/>
  <path d="M173.086 213.729V38.8939" stroke="#263238" stroke-linecap="round" stroke-linejoin="round" stroke-dasharray="2.02 2.02"/>
  <path d="M173.086 37.8939V36.9037" stroke="#263238" stroke-linecap="round" stroke-linejoin="round"/>
  <path d="M140.083 263.049L139.796 373.216C139.764 373.491 139.841 373.767 140.009 373.986C140.177 374.206 140.423 374.352 140.697 374.394C140.964 374.357 141.207 374.22 141.376 374.01C141.545 373.8 141.628 373.534 141.608 373.265L143.756 263.178L140.083 263.049Z" fill="white" stroke="#263238" stroke-linecap="round" stroke-linejoin="round"/>
  <path d="M209.801 259.504L210.068 355.63C210.091 355.863 210.024 356.095 209.88 356.28C209.736 356.464 209.527 356.586 209.296 356.62C209.066 356.586 208.857 356.464 208.715 356.279C208.573 356.094 208.508 355.862 208.534 355.63L206.702 259.584L209.801 259.504Z" fill="white" stroke="#263238" stroke-linecap="round" stroke-linejoin="round"/>
  <path d="M139.004 259.504L139.271 355.63C139.294 355.863 139.227 356.095 139.083 356.28C138.939 356.464 138.73 356.586 138.499 356.62C138.268 356.586 138.06 356.464 137.918 356.279C137.776 356.094 137.711 355.862 137.736 355.63L135.904 259.584L139.004 259.504Z" fill="white" stroke="#263238" stroke-linecap="round" stroke-linejoin="round"/>
  <path d="M207.811 263.049L208.118 373.216C208.149 373.491 208.072 373.767 207.904 373.986C207.736 374.206 207.49 374.352 207.216 374.394C206.951 374.355 206.709 374.217 206.54 374.008C206.372 373.799 206.288 373.533 206.306 373.265L204.157 263.178L207.811 263.049Z" fill="white" stroke="#263238" stroke-linecap="round" stroke-linejoin="round"/>
  <path d="M173.462 270.763C197.797 270.763 217.524 266.254 217.524 260.693C217.524 255.131 197.797 250.622 173.462 250.622C149.127 250.622 129.399 255.131 129.399 260.693C129.399 266.254 149.127 270.763 173.462 270.763Z" fill="#92E3A9" stroke="#263238" stroke-linecap="round" stroke-linejoin="round"/>
  <path d="M148.212 219.6C148.212 219.6 138.806 233.958 138.806 242.869C138.806 251.781 144.747 259.207 149.202 261.683C153.658 264.158 199.206 262.178 199.206 262.178C199.206 262.178 211.583 254.751 210.098 242.374C208.86 232.047 200.691 220.095 200.691 220.095L148.212 219.6Z" fill="#263238" stroke="#263238" stroke-linecap="round" stroke-linejoin="round"/>
  <path d="M166.531 356.739C166.531 356.739 164.055 371.592 160.094 377.533C156.134 383.474 150.193 381.989 150.688 375.057C151.183 368.126 157.619 356.739 157.619 356.739H166.531Z" fill="white" stroke="#263238" stroke-linecap="round" stroke-linejoin="round"/>
  <path d="M151.41 371.235C151.41 373.562 152.123 376.028 154.737 376.949C158.074 378.127 161.401 373.097 163.787 368.701C164.927 364.756 165.853 360.754 166.56 356.71H157.648C157.648 356.71 153.193 364.631 151.41 371.235Z" fill="#263238" stroke="#263238" stroke-linecap="round" stroke-linejoin="round"/>
  <path d="M160.589 233.958C160.589 233.958 169.996 239.899 172.472 247.325C174.947 254.752 167.026 356.739 167.026 356.739H158.114C158.114 356.739 154.153 315.152 151.183 300.795C148.212 286.437 152.668 267.129 152.668 264.158C152.668 261.188 139.796 267.624 138.806 242.869" fill="#263238"/>
  <path d="M160.589 233.958C160.589 233.958 169.996 239.899 172.472 247.325C174.947 254.752 167.026 356.739 167.026 356.739H158.114C158.114 356.739 154.153 315.152 151.183 300.795C148.212 286.437 152.668 267.129 152.668 264.158C152.668 261.188 139.796 267.624 138.806 242.869" stroke="#263238" stroke-linecap="round" stroke-linejoin="round"/>
  <path d="M180.888 356.739C180.888 356.739 183.363 371.592 187.324 377.533C191.285 383.474 197.226 381.989 196.73 375.057C196.235 368.126 189.799 356.739 189.799 356.739H180.888Z" fill="white" stroke="#263238" stroke-linecap="round" stroke-linejoin="round"/>
  <path d="M192.374 376.335C194.82 376.335 195.929 374.741 196.335 372.661C194.869 365.789 189.76 356.739 189.76 356.739H180.848C180.848 356.739 181.68 361.74 183.155 367.096C185.453 371.344 188.859 376.335 192.374 376.335Z" fill="#263238" stroke="#263238" stroke-linecap="round" stroke-linejoin="round"/>
  <path d="M186.859 233.958C186.859 233.958 177.452 239.899 174.977 247.325C172.501 254.752 180.423 356.739 180.423 356.739H189.334C189.334 356.739 193.295 315.152 196.265 300.795C199.236 286.437 194.78 267.129 194.78 264.158C194.78 261.188 209.108 267.129 210.098 242.374" fill="#263238"/>
  <path d="M186.859 233.958C186.859 233.958 177.452 239.899 174.977 247.325C172.501 254.752 180.423 356.739 180.423 356.739H189.334C189.334 356.739 193.295 315.152 196.265 300.795C199.236 286.437 194.78 267.129 194.78 264.158C194.78 261.188 209.108 267.129 210.098 242.374" stroke="#263238" stroke-linecap="round" stroke-linejoin="round"/>
  <path d="M62.1959 229.829L61.7107 349.867C61.7107 350.246 61.8609 350.608 62.1283 350.876C62.3957 351.143 62.7584 351.293 63.1366 351.293C63.5053 351.293 63.8596 351.15 64.1241 350.893C64.3885 350.636 64.5422 350.286 64.5525 349.917L67.9785 229.997L62.1959 229.829Z" fill="white" stroke="#263238" stroke-linecap="round" stroke-linejoin="round"/>
  <path d="M54.116 257.89L53.6506 381.989C53.6493 382.176 53.6853 382.362 53.7565 382.536C53.8277 382.71 53.9326 382.867 54.0653 383C54.198 383.133 54.3557 383.238 54.5293 383.309C54.7028 383.38 54.8888 383.416 55.0765 383.415C55.4445 383.415 55.7985 383.273 56.0642 383.018C56.33 382.763 56.487 382.416 56.5023 382.048L59.9184 258.049L54.116 257.89Z" fill="white" stroke="#263238" stroke-linecap="round" stroke-linejoin="round"/>
  <path d="M287.559 229.829L288.044 349.867C288.046 350.054 288.01 350.239 287.939 350.412C287.869 350.585 287.765 350.743 287.633 350.875C287.502 351.008 287.345 351.113 287.173 351.185C287 351.256 286.815 351.293 286.628 351.293C286.259 351.294 285.903 351.15 285.637 350.893C285.371 350.637 285.215 350.286 285.203 349.917L281.786 229.997L287.559 229.829Z" fill="white" stroke="#263238" stroke-linecap="round" stroke-linejoin="round"/>
  <path d="M295.649 257.89L296.134 381.989C296.136 382.176 296.1 382.362 296.028 382.536C295.957 382.71 295.852 382.867 295.72 383C295.587 383.133 295.429 383.238 295.256 383.309C295.082 383.38 294.896 383.416 294.708 383.415C294.341 383.415 293.988 383.272 293.724 383.017C293.46 382.763 293.305 382.415 293.292 382.048L289.876 258.049L295.649 257.89Z" fill="white" stroke="#263238" stroke-linecap="round" stroke-linejoin="round"/>
  <path d="M300.659 251.177L297.095 247.969L288.856 230.146C288.466 229.335 287.852 228.652 287.088 228.177C286.323 227.702 285.439 227.454 284.539 227.462H65.117C64.2153 227.452 63.3293 227.699 62.5629 228.174C61.7965 228.649 61.1815 229.333 60.79 230.146L50.5219 252.415L48.8287 251.791V256.87L48.9079 256.811C49.0068 257.49 49.3502 258.109 49.8735 258.552C50.3969 258.995 51.0641 259.232 51.7497 259.217H297.897C298.618 259.234 299.318 258.969 299.848 258.48C300.378 257.99 300.698 257.314 300.739 256.593L300.659 251.177Z" fill="#263238" stroke="#263238" stroke-linecap="round" stroke-linejoin="round"/>
  <path d="M297.896 254.504H51.7494C51.287 254.522 50.8274 254.423 50.4139 254.215C50.0004 254.007 49.6464 253.698 49.3851 253.316C49.1238 252.934 48.9639 252.492 48.9202 252.031C48.8765 251.571 48.9505 251.106 49.1354 250.682L60.7897 225.502C61.1793 224.688 61.7938 224.003 62.5607 223.527C63.3275 223.052 64.2145 222.806 65.1167 222.818H284.539C285.44 222.808 286.324 223.054 287.089 223.53C287.854 224.005 288.467 224.69 288.856 225.502L300.52 250.682C300.703 251.107 300.775 251.572 300.729 252.032C300.684 252.493 300.523 252.934 300.261 253.316C299.999 253.697 299.645 254.006 299.231 254.214C298.818 254.422 298.359 254.521 297.896 254.504Z" fill="white" stroke="#263238" stroke-linecap="round" stroke-linejoin="round"/>
  <path d="M170.363 145.228C170.363 145.228 162.798 146.575 159.203 148.932C155.609 151.288 142.638 155.685 140.836 158.715C139.033 161.745 127.874 201.223 127.508 204.263C127.141 207.302 130.756 210.332 135.073 210.332C139.39 210.332 149.48 182.34 149.48 182.34L153.797 196.51L143.667 226.215H204.662L197.008 195.519L200.969 180.667L214.296 213.342C214.296 213.342 220.059 219.076 223.654 212.669C227.248 206.263 215.732 181.3 214.653 176.241C213.574 171.181 209.256 159.408 206.009 155.665C202.761 151.922 193.414 148.239 188.007 146.219C182.601 144.199 176.125 144.892 170.363 145.228Z" fill="#92E3A9" stroke="#263238" stroke-linecap="round" stroke-linejoin="round"/>
  <path d="M204.107 169.052L200.969 180.647L205.226 175.221" stroke="#263238" stroke-linecap="round" stroke-linejoin="round"/>
  <path d="M145.291 168.498L149.48 182.33L143.053 174.102" stroke="#263238" stroke-linecap="round" stroke-linejoin="round"/>
  <path d="M175.046 165.804C185.938 166.072 189.305 154.378 189.671 146.872L188.008 146.238C182.611 144.258 176.126 144.892 170.363 145.248C167.577 145.757 164.838 146.496 162.174 147.456C162.57 153.397 164.739 165.547 175.046 165.804Z" fill="white" stroke="#263238" stroke-linecap="round" stroke-linejoin="round"/>
  <path d="M175.046 165.804L151.638 225.838H197.008L175.046 165.804Z" fill="white" stroke="#263238" stroke-linecap="round" stroke-linejoin="round"/>
  <path d="M219.138 207.174C219.138 207.174 212.771 208.501 210.643 212.045C208.514 215.59 205.919 220.888 203.325 223.987L210.88 227.948C210.88 227.948 218.901 222.006 221.97 219.541C223.615 218.227 224.735 216.366 225.125 214.297C225.516 212.227 225.152 210.087 224.099 208.263" fill="#92E3A9"/>
  <path d="M219.138 207.174C219.138 207.174 212.771 208.501 210.643 212.045C208.514 215.59 205.919 220.888 203.325 223.987L210.88 227.948C210.88 227.948 218.901 222.006 221.97 219.541C223.615 218.227 224.735 216.366 225.125 214.297C225.516 212.227 225.152 210.087 224.099 208.263" stroke="#263238" stroke-linecap="round" stroke-linejoin="round"/>
  <path d="M217.722 213.59C214.128 212.026 211.593 212.431 210.009 213.115C208.029 216.59 205.672 221.185 203.325 224.007L210.88 227.967C210.88 227.967 218.901 222.026 221.97 219.561C222.393 219.224 222.784 218.849 223.139 218.442C221.916 216.273 220.012 214.567 217.722 213.59Z" fill="white" stroke="#263238" stroke-linecap="round" stroke-linejoin="round"/>
  <path d="M204.028 222.789C204.028 222.789 200.721 222.343 198.83 223.452C196.939 224.561 193.166 228.977 194.344 229.641C195.523 230.304 197.889 226.106 199.068 226.106C200.357 226.262 201.625 226.557 202.85 226.987L204.028 222.789Z" fill="white" stroke="#263238" stroke-linecap="round" stroke-linejoin="round"/>
  <path d="M209.781 222.868C209.781 222.868 205.295 221.541 202.701 221.977C200.107 222.412 196.562 229.502 195.384 231.71C194.206 233.918 195.146 234.582 196.087 233.918C197.028 233.255 200.107 228.393 200.107 228.393L197.503 234.592C197.633 234.837 197.855 235.02 198.12 235.104C198.384 235.187 198.671 235.163 198.919 235.037C199.909 234.592 203.186 227.948 203.186 227.948L201.285 234.819C201.452 235.023 201.675 235.174 201.927 235.251C202.179 235.329 202.449 235.33 202.701 235.255C203.691 235.037 206.236 229.512 206.236 229.512C206.236 229.512 203.879 235.918 204.583 236.146C205.092 236.178 205.598 236.044 206.025 235.764C206.452 235.484 206.776 235.072 206.949 234.592C208.341 232.256 209.92 230.037 211.672 227.957C212.85 226.67 212.375 223.967 209.781 222.868Z" fill="white" stroke="#263238" stroke-linecap="round" stroke-linejoin="round"/>
  <path d="M200.107 228.393L202.286 225.145" stroke="#263238" stroke-linecap="round" stroke-linejoin="round"/>
  <path d="M203.187 227.938L204.177 225.462" stroke="#263238" stroke-linecap="round" stroke-linejoin="round"/>
  <path d="M206.236 229.502L207.108 226.918" stroke="#263238" stroke-linecap="round" stroke-linejoin="round"/>
  <path d="M155.579 130.624C155.579 130.624 157.114 134.584 154.351 141.377C151.589 148.169 153.114 158.21 154.965 163.161C156.817 168.111 160.183 173.607 161.104 172.379C162.025 171.151 163.867 157.022 164.174 147.506C164.481 137.99 163.56 131.228 161.411 128.158C159.263 125.088 155.272 126.663 155.579 130.624Z" fill="#263238"/>
  <path d="M161.104 172.369C161.104 172.369 158.956 178.201 158.956 182.499C158.956 186.796 164.174 189.252 164.174 189.252C164.174 189.252 166.936 184.647 166.016 180.043C165.095 175.439 161.104 172.369 161.104 172.369Z" fill="#263238"/>
  <path d="M156.44 125.544C156.44 125.544 154.183 121.643 152.41 123.653C150.638 125.663 153.836 130.287 155.609 131.822C157.381 133.356 158.688 132.416 158.579 130.762C158.47 129.109 156.44 125.544 156.44 125.544Z" fill="white" stroke="#263238" stroke-linecap="round" stroke-linejoin="round"/>
  <path d="M192.275 125.544C192.275 125.544 194.523 121.643 196.305 123.653C198.087 125.663 194.879 130.287 193.107 131.822C191.334 133.356 190.017 132.416 190.136 130.762C190.255 129.109 192.275 125.544 192.275 125.544Z" fill="white" stroke="#263238" stroke-linecap="round" stroke-linejoin="round"/>
  <path d="M180.393 156.526C181.324 151.576 181.878 144.852 181.878 144.852C181.878 144.852 170.739 146.397 167.026 144.268C167.026 144.268 168.62 151.407 170.422 156.794" fill="white"/>
  <path d="M180.393 156.526C181.324 151.576 181.878 144.852 181.878 144.852C181.878 144.852 170.739 146.397 167.026 144.268C167.026 144.268 168.62 151.407 170.422 156.794" stroke="#263238" stroke-linecap="round" stroke-linejoin="round"/>
  <path d="M156.678 126.851C156.678 126.851 159.757 137.743 165.59 144.149C171.422 150.556 173.511 152.071 176.61 151.605C179.709 151.14 183.007 147.11 187.621 138.733C192.235 130.356 192.572 123.88 192.958 123.336C193.344 122.791 191.968 110.899 185.373 105.8C178.779 100.7 171.392 98.4626 164.995 104.027C158.599 109.592 154.539 118.672 156.678 126.851Z" fill="white" stroke="#263238" stroke-linecap="round" stroke-linejoin="round"/>
  <path d="M176.581 132.534C176.213 134.847 176.015 137.184 175.986 139.525C176.105 141.892 176.818 142.605 175.749 142.842C174.679 143.08 173.462 141.416 173.462 141.416" stroke="#263238" stroke-linecap="round" stroke-linejoin="round"/>
  <path d="M173.303 145.813H176.66" stroke="#263238" stroke-linecap="round" stroke-linejoin="round"/>
  <path d="M172.293 130.445C172.293 130.445 170.035 124.871 162.579 127.475" stroke="#263238" stroke-linecap="round" stroke-linejoin="round"/>
  <path d="M178.502 129.752C178.502 129.752 180.393 124.306 187.146 127.504" stroke="#263238" stroke-linecap="round" stroke-linejoin="round"/>
  <path d="M168.689 132.931C168.689 134.01 168.253 134.911 167.699 134.911C167.144 134.911 166.709 134.03 166.709 132.931C166.709 131.831 167.144 130.95 167.699 130.95C168.253 130.95 168.689 131.841 168.689 132.931Z" fill="#263238"/>
  <path d="M181.7 134.891C182.241 134.891 182.68 134.013 182.68 132.931C182.68 131.848 182.241 130.97 181.7 130.97C181.159 130.97 180.72 131.848 180.72 132.931C180.72 134.013 181.159 134.891 181.7 134.891Z" fill="#263238"/>
  <path d="M173.125 134.97C173.125 137.386 170.343 139.347 166.907 139.347C163.471 139.347 160.688 137.367 160.688 134.97C160.688 132.574 163.283 131.525 166.719 131.525C170.155 131.525 173.125 132.544 173.125 134.97Z" stroke="#263238" stroke-width="1.5" stroke-linecap="round" stroke-linejoin="round"/>
  <path d="M188.888 134.97C188.888 137.386 186.106 139.347 182.67 139.347C179.234 139.347 176.442 137.367 176.442 134.97C176.442 132.574 179.046 131.525 182.482 131.525C185.918 131.525 188.888 132.544 188.888 134.97Z" stroke="#263238" stroke-width="1.5" stroke-linecap="round" stroke-linejoin="round"/>
  <path d="M172.769 133.366C172.769 133.366 174.303 132.445 176.729 133.673" stroke="#263238" stroke-width="1.5" stroke-linecap="round" stroke-linejoin="round"/>
  <path d="M184.681 95.5813C171.283 89.8284 161.907 95.5813 161.907 95.5813C160.982 96.0898 160.115 96.6974 159.322 97.3933C154.757 101.502 151.975 109.275 152.332 115.751C152.732 120.046 154.289 124.152 156.837 127.633C160.152 125.26 162.901 122.183 164.887 118.623C166.367 116.007 167.689 113.306 168.848 110.533C168.848 113.434 169.224 116.939 170.749 119.444C171.85 121.422 173.462 123.067 175.416 124.21C177.37 125.352 179.595 125.95 181.859 125.94C182.64 125.951 183.421 125.875 184.185 125.712C184.253 125.695 184.316 125.665 184.37 125.622C184.425 125.579 184.47 125.526 184.502 125.465C188.324 126.277 192.127 126.207 192.711 125.395C193.651 124.098 194.988 120.048 195.434 115.098C196.147 106.701 190.859 99.4132 184.681 95.5813ZM171.571 118.84C169.65 115.702 169.709 110.582 169.937 107.642L170.066 107.305C170.157 110.33 170.928 113.295 172.321 115.981C173.715 118.667 175.695 121.005 178.116 122.821C179.453 123.745 180.935 124.438 182.502 124.871C180.076 125.029 175.086 124.574 171.571 118.84Z" fill="#263238"/>
  <path d="M171.739 103.285C171.739 103.285 170.927 109.285 178.551 115.167C186.176 121.048 193.404 118.731 193.404 118.731" stroke="white" stroke-width="0.5" stroke-linecap="round" stroke-linejoin="round"/>
  <path d="M172.858 101.245C172.858 101.245 180.888 112.939 191.978 109.889" stroke="white" stroke-width="0.5" stroke-linecap="round" stroke-linejoin="round"/>
  <path d="M129.053 203.045C126.02 203.994 123.086 205.23 120.289 206.738C116.329 208.986 102.09 217.125 97.8027 218.432C93.5152 219.739 91.1091 219.531 89.0297 221.7C86.9504 223.868 80.3459 230.74 79.5043 233.72C78.6626 236.701 79.9796 236.384 81.1876 235.572C82.3956 234.76 85.8216 230.453 88.8515 230.156C91.8814 229.859 93.0696 229.968 93.1093 231.591C93.1489 233.215 91.1289 238.612 92.733 238.146C94.3371 237.681 95.05 235.176 96.06 232.423C97.0699 229.67 96.9511 225.779 97.4759 224.779C98.0007 223.779 113.606 220.818 118.557 219.897C123.508 218.977 131.924 215.867 134.399 213.818C136.875 211.768 138.627 205.778 138.627 205.778" fill="#92E3A9"/>
  <path d="M129.053 203.045C126.02 203.994 123.086 205.23 120.289 206.738C116.329 208.986 102.09 217.125 97.8027 218.432C93.5152 219.739 91.1091 219.531 89.0297 221.7C86.9504 223.868 80.3459 230.74 79.5043 233.72C78.6626 236.701 79.9796 236.384 81.1876 235.572C82.3956 234.76 85.8216 230.453 88.8515 230.156C91.8814 229.859 93.0696 229.968 93.1093 231.591C93.1489 233.215 91.1289 238.612 92.733 238.146C94.3371 237.681 95.05 235.176 96.06 232.423C97.0699 229.67 96.9511 225.779 97.4759 224.779C98.0007 223.779 113.606 220.818 118.557 219.897C123.508 218.977 131.924 215.867 134.399 213.818C136.875 211.768 138.627 205.778 138.627 205.778" stroke="#263238" stroke-linecap="round" stroke-linejoin="round"/>
  <path d="M84.8015 231.621C84.8015 231.621 78.7416 235.661 79.504 238.434C80.2665 241.206 85.5639 242.226 88.5938 240.711C91.6237 239.196 93.9011 238.186 94.4061 234.394C94.9111 230.601 93.6437 229.096 90.8712 229.096C88.0987 229.096 84.8015 231.621 84.8015 231.621Z" fill="#263238" stroke="#263238" stroke-linecap="round" stroke-linejoin="round"/>
  <path d="M118.557 219.897C121.53 219.259 124.45 218.392 127.29 217.303C125.537 211.233 121.864 208.659 118.715 207.59C113.329 210.461 101.645 217.254 97.8027 218.432C93.5053 219.749 91.1091 219.531 89.0297 221.7C86.9504 223.868 80.3459 230.74 79.5043 233.72C78.6626 236.701 79.9796 236.384 81.1876 235.572C82.3956 234.76 85.8216 230.453 88.8515 230.156C91.8814 229.859 93.0696 229.967 93.1093 231.591C93.1489 233.215 91.1289 238.612 92.733 238.146C94.3371 237.681 95.05 235.176 96.06 232.423C97.0699 229.67 96.9511 225.779 97.4858 224.779C98.0205 223.779 113.606 220.858 118.557 219.897Z" fill="white" stroke="#263238" stroke-linecap="round" stroke-linejoin="round"/>
  <path d="M89.9902 226.116C89.9902 226.116 84.8215 228.789 83.7224 230.076C82.6233 231.364 81.742 236.186 83.2966 235.928C84.8512 235.671 86.3166 232.185 87.0097 231.463C88.0527 230.77 89.1944 230.239 90.3961 229.888" fill="white"/>
  <path d="M89.9902 226.116C89.9902 226.116 84.8215 228.789 83.7224 230.076C82.6233 231.364 81.742 236.186 83.2966 235.928C84.8512 235.671 86.3166 232.185 87.0097 231.463C88.0527 230.77 89.1944 230.239 90.3961 229.888" stroke="#263238" stroke-linecap="round" stroke-linejoin="round"/>
  <path d="M173.105 248.157C194.558 248.157 211.95 244.903 211.95 240.889C211.95 236.875 194.558 233.621 173.105 233.621C151.652 233.621 134.261 236.875 134.261 240.889C134.261 244.903 151.652 248.157 173.105 248.157Z" fill="#92E3A9"/>
  <path opacity="0.5" d="M173.105 248.157C194.558 248.157 211.95 244.903 211.95 240.889C211.95 236.875 194.558 233.621 173.105 233.621C151.652 233.621 134.261 236.875 134.261 240.889C134.261 244.903 151.652 248.157 173.105 248.157Z" fill="white"/>
  <path d="M207.029 241.8H139.152C139.002 241.801 138.853 241.773 138.714 241.716C138.574 241.66 138.448 241.576 138.341 241.47C138.234 241.364 138.149 241.238 138.091 241.099C138.033 240.961 138.004 240.812 138.004 240.661C138.004 240.511 138.033 240.362 138.091 240.223C138.149 240.084 138.234 239.958 138.341 239.853C138.448 239.747 138.574 239.663 138.714 239.606C138.853 239.55 139.002 239.521 139.152 239.523H207.029C207.179 239.521 207.327 239.55 207.466 239.607C207.605 239.663 207.731 239.747 207.837 239.853C207.943 239.959 208.027 240.085 208.083 240.224C208.14 240.363 208.169 240.511 208.167 240.661C208.169 240.811 208.14 240.96 208.083 241.099C208.027 241.237 207.943 241.363 207.837 241.469C207.731 241.575 207.605 241.659 207.466 241.716C207.327 241.773 207.179 241.801 207.029 241.8Z" fill="white" stroke="#263238" stroke-linecap="round" stroke-linejoin="round"/>
  <path d="M207.603 239.542H138.568C138.315 239.543 138.072 239.447 137.888 239.274C137.704 239.101 137.593 238.864 137.578 238.612L133.825 193.509C133.808 193.37 133.821 193.228 133.863 193.094C133.905 192.96 133.976 192.836 134.069 192.731C134.163 192.626 134.278 192.542 134.407 192.485C134.535 192.428 134.674 192.399 134.815 192.4H211.365C211.506 192.399 211.645 192.428 211.774 192.485C211.902 192.542 212.017 192.626 212.111 192.731C212.205 192.836 212.275 192.96 212.317 193.094C212.359 193.228 212.372 193.37 212.356 193.509L208.623 238.552C208.623 238.685 208.596 238.816 208.544 238.938C208.493 239.06 208.417 239.171 208.322 239.263C208.227 239.355 208.114 239.428 207.991 239.476C207.867 239.524 207.735 239.546 207.603 239.542Z" fill="white" stroke="#263238" stroke-linecap="round" stroke-linejoin="round"/>
  <path d="M208.623 238.552L210.841 211.946C197.968 211.194 182.601 215.353 165.065 226.541C152.143 234.78 143.044 235.978 137.271 235.225L137.538 238.552C137.553 238.804 137.664 239.041 137.848 239.214C138.033 239.387 138.276 239.483 138.528 239.483H207.563C207.694 239.492 207.826 239.476 207.95 239.434C208.074 239.392 208.189 239.326 208.288 239.239C208.386 239.153 208.467 239.047 208.524 238.929C208.582 238.811 208.615 238.683 208.623 238.552Z" fill="#263238"/>
  <path d="M179.601 216.709C179.601 219.402 176.68 221.581 173.086 221.581C169.491 221.581 166.56 219.402 166.56 216.709C166.56 214.016 169.501 211.818 173.086 211.818C176.67 211.818 179.601 214.026 179.601 216.709Z" fill="#263238"/>
  <path d="M81.5241 239.938C79.0793 242.642 76.3728 245.096 73.4443 247.266C68.6419 250.801 71.1669 255.851 71.4639 260.653C71.761 265.455 75.5038 282.615 84.0886 283.625C92.6734 284.635 90.4059 250.543 99.2382 247.513C108.071 244.483 128.785 248.781 141.41 249.028C154.034 249.276 150.757 241.958 150.757 241.958" stroke="#263238" stroke-linecap="round" stroke-linejoin="round"/>
  <path d="M307.343 130.326V156.071L346.267 178.548V152.645L307.343 130.326ZM340.078 167.26L313.522 151.922V141.248L340.078 156.467V167.26Z" fill="#263238" stroke="#263238" stroke-miterlimit="10"/>
  <path d="M340.078 141.248V149.159L346.267 152.645V130.336L307.343 152.645V178.538L326.988 167.2V159.526L313.522 167.299V156.467L326.988 148.753V141.594L333.296 145.139L340.078 141.248Z" fill="white" stroke="#263238" stroke-miterlimit="10"/>
  <path d="M340.078 156.467L336.118 154.249L327.107 159.457L333.593 163.388L340.078 159.636V156.467Z" fill="white" stroke="#263238" stroke-miterlimit="10"/>
  <path d="M292.985 48.307L247.245 79.159L255.6 91.5462L301.34 60.6942L292.985 48.307Z" fill="#263238"/>
  <path d="M265.473 42.6912L254.345 50.1991L264.243 64.869L275.371 57.3611L265.473 42.6912Z" fill="#263238"/>
  <path d="M286.037 73.9713L274.922 81.4683L284.805 96.1212L295.92 88.6242L286.037 73.9713Z" fill="#263238"/>
  <path d="M277.727 44.1314L271.644 48.2343L276.987 56.1559L283.07 52.053L277.727 44.1314Z" fill="#263238"/>
  <path d="M294.158 68.4887L288.075 72.5916L291.525 77.7057L297.608 73.6028L294.158 68.4887Z" fill="#263238"/>
  <path d="M256.106 58.6291L248.315 63.8837L253.692 71.8545L261.482 66.5999L256.106 58.6291Z" fill="#263238"/>
  <path d="M272.57 83.0356L264.78 88.2902L268.196 93.3551L275.986 88.1005L272.57 83.0356Z" fill="#263238"/>
  <path d="M265.31 92.3933L262.914 88.843L259.339 91.255L261.735 94.8054L265.31 92.3933Z" fill="#263238"/>
  <path d="M254.324 56.4073L252.392 53.5424L249.51 55.4858L251.443 58.3507L254.324 56.4073Z" fill="#263238"/>
  <path d="M172.531 1L149.153 8.94118L152.47 40.5178L172.531 51.6374V1Z" fill="white" stroke="#263238" stroke-linecap="round" stroke-linejoin="round"/>
  <path d="M172.61 1L195.978 8.94118L192.671 40.5178L172.61 51.6374V1Z" fill="#263238" stroke="#263238" stroke-linecap="round" stroke-linejoin="round"/>
  <path d="M182.373 39.4682H187.235L172.57 7.17865L157.916 39.4682H162.778L166.134 32.0617H179.007L182.373 39.4682ZM168.214 27.5168L172.58 17.8923L176.947 27.5168H168.214Z" fill="white" stroke="#263238" stroke-linecap="round" stroke-linejoin="round"/>
  <path d="M81.8508 54.5485L75.5533 43.6368H53.2844L81.8508 93.1257L110.417 43.6368H88.1483L81.8508 54.5485Z" fill="white" stroke="#263238" stroke-linecap="round" stroke-linejoin="round"/>
  <path d="M81.8511 54.5485L75.5536 43.6368H64.7607L81.8511 73.2529L98.9514 43.6368H88.1486L81.8511 54.5485Z" fill="#263238" stroke="#263238" stroke-linecap="round" stroke-linejoin="round"/>
  <path d="M49.7595 137.782C48.7693 137.396 47.7 137.05 46.591 136.733C46.8385 135.604 47.0266 134.505 47.1653 133.446C47.9376 127.287 46.6702 122.989 43.6006 121.336C40.5311 119.682 36.2437 120.979 31.5205 124.989C30.9264 125.494 30.3323 126.039 29.7481 126.613C29.1441 126.039 28.55 125.504 27.9559 125.009C23.1833 121.049 18.876 119.791 15.8362 121.484C12.7964 123.177 11.5686 127.495 12.4003 133.594C12.5488 134.654 12.7469 135.743 13.0043 136.862C11.9052 137.188 10.8556 137.545 9.86547 137.941C4.09277 140.208 0.953918 143.387 0.953918 146.852C0.953918 150.318 4.17198 153.477 9.95459 155.695C10.9448 156.081 12.0141 156.427 13.133 156.744C12.8855 157.873 12.6974 158.972 12.5587 160.032C11.7864 166.191 13.0538 170.488 16.1234 172.141C17.008 172.618 18 172.86 19.0048 172.844C21.6584 172.844 24.8171 171.369 28.2035 168.488C28.7976 167.983 29.3818 167.438 29.9759 166.864C30.57 167.438 31.174 167.973 31.7681 168.468C35.1545 171.28 38.3032 172.726 40.9371 172.726C41.9743 172.745 42.9984 172.492 43.9076 171.993C46.9573 170.3 48.1753 165.992 47.3336 159.844C47.195 158.784 46.987 157.695 46.7395 156.576C47.8386 156.249 48.8882 155.893 49.8783 155.507C55.6511 153.229 58.7899 150.051 58.7899 146.595C58.7899 143.139 55.552 140 49.7595 137.782ZM40.7093 123.504C41.2395 123.493 41.7641 123.615 42.2342 123.861C44.1353 124.851 44.9077 128.336 44.3136 133.089C44.1948 134.079 44.0264 135.069 43.8086 136.06C41.4864 135.555 39.1352 135.195 36.7685 134.98C35.2479 132.763 33.5737 130.656 31.7582 128.673C32.2929 128.148 32.8375 127.683 33.3821 127.198C36.1843 124.791 38.7983 123.504 40.7093 123.504ZM41.6995 150.239C42.2936 151.744 42.7887 153.209 43.2046 154.596C41.848 154.903 40.4123 155.17 38.8874 155.388C39.4419 154.457 39.9865 153.506 40.5113 152.536C40.9272 151.764 41.3233 151.001 41.6995 150.229V150.239ZM37.9864 151.17C37.1051 152.813 36.1942 154.348 35.2535 155.794C33.5504 155.932 31.7582 156.012 29.8967 156.021C28.0351 156.031 26.2627 156.021 24.5497 155.843C23.5596 154.388 22.6585 152.873 21.7673 151.259C20.8762 149.645 20.2029 148.288 19.5197 146.833C20.1798 145.374 20.9125 143.892 21.7178 142.387C22.5232 140.882 23.4341 139.34 24.4507 137.763C26.1637 137.624 27.9559 137.545 29.8075 137.535H30.164C31.8572 137.535 33.5306 137.594 35.1149 137.713C36.105 139.169 37.0061 140.684 37.8874 142.298C38.7686 143.912 39.4716 145.268 40.1449 146.724C39.531 148.189 38.7983 149.684 37.9864 151.16V151.17ZM29.9462 162.814C28.8306 161.599 27.7315 160.279 26.6489 158.853C27.6061 158.893 28.5764 158.913 29.56 158.913H29.8868C30.9859 158.913 32.075 158.913 33.1543 158.824C32.1524 160.203 31.0817 161.532 29.9462 162.804V162.814ZM19.2622 152.645C19.7969 153.635 20.3514 154.546 20.9158 155.467C19.3909 155.269 17.9453 155.011 16.5986 154.714C16.9947 153.328 17.4799 151.873 18.0443 150.358C18.4404 151.12 18.8364 151.883 19.2622 152.645ZM18.0047 143.308C17.4205 141.822 16.9254 140.337 16.4996 138.951C17.8562 138.644 19.2919 138.377 20.8168 138.159C20.2623 139.076 19.721 140.027 19.1929 141.01C18.7869 141.773 18.3909 142.506 18.0047 143.308ZM29.758 130.732C30.8802 131.947 31.9793 133.267 33.0553 134.693C31.976 134.693 30.8868 134.624 29.7877 134.634C28.6887 134.644 27.5896 134.634 26.5103 134.723C27.5797 133.297 28.6688 131.96 29.7679 130.732H29.758ZM40.442 140.892C39.9073 139.901 39.3528 138.99 38.7884 138.08C40.2869 138.278 41.7226 138.525 43.0957 138.822C42.6996 140.238 42.2144 141.694 41.65 143.169C41.2737 142.416 40.8678 141.654 40.4519 140.892H40.442ZM15.2421 133.247C14.5886 128.495 15.3312 125.039 17.2225 123.999C17.7066 123.742 18.2486 123.612 18.7968 123.623C20.7079 123.623 23.312 124.881 26.1142 127.217C26.6588 127.673 27.2133 128.158 27.7579 128.683C25.9567 130.676 24.3021 132.797 22.807 135.03C20.4427 135.271 18.095 135.655 15.7768 136.178C15.559 135.168 15.3807 134.188 15.252 133.247H15.2421ZM3.81552 146.892C3.81552 144.308 7.51876 141.535 13.7172 139.684C14.4425 142.125 15.3256 144.516 16.361 146.843C15.3502 149.177 14.4935 151.575 13.7965 154.021C7.57817 152.229 3.82542 149.486 3.81552 146.892ZM17.47 169.666C15.2025 168.438 14.549 163.834 15.9055 157.487C18.2245 157.991 20.5724 158.351 22.9358 158.566C24.4621 160.782 26.1395 162.889 27.9559 164.874C24.4903 168.22 21.2822 170.032 19.0444 170.032C18.4975 170.052 17.9549 169.93 17.47 169.676V169.666ZM42.4917 169.537C40.6004 170.577 37.2734 169.369 33.5801 166.309C33.0322 165.854 32.4876 165.369 31.9463 164.854C33.7422 162.852 35.3965 160.728 36.8972 158.497C39.2615 158.255 41.6092 157.872 43.9274 157.348C45.3434 163.685 44.7393 168.25 42.4917 169.547V169.537ZM45.9771 153.843C45.2474 151.403 44.3644 149.012 43.3333 146.684C44.337 144.347 45.1935 141.949 45.8978 139.505C46.888 139.793 47.8782 140.109 48.7396 140.496C53.2053 142.209 55.8887 144.516 55.8986 146.674C55.9085 149.229 52.1854 152.001 45.9771 153.853V153.843Z" fill="#263238"/>
  <path d="M35.2633 146.466C35.2633 147.536 34.9462 148.581 34.3521 149.47C33.7581 150.359 32.9137 151.052 31.9258 151.461C30.938 151.87 29.8509 151.977 28.8022 151.769C27.7535 151.56 26.7902 151.045 26.0341 150.289C25.278 149.533 24.7631 148.57 24.5545 147.521C24.3459 146.472 24.4529 145.385 24.8621 144.397C25.2713 143.409 25.9643 142.565 26.8533 141.971C27.7424 141.377 28.7877 141.06 29.8569 141.06C30.5673 141.059 31.2709 141.198 31.9274 141.469C32.5839 141.74 33.1804 142.138 33.6827 142.64C34.185 143.143 34.5832 143.739 34.8544 144.396C35.1256 145.052 35.2646 145.756 35.2633 146.466Z" fill="#263238"/>
  <path d="M261.072 244.474C269.592 244.474 276.499 241.22 276.499 237.206C276.499 233.192 269.592 229.938 261.072 229.938C252.552 229.938 245.645 233.192 245.645 237.206C245.645 241.22 252.552 244.474 261.072 244.474Z" fill="#92E3A9"/>
  <path opacity="0.5" d="M261.072 244.474C269.592 244.474 276.499 241.22 276.499 237.206C276.499 233.192 269.592 229.938 261.072 229.938C252.552 229.938 245.645 233.192 245.645 237.206C245.645 241.22 252.552 244.474 261.072 244.474Z" fill="white"/>
  <path d="M249.487 222.313L251.299 236.78C251.299 239.057 256.003 240.899 261.795 240.899C267.588 240.899 272.301 239.057 272.301 236.78L274.113 222.313H249.487Z" fill="white" stroke="#263238" stroke-linecap="round" stroke-linejoin="round"/>
  <path d="M261.795 227.136C268.593 227.136 274.103 224.977 274.103 222.313C274.103 219.65 268.593 217.491 261.795 217.491C254.998 217.491 249.487 219.65 249.487 222.313C249.487 224.977 254.998 227.136 261.795 227.136Z" fill="white" stroke="#263238" stroke-linecap="round" stroke-linejoin="round"/>
  <path d="M261.795 226.007C267.592 226.007 272.291 224.353 272.291 222.313C272.291 220.274 267.592 218.62 261.795 218.62C255.998 218.62 251.299 220.274 251.299 222.313C251.299 224.353 255.998 226.007 261.795 226.007Z" fill="#263238" stroke="#263238" stroke-linecap="round" stroke-linejoin="round"/>
  <path d="M260.824 223.848C260.824 223.848 254.349 220.878 253.061 218.363C251.774 215.848 252.774 210.441 252.774 210.441C255.352 211.374 257.544 213.141 259.003 215.461C260.28 218.068 260.905 220.946 260.824 223.848Z" fill="#92E3A9" stroke="#263238" stroke-linecap="round" stroke-linejoin="round"/>
  <path d="M260.785 223.7C260.785 223.7 261.033 215.778 262.953 212.699C264.874 209.619 271.528 207.966 271.528 207.966C271.528 207.966 270.885 213.848 268.459 217.561C266.033 221.274 260.785 223.7 260.785 223.7Z" fill="#92E3A9" stroke="#263238" stroke-linecap="round" stroke-linejoin="round"/>
  <path d="M261.676 224.215C261.676 224.215 257.963 219.858 257.963 214.867C257.963 209.877 261.924 206.045 261.924 206.045C263.618 208.451 264.754 211.204 265.251 214.105C265.776 218.323 261.676 224.215 261.676 224.215Z" fill="#92E3A9" stroke="#263238" stroke-linecap="round" stroke-linejoin="round"/>
</svg>
