<svg width="260" height="270" viewBox="0 0 260 270" fill="none" xmlns="http://www.w3.org/2000/svg">
<path d="M238.453 182.738C235.207 182.747 232.097 184.041 229.802 186.336C227.507 188.63 226.214 191.74 226.204 194.986C226.204 201.75 238.453 214.496 238.453 214.496C238.453 214.496 250.701 201.721 250.701 194.986C250.691 191.74 249.398 188.63 247.103 186.336C244.808 184.041 241.698 182.747 238.453 182.738ZM238.453 199.358C237.431 199.359 236.431 199.057 235.581 198.491C234.731 197.924 234.067 197.118 233.675 196.175C233.282 195.231 233.179 194.193 233.377 193.19C233.575 192.188 234.065 191.266 234.787 190.543C235.509 189.819 236.428 189.326 237.43 189.125C238.432 188.924 239.471 189.025 240.416 189.415C241.361 189.805 242.168 190.466 242.737 191.315C243.306 192.163 243.611 193.162 243.612 194.184C243.613 194.862 243.48 195.534 243.222 196.162C242.963 196.789 242.583 197.359 242.104 197.839C241.625 198.32 241.056 198.701 240.429 198.962C239.803 199.222 239.131 199.357 238.453 199.358Z" fill="#263238"/>
<path d="M238.453 214.887C238.404 214.888 238.356 214.879 238.311 214.86C238.266 214.841 238.226 214.814 238.193 214.778C237.687 214.251 225.843 201.815 225.843 194.986C225.843 191.642 227.172 188.434 229.536 186.069C231.901 183.705 235.108 182.376 238.453 182.376C241.797 182.376 245.004 183.705 247.369 186.069C249.734 188.434 251.062 191.642 251.062 194.986C251.062 201.815 239.219 214.251 238.713 214.778C238.679 214.813 238.639 214.841 238.594 214.859C238.549 214.878 238.501 214.887 238.453 214.887ZM238.453 183.092C235.301 183.095 232.28 184.349 230.052 186.577C227.823 188.806 226.57 191.827 226.566 194.979C226.566 200.976 236.682 212.097 238.453 213.991C240.216 212.097 250.34 200.984 250.34 194.979C250.336 191.828 249.082 188.807 246.853 186.58C244.625 184.353 241.604 183.101 238.453 183.099V183.092ZM238.453 199.712C237.359 199.713 236.29 199.39 235.38 198.784C234.47 198.178 233.761 197.315 233.341 196.306C232.921 195.296 232.81 194.185 233.022 193.112C233.234 192.04 233.759 191.054 234.532 190.28C235.304 189.506 236.288 188.978 237.36 188.763C238.432 188.549 239.544 188.657 240.554 189.074C241.565 189.491 242.429 190.198 243.038 191.107C243.647 192.015 243.972 193.083 243.974 194.177C243.975 194.903 243.834 195.623 243.558 196.295C243.281 196.967 242.875 197.577 242.362 198.092C241.849 198.607 241.24 199.016 240.569 199.295C239.899 199.574 239.179 199.718 238.453 199.719V199.712ZM238.453 189.386C237.502 189.384 236.573 189.665 235.782 190.191C234.991 190.718 234.374 191.468 234.009 192.345C233.644 193.223 233.547 194.189 233.731 195.121C233.915 196.054 234.371 196.911 235.043 197.584C235.714 198.257 236.569 198.716 237.501 198.903C238.433 199.089 239.399 198.996 240.278 198.633C241.156 198.271 241.908 197.656 242.437 196.867C242.966 196.077 243.249 195.149 243.251 194.198C243.245 192.929 242.737 191.713 241.838 190.817C240.939 189.921 239.722 189.416 238.453 189.414V189.386Z" fill="#263238"/>
<path d="M86.8337 18.4872C81.1901 15.5101 73.7038 14.9392 66.8245 16.9697C59.9452 19.0003 53.8174 23.6178 50.7391 29.2542C50.5581 29.578 50.4782 29.9486 50.5098 30.3182C50.5413 30.6878 50.6828 31.0395 50.9161 31.328C51.1494 31.6164 51.4637 31.8284 51.8185 31.9366C52.1733 32.0448 52.5524 32.0443 52.9069 31.9351C53.14 31.8676 53.3572 31.7542 53.5459 31.6016C53.7345 31.4489 53.8907 31.2601 54.0053 31.0463C56.6501 26.2481 61.8385 22.3171 67.8867 20.5395C73.935 18.7618 80.3013 19.2387 85.1139 21.7751C85.5499 22.0051 86.0594 22.0525 86.5303 21.9068C87.0012 21.7611 87.395 21.4343 87.625 20.9983C87.8549 20.5623 87.9023 20.0528 87.7566 19.5819C87.6109 19.111 87.2841 18.7172 86.8481 18.4872H86.8337Z" fill="#263238"/>
<path d="M83.4808 25.0846C78.8602 23.1901 73.7308 22.9325 68.9437 24.3547C64.1566 25.7769 59.9998 28.7933 57.1631 32.9033C56.9527 33.2215 56.8453 33.5968 56.8557 33.9781C56.866 34.3595 56.9935 34.7284 57.2209 35.0347C57.4483 35.341 57.7645 35.5699 58.1265 35.6902C58.4885 35.8105 58.8788 35.8164 59.2443 35.707C59.662 35.5971 60.0262 35.3406 60.2704 34.9844C62.6271 31.6081 66.0597 29.1313 70.0068 27.9592C73.9538 26.787 78.1819 26.9888 81.9994 28.5315C82.2234 28.6287 82.4643 28.6809 82.7084 28.6851C82.9525 28.6893 83.1951 28.6453 83.4222 28.5557C83.6494 28.4661 83.8566 28.3327 84.0322 28.163C84.2078 27.9933 84.3482 27.7907 84.4455 27.5668C84.5427 27.3428 84.5949 27.1019 84.5991 26.8578C84.6032 26.6137 84.5593 26.3711 84.4697 26.144C84.3801 25.9168 84.2467 25.7096 84.077 25.534C83.9073 25.3584 83.7047 25.218 83.4808 25.1207V25.0846Z" fill="#263238"/>
<path d="M80.0773 31.6315C77.1445 30.401 73.8723 30.2415 70.8338 31.1808C67.7952 32.1201 65.1839 34.0984 63.4571 36.7693C63.1843 37.1798 63.0851 37.6816 63.1812 38.1651C63.2774 38.6485 63.561 39.0742 63.9702 39.349C64.3789 39.6192 64.8766 39.7197 65.3581 39.6294C65.8396 39.539 66.267 39.2648 66.5499 38.8649C67.7971 36.902 69.6995 35.4446 71.9193 34.7514C74.1392 34.0582 76.5329 34.174 78.6754 35.0784C79.1325 35.2633 79.6443 35.2591 80.0983 35.0667C80.5523 34.8743 80.9112 34.5094 81.0962 34.0523C81.2811 33.5952 81.2769 33.0834 81.0845 32.6294C80.892 32.1754 80.5271 31.8165 80.07 31.6315H80.0773Z" fill="#263238"/>
<path d="M72.8511 37.4197C72.0031 37.6658 71.2471 38.1578 70.6787 38.8335C70.1103 39.5092 69.7549 40.3383 69.6575 41.2159C69.5601 42.0935 69.7251 42.9803 70.1315 43.7642C70.538 44.548 71.1677 45.1938 71.9411 45.6199C72.7145 46.046 73.5969 46.2332 74.4767 46.1579C75.3564 46.0827 76.1942 45.7483 76.884 45.197C77.5737 44.6458 78.0846 43.9024 78.3521 43.0609C78.6195 42.2194 78.6314 41.3174 78.3864 40.4691C78.2235 39.9052 77.951 39.379 77.5846 38.9205C77.2182 38.462 76.765 38.0802 76.2509 37.797C75.7368 37.5138 75.1719 37.3347 74.5886 37.2699C74.0052 37.2052 73.4148 37.2561 72.8511 37.4197Z" fill="#263238"/>
<path d="M238.149 58.8887H205.856C204.587 58.8887 203.37 59.3927 202.473 60.2898C201.576 61.1869 201.072 62.4037 201.072 63.6724V80.9356C201.072 82.2044 201.576 83.4211 202.473 84.3182C203.37 85.2153 204.587 85.7193 205.856 85.7193H206.86C205.856 87.945 203.926 91.3341 200.826 93.3502C200.826 93.3502 207.373 92.8949 214.195 85.7193H238.135C239.403 85.7193 240.62 85.2153 241.517 84.3182C242.414 83.4211 242.918 82.2044 242.918 80.9356V63.6724C242.918 62.4062 242.416 61.1916 241.522 60.2949C240.628 59.3982 239.415 58.8925 238.149 58.8887Z" fill="#263238"/>
<path d="M200.841 93.7113C200.764 93.7123 200.69 93.689 200.627 93.6449C200.565 93.6007 200.518 93.538 200.494 93.4656C200.469 93.3895 200.47 93.3075 200.496 93.2319C200.522 93.1563 200.572 93.0912 200.638 93.0465C203.399 91.2544 205.22 88.364 206.304 86.0805H205.856C204.494 86.0748 203.19 85.5304 202.229 84.5664C201.268 83.6023 200.727 82.2969 200.725 80.9355V63.6722C200.727 62.3114 201.268 61.0068 202.229 60.0439C203.191 59.081 204.495 58.5382 205.856 58.5344H238.135C238.81 58.5344 239.479 58.6675 240.104 58.9261C240.728 59.1846 241.295 59.5636 241.773 60.0414C242.251 60.5191 242.63 61.0863 242.888 61.7105C243.147 62.3347 243.28 63.0038 243.28 63.6794V80.9355C243.28 82.3 242.738 83.6087 241.773 84.5736C240.808 85.5384 239.499 86.0805 238.135 86.0805H214.368C207.561 93.1693 201.137 93.6896 200.862 93.7113H200.841ZM205.856 59.257C204.683 59.257 203.558 59.723 202.728 60.5523C201.899 61.3817 201.433 62.5065 201.433 63.6794V80.9355C201.433 82.1084 201.899 83.2332 202.728 84.0626C203.558 84.892 204.683 85.3579 205.856 85.3579H206.86C206.921 85.3563 206.982 85.3707 207.036 85.3995C207.09 85.4283 207.135 85.4706 207.168 85.5223C207.201 85.574 207.219 85.6332 207.222 85.6943C207.226 85.7554 207.213 85.8163 207.185 85.8709C206.071 88.4819 204.398 90.8176 202.286 92.7141C204.577 92.1432 209.208 90.4451 213.934 85.4879C213.967 85.4514 214.007 85.4222 214.052 85.4022C214.097 85.3823 214.145 85.3721 214.195 85.3723H238.135C239.308 85.3723 240.433 84.9064 241.262 84.077C242.091 83.2477 242.557 82.1228 242.557 80.9499V63.6722C242.557 62.4993 242.091 61.3745 241.262 60.5451C240.433 59.7157 239.308 59.2498 238.135 59.2498L205.856 59.257Z" fill="#263238"/>
<path d="M216.456 71.686C216.456 71.1987 216.312 70.7223 216.041 70.3171C215.77 69.9118 215.385 69.596 214.935 69.4095C214.485 69.223 213.989 69.1742 213.511 69.2693C213.033 69.3644 212.594 69.599 212.25 69.9436C211.905 70.2883 211.671 70.7273 211.575 71.2053C211.48 71.6833 211.529 72.1787 211.716 72.629C211.902 73.0793 212.218 73.4641 212.623 73.7349C213.028 74.0056 213.505 74.1502 213.992 74.1502C214.315 74.1502 214.634 74.0866 214.932 73.9631C215.23 73.8397 215.501 73.6587 215.729 73.4305C215.958 73.2024 216.139 72.9316 216.262 72.6335C216.386 72.3354 216.449 72.0159 216.449 71.6933L216.456 71.686Z" fill="white"/>
<path d="M222.367 74.1502C223.728 74.1502 224.831 73.0469 224.831 71.686C224.831 70.3251 223.728 69.2219 222.367 69.2219C221.006 69.2219 219.903 70.3251 219.903 71.686C219.903 73.0469 221.006 74.1502 222.367 74.1502Z" fill="white"/>
<path d="M233.199 71.686C233.199 71.1987 233.055 70.7223 232.784 70.3171C232.513 69.9118 232.128 69.596 231.678 69.4095C231.228 69.223 230.733 69.1742 230.255 69.2693C229.777 69.3644 229.337 69.599 228.993 69.9436C228.648 70.2883 228.414 70.7273 228.318 71.2053C228.223 71.6833 228.272 72.1787 228.459 72.629C228.645 73.0793 228.961 73.4641 229.366 73.7349C229.771 74.0056 230.248 74.1502 230.735 74.1502C231.389 74.1502 232.016 73.8905 232.478 73.4284C232.94 72.9663 233.199 72.3396 233.199 71.686Z" fill="white"/>
<path d="M15.9882 165.514C23.0062 164.824 28.1356 158.575 27.445 151.557C26.7544 144.539 20.5054 139.409 13.4874 140.1C6.46937 140.791 1.33999 147.04 2.03058 154.058C2.72118 161.076 8.97023 166.205 15.9882 165.514Z" fill="#263238"/>
<path d="M14.753 165.929C12.1561 165.929 9.61758 165.159 7.45838 163.717C5.29917 162.274 3.61628 160.223 2.62251 157.824C1.62873 155.425 1.36872 152.785 1.87534 150.238C2.38196 147.691 3.63247 145.351 5.46872 143.515C7.30497 141.679 9.64449 140.428 12.1914 139.922C14.7384 139.415 17.3784 139.675 19.7776 140.669C22.1767 141.663 24.2273 143.346 25.6701 145.505C27.1128 147.664 27.8829 150.203 27.8829 152.799C27.8838 154.524 27.5448 156.232 26.8853 157.825C26.2258 159.419 25.2587 160.866 24.0393 162.086C22.8199 163.305 21.3721 164.272 19.7787 164.932C18.1853 165.591 16.4775 165.93 14.753 165.929ZM14.753 140.392C12.299 140.392 9.90021 141.12 7.85984 142.483C5.81947 143.847 4.22919 145.784 3.29012 148.051C2.35104 150.319 2.10533 152.813 2.58407 155.22C3.06281 157.627 4.24449 159.838 5.97968 161.573C7.71487 163.308 9.92564 164.49 12.3324 164.968C14.7392 165.447 17.2339 165.201 19.501 164.262C21.7682 163.323 23.7059 161.733 25.0692 159.693C26.4326 157.652 27.1603 155.253 27.1603 152.799C27.1603 149.509 25.8531 146.353 23.5262 144.026C21.1994 141.699 18.0436 140.392 14.753 140.392Z" fill="#263238"/>
<path d="M8.99365 144.844L22.7667 152.799L8.99365 160.755V144.844Z" fill="white"/>
<path d="M8.99369 161.146C8.9297 161.148 8.8666 161.13 8.81303 161.095C8.75741 161.065 8.71117 161.02 8.67932 160.965C8.64747 160.91 8.63124 160.848 8.63238 160.784V144.887C8.63124 144.823 8.64747 144.761 8.67932 144.706C8.71117 144.651 8.75741 144.606 8.81303 144.576C8.86796 144.544 8.93027 144.528 8.99369 144.528C9.05711 144.528 9.11942 144.544 9.17434 144.576L22.9474 152.525C23.0295 152.569 23.0907 152.644 23.1177 152.734C23.1448 152.823 23.1355 152.919 23.0919 153.002C23.0593 153.063 23.009 153.114 22.9474 153.146L9.17434 161.095C9.1204 161.129 9.05757 161.147 8.99369 161.146ZM9.355 145.501V160.156L22.0441 152.828L9.355 145.501Z" fill="#263238"/>
<path d="M45.1895 249.543C42.949 249.587 40.742 248.995 38.8232 247.838C29.6894 242.36 24.3059 234.224 22.0297 223.934C21.4656 221.827 21.4013 219.617 21.8418 217.481C22.2022 215.719 23.0579 214.096 24.3085 212.803C25.559 211.51 27.1525 210.601 28.9018 210.182C29.5472 209.957 30.2552 209.991 30.8757 210.278C31.4963 210.566 31.9805 211.083 32.2258 211.722C33.0772 214.09 33.8008 216.502 34.3936 218.948C34.4953 219.484 34.4065 220.039 34.1427 220.516C33.8788 220.994 33.4564 221.364 32.9484 221.564C31.88 222.106 30.7823 222.588 29.6605 223.009C29.5179 223.04 29.3828 223.098 29.263 223.182C29.1431 223.265 29.041 223.371 28.9624 223.494C28.8838 223.617 28.8303 223.754 28.805 223.898C28.7797 224.042 28.7831 224.189 28.815 224.331C28.8375 224.446 28.879 224.556 28.9379 224.656C31.0077 230.462 34.3994 235.707 38.8449 239.976C39.5097 240.619 39.9867 240.511 40.5937 239.846C41.3601 238.971 42.2095 238.172 43.13 237.461C43.5944 237.063 44.1844 236.84 44.7963 236.834C45.4082 236.827 46.0029 237.037 46.4757 237.425C48.2151 238.712 49.8798 240.097 51.4618 241.573C53.29 243.365 53.1672 245.085 51.3317 246.87C49.7048 248.518 47.5047 249.476 45.1895 249.543Z" fill="#263238"/>
<path d="M45.1894 249.904C42.9006 249.934 40.6487 249.326 38.6859 248.148C29.7977 242.823 24.0891 234.701 21.7189 224.013C21.1368 221.852 21.0725 219.584 21.531 217.394C21.9016 215.572 22.7836 213.894 24.0736 212.555C25.3635 211.217 27.0082 210.273 28.815 209.835C29.5486 209.582 30.352 209.625 31.0549 209.954C31.7577 210.283 32.3047 210.873 32.5798 211.599C33.4388 213.986 34.1626 216.421 34.7476 218.89C34.874 219.505 34.7786 220.145 34.4784 220.696C34.1782 221.248 33.6925 221.675 33.1073 221.903C32.0523 222.438 30.9395 222.936 29.7977 223.384C29.1618 223.63 29.0318 223.919 29.2702 224.57C31.3305 230.317 34.6914 235.511 39.0906 239.744C39.2394 239.917 39.4439 240.032 39.6686 240.07C39.8421 240.07 40.0516 239.925 40.319 239.629C41.1006 238.738 41.967 237.924 42.906 237.201C43.4324 236.751 44.1003 236.501 44.7926 236.495C45.485 236.488 46.1575 236.725 46.6925 237.165L47.3428 237.678C48.8611 238.81 50.309 240.033 51.6785 241.341C52.0996 241.689 52.4451 242.119 52.6936 242.605C52.9422 243.09 53.0886 243.622 53.1237 244.167C53.0806 244.741 52.9212 245.3 52.6554 245.811C52.3896 246.321 52.0228 246.772 51.5773 247.137C49.8783 248.831 47.5953 249.811 45.1966 249.876L45.1894 249.904ZM29.7905 210.421C29.5219 210.421 29.2545 210.457 28.9956 210.529C27.3096 210.934 25.7739 211.812 24.5684 213.058C23.3628 214.305 22.5374 215.869 22.1886 217.567C21.7639 219.649 21.8282 221.801 22.3765 223.854C24.7033 234.339 30.3252 242.31 38.9966 247.527C40.8549 248.653 42.9953 249.227 45.1677 249.182C47.3838 249.124 49.4927 248.216 51.057 246.645C51.431 246.342 51.7406 245.968 51.9676 245.543C52.1947 245.119 52.3347 244.653 52.3794 244.174C52.3467 243.727 52.2235 243.292 52.0173 242.895C51.8111 242.497 51.5262 242.146 51.1799 241.862C49.8188 240.574 48.3831 239.368 46.8803 238.249L46.23 237.736C45.8201 237.402 45.3055 237.223 44.7769 237.231C44.2482 237.239 43.7392 237.433 43.3395 237.779C42.4359 238.476 41.6033 239.26 40.8537 240.12C40.7184 240.307 40.5456 240.463 40.3465 240.578C40.1475 240.694 39.9264 240.767 39.6975 240.792C39.4847 240.792 39.2745 240.744 39.0821 240.653C38.8898 240.562 38.7199 240.429 38.5847 240.265C34.1063 235.952 30.686 230.662 28.591 224.808C28.4991 224.642 28.441 224.459 28.42 224.27C28.399 224.081 28.4155 223.889 28.4685 223.707C28.5215 223.524 28.6101 223.354 28.7291 223.206C28.848 223.057 28.9951 222.934 29.1618 222.843C29.2786 222.782 29.4024 222.736 29.5304 222.705C30.6504 222.264 31.7488 221.78 32.7821 221.26C33.2197 221.102 33.5869 220.793 33.8185 220.39C34.05 219.986 34.1309 219.514 34.0467 219.056C33.4549 216.61 32.7312 214.198 31.8789 211.83C31.7209 211.407 31.4348 211.043 31.0604 210.791C30.686 210.538 30.242 210.409 29.7905 210.421Z" fill="#263238"/>
<path d="M58.0086 228.399C57.8568 229.548 57.7701 230.712 57.5389 231.854C57.5163 232.075 57.4504 232.289 57.3448 232.485C57.2392 232.681 57.096 232.854 56.9235 232.994C56.751 233.134 56.5526 233.239 56.3395 233.303C56.1264 233.366 55.9029 233.387 55.6817 233.364C55.5768 233.349 55.473 233.327 55.371 233.299C54.4244 233.075 53.9258 232.186 54.1426 231.015C54.8136 227.423 54.0921 223.709 52.1246 220.629C50.157 217.549 47.091 215.333 43.5491 214.431C43.2233 214.366 42.9041 214.272 42.5952 214.15C42.2167 214.005 41.9041 213.726 41.7165 213.367C41.5288 213.007 41.479 212.592 41.5763 212.198C41.5979 211.994 41.6596 211.797 41.7578 211.616C41.8559 211.436 41.9887 211.277 42.1485 211.148C42.3082 211.019 42.4918 210.923 42.6887 210.865C42.8857 210.807 43.0921 210.789 43.2961 210.811H43.4696C45.0595 211.157 46.6076 211.673 48.0871 212.35C51.0593 213.851 53.5588 216.144 55.3096 218.977C57.0605 221.809 57.9945 225.07 58.0086 228.399Z" fill="#263238"/>
<path d="M55.8697 233.74C55.6654 233.737 55.4619 233.713 55.2627 233.667C54.1282 233.393 53.5212 232.309 53.7669 230.965C54.4224 227.462 53.7198 223.84 51.8018 220.837C49.8839 217.833 46.8944 215.672 43.4407 214.793L43.1878 214.735C42.9207 214.686 42.6609 214.603 42.4146 214.489C41.9633 214.31 41.592 213.973 41.3689 213.542C41.1459 213.11 41.0861 212.613 41.2006 212.141C41.2475 211.85 41.353 211.572 41.5108 211.324C41.6685 211.075 41.8753 210.861 42.1183 210.695C42.3303 210.559 42.5686 210.47 42.8177 210.432C43.0668 210.395 43.321 210.411 43.5636 210.479C45.1776 210.832 46.7497 211.355 48.2533 212.039C51.2841 213.559 53.8342 215.889 55.6201 218.771C57.4061 221.652 58.358 224.973 58.3699 228.363V228.414C58.3266 228.768 58.2832 229.137 58.2471 229.469C58.1604 230.264 58.0664 231.088 57.9002 231.897C57.8586 232.196 57.7572 232.484 57.602 232.744C57.4469 233.003 57.2411 233.229 56.997 233.407C56.6641 233.631 56.2706 233.747 55.8697 233.74ZM43.0722 211.172C42.8728 211.169 42.677 211.225 42.5085 211.331C42.3498 211.442 42.2149 211.584 42.1119 211.747C42.0088 211.911 41.9398 212.094 41.9088 212.285C41.8281 212.601 41.8677 212.936 42.02 213.224C42.1722 213.513 42.4261 213.734 42.7325 213.846C42.9291 213.931 43.1354 213.992 43.3468 214.027L43.6214 214.092C47.2472 215.023 50.3837 217.298 52.3961 220.454C54.4085 223.611 55.1464 227.415 54.4606 231.095C54.2799 232.063 54.6485 232.779 55.4072 232.959C55.5952 233.016 55.7928 233.033 55.9879 233.011C56.1829 232.989 56.3714 232.927 56.5417 232.829C56.7097 232.704 56.8511 232.548 56.9578 232.368C57.0645 232.188 57.1343 231.988 57.1632 231.781C57.3221 231.008 57.4089 230.199 57.5028 229.411C57.5389 229.072 57.5751 228.689 57.6256 228.378C57.6074 225.122 56.6867 221.934 54.9658 219.17C53.2449 216.406 50.7913 214.172 47.8776 212.719C46.4234 212.054 44.902 211.548 43.3396 211.208C43.2507 211.198 43.161 211.198 43.0722 211.208V211.172Z" fill="#263238"/>
<path d="M52.0181 229.295C51.9603 229.729 51.9025 230.567 51.7363 231.377C51.7087 231.604 51.6363 231.823 51.5235 232.022C51.4106 232.221 51.2595 232.396 51.0788 232.536C50.8981 232.677 50.6914 232.78 50.4707 232.84C50.2499 232.9 50.0194 232.916 49.7925 232.887H49.7275C49.4893 232.841 49.2627 232.749 49.0607 232.614C48.8587 232.48 48.6854 232.307 48.5509 232.106C48.4164 231.904 48.3234 231.677 48.2773 231.439C48.2311 231.201 48.2328 230.956 48.2822 230.719C48.4264 229.668 48.4482 228.603 48.3473 227.547C47.668 223.551 45.3051 221 41.3957 219.887C40.1239 219.526 39.4735 218.724 39.7048 217.719C39.936 216.715 40.9043 216.166 42.2267 216.447C47.7981 217.676 52.0326 223.045 52.0181 229.295Z" fill="#263238"/>
<path d="M50.0382 233.263H49.6697C49.3887 233.215 49.1198 233.113 48.8784 232.962C48.6369 232.811 48.4277 232.613 48.2626 232.381C48.0975 232.149 47.9798 231.886 47.9162 231.609C47.8526 231.331 47.8444 231.043 47.892 230.762C47.892 230.538 47.9282 230.307 47.9499 230.076C48.0511 229.279 48.0511 228.473 47.9499 227.677C47.2995 223.861 45.0594 221.376 41.2584 220.299C39.8132 219.887 39.04 218.89 39.3146 217.705C39.5892 216.52 40.7598 215.826 42.2557 216.166C48.1233 217.445 52.3723 222.987 52.3723 229.361V229.404C52.3776 229.543 52.3605 229.682 52.3217 229.816C52.2783 230.271 52.2061 230.893 52.0832 231.507C52.0007 231.992 51.7511 232.433 51.3776 232.754C51.0042 233.074 50.5304 233.254 50.0382 233.263ZM41.4825 216.736C41.152 216.705 40.8215 216.797 40.5547 216.994C40.2879 217.191 40.1035 217.481 40.0372 217.806C39.7771 218.94 40.9549 219.403 41.4825 219.547C45.5652 220.704 47.986 223.377 48.7086 227.496C48.817 228.355 48.817 229.224 48.7086 230.083C48.7086 230.307 48.6652 230.531 48.6508 230.755C48.6042 230.946 48.5969 231.144 48.6293 231.337C48.6617 231.531 48.7332 231.716 48.8393 231.881C48.9454 232.045 49.084 232.187 49.2467 232.297C49.4093 232.406 49.5926 232.482 49.7853 232.518C49.9656 232.546 50.1496 232.538 50.3268 232.495C50.504 232.451 50.6709 232.373 50.8179 232.265C50.9649 232.157 51.0891 232.021 51.1835 231.865C51.2778 231.709 51.3405 231.535 51.3678 231.355C51.3678 231.355 51.3678 231.319 51.3678 231.297C51.4835 230.719 51.5485 230.112 51.5991 229.671C51.5899 229.535 51.6046 229.398 51.6424 229.267C51.6424 223.247 47.6391 218.008 42.1111 216.802C41.9044 216.758 41.6937 216.736 41.4825 216.736Z" fill="#263238"/>
<path d="M42.4652 229.895C42.5881 228.907 42.3419 227.909 41.7738 227.091C41.2056 226.274 40.3556 225.695 39.3869 225.466C38.1584 225.09 37.5875 224.223 37.8766 223.182C38.1656 222.142 39.1195 221.737 40.3841 222.062C42.2013 222.55 43.7735 223.693 44.7971 225.272C45.8207 226.851 46.2231 228.753 45.9265 230.611C45.7025 231.882 45.0377 232.468 43.9466 232.352C42.8554 232.237 42.3568 231.492 42.4363 230.184C42.4435 230.09 42.458 229.989 42.4652 229.895Z" fill="#263238"/>
<path d="M44.1995 232.728H43.9105C42.6459 232.598 41.9811 231.673 42.0823 230.184V229.881C42.197 228.975 41.9716 228.059 41.4496 227.31C40.9276 226.561 40.1462 226.033 39.2568 225.827C37.8116 225.386 37.1612 224.338 37.5009 223.095C37.8405 221.853 38.9967 221.354 40.4491 221.722C42.3517 222.238 43.9972 223.437 45.0706 225.091C46.1439 226.744 46.5696 228.735 46.2662 230.683C46.0494 232.005 45.3123 232.728 44.1995 232.728ZM39.5892 222.315C39.2804 222.285 38.9711 222.367 38.7178 222.546C38.4644 222.725 38.2839 222.989 38.209 223.291C37.9706 224.143 38.433 224.815 39.4808 225.14C40.5254 225.394 41.441 226.022 42.0547 226.904C42.6684 227.787 42.9378 228.864 42.8121 229.931V230.22C42.7037 231.868 43.6792 231.969 43.9972 232.005C44.5608 232.063 45.3412 232.005 45.5869 230.56C45.8727 228.79 45.4903 226.977 44.5141 225.474C43.5379 223.97 42.0376 222.883 40.3046 222.423C40.0715 222.358 39.8312 222.322 39.5892 222.315Z" fill="#263238"/>
<path d="M32.3341 221.939C32.2598 221.939 32.1874 221.916 32.1266 221.874C32.0658 221.831 32.0197 221.771 31.9944 221.701L31.5753 220.523C31.5362 220.436 31.5333 220.337 31.5671 220.247C31.601 220.158 31.6689 220.085 31.756 220.046C31.799 220.026 31.8457 220.014 31.8933 220.012C31.9408 220.01 31.9883 220.018 32.0328 220.035C32.0774 220.052 32.118 220.077 32.1524 220.11C32.1868 220.143 32.2141 220.183 32.2329 220.227V220.284L32.652 221.455C32.6822 221.546 32.6757 221.645 32.6339 221.732C32.5921 221.818 32.5182 221.885 32.428 221.918C32.3979 221.929 32.3663 221.937 32.3341 221.939Z" fill="white"/>
<path d="M31.4598 219.468C31.385 219.47 31.3116 219.448 31.2504 219.405C31.1892 219.362 31.1435 219.301 31.1201 219.23L28.2297 211.078C28.214 211.031 28.2079 210.981 28.2118 210.931C28.2157 210.881 28.2295 210.833 28.2524 210.788C28.2753 210.744 28.3068 210.705 28.3451 210.673C28.3834 210.64 28.4277 210.616 28.4754 210.602C28.5223 210.585 28.5721 210.578 28.6219 210.58C28.6716 210.583 28.7203 210.596 28.7649 210.619C28.8095 210.641 28.849 210.672 28.8813 210.71C28.9135 210.748 28.9376 210.792 28.9523 210.84L31.8428 218.991C31.8753 219.081 31.8707 219.181 31.8301 219.267C31.7894 219.354 31.716 219.421 31.626 219.454C31.5721 219.469 31.5156 219.474 31.4598 219.468Z" fill="white"/>
<path d="M51.8809 246.465C51.7935 246.466 51.7088 246.435 51.6424 246.378L44.6258 240.25C44.5898 240.219 44.5602 240.181 44.5389 240.138C44.5176 240.095 44.5049 240.049 44.5015 240.001C44.4982 239.954 44.5042 239.906 44.5193 239.861C44.5345 239.815 44.5584 239.773 44.5897 239.737C44.621 239.701 44.6591 239.672 44.7019 239.65C44.7446 239.629 44.7911 239.616 44.8388 239.613C44.8864 239.61 44.9342 239.616 44.9795 239.631C45.0248 239.646 45.0667 239.67 45.1028 239.701L52.1194 245.836C52.1829 245.902 52.2185 245.99 52.2185 246.082C52.2185 246.173 52.1829 246.262 52.1194 246.328C52.0914 246.366 52.0557 246.398 52.0146 246.421C51.9736 246.445 51.928 246.46 51.8809 246.465Z" fill="white"/>
<path d="M44.1055 239.672C44.0182 239.673 43.9334 239.642 43.8671 239.586L42.7109 238.581C42.677 238.548 42.6501 238.508 42.6318 238.464C42.6134 238.42 42.604 238.372 42.604 238.325C42.604 238.277 42.6134 238.23 42.6318 238.186C42.6501 238.142 42.677 238.102 42.7109 238.068C42.7713 237.996 42.8577 237.951 42.9512 237.943C43.0447 237.935 43.1376 237.964 43.2095 238.025L44.3657 239.029C44.4323 239.098 44.4696 239.19 44.4696 239.286C44.4696 239.381 44.4323 239.473 44.3657 239.542C44.3343 239.581 44.2948 239.613 44.2499 239.636C44.205 239.658 44.1557 239.671 44.1055 239.672Z" fill="white"/>
<path d="M97.962 264.978H98.9954H99.4072C99.5031 264.978 99.595 264.94 99.6627 264.873C99.7305 264.805 99.7686 264.713 99.7686 264.617C99.7686 264.521 99.7305 264.429 99.6627 264.362C99.595 264.294 99.5031 264.256 99.4072 264.256H97.962C97.8662 264.256 97.7743 264.294 97.7065 264.362C97.6388 264.429 97.6007 264.521 97.6007 264.617C97.6007 264.713 97.6388 264.805 97.7065 264.873C97.7743 264.94 97.8662 264.978 97.962 264.978Z" fill="#263238"/>
<path d="M101.32 264.873C101.387 264.94 101.479 264.978 101.575 264.978H101.604H103.049C103.096 264.977 103.141 264.965 103.184 264.946C103.226 264.926 103.264 264.899 103.295 264.865C103.327 264.83 103.351 264.79 103.368 264.746C103.384 264.703 103.391 264.656 103.389 264.61C103.383 264.515 103.342 264.426 103.274 264.36C103.206 264.295 103.115 264.257 103.02 264.256H101.575C101.479 264.256 101.387 264.294 101.32 264.362C101.252 264.429 101.214 264.521 101.214 264.617C101.214 264.713 101.252 264.805 101.32 264.873Z" fill="#263238"/>
<path d="M94.3489 264.942L95.7942 264.978V264.935C95.8806 264.934 95.9639 264.902 96.0288 264.845C96.0938 264.788 96.1362 264.71 96.1483 264.624C96.1492 264.577 96.1408 264.53 96.1235 264.485C96.1063 264.441 96.0804 264.401 96.0476 264.367C96.0147 264.332 95.9754 264.305 95.9319 264.286C95.8884 264.267 95.8416 264.257 95.7942 264.256L94.3489 264.22C94.2531 264.22 94.1612 264.258 94.0935 264.325C94.0257 264.393 93.9876 264.485 93.9876 264.581C93.9876 264.677 94.0257 264.769 94.0935 264.836C94.1612 264.904 94.2531 264.942 94.3489 264.942Z" fill="#263238"/>
<path d="M104.937 264.808C105.004 264.874 105.094 264.912 105.188 264.913H105.203L106.648 264.856C106.695 264.854 106.742 264.842 106.785 264.823C106.828 264.803 106.867 264.774 106.899 264.74C106.931 264.705 106.956 264.664 106.973 264.619C106.989 264.575 106.997 264.527 106.995 264.48C106.987 264.385 106.945 264.297 106.875 264.233C106.805 264.168 106.714 264.133 106.619 264.133L105.174 264.191C105.079 264.194 104.99 264.235 104.925 264.304C104.86 264.373 104.825 264.465 104.827 264.559C104.831 264.653 104.87 264.742 104.937 264.808Z" fill="#263238"/>
<path d="M90.7359 264.783L92.1811 264.863L92.1883 264.819C92.2795 264.824 92.369 264.793 92.4387 264.734C92.5084 264.675 92.5532 264.592 92.5641 264.501C92.566 264.455 92.5588 264.408 92.5427 264.365C92.5267 264.321 92.5022 264.281 92.4707 264.247C92.4391 264.213 92.4012 264.185 92.3589 264.165C92.3167 264.146 92.271 264.135 92.2245 264.133L90.7792 264.061C90.6834 264.055 90.5892 264.087 90.5174 264.151C90.4456 264.215 90.402 264.304 90.3962 264.4C90.3905 264.496 90.423 264.59 90.4867 264.662C90.5504 264.734 90.6401 264.778 90.7359 264.783Z" fill="#263238"/>
<path d="M108.546 264.641C108.614 264.709 108.705 264.747 108.801 264.747H108.859C109.343 264.725 109.827 264.697 110.304 264.66C110.351 264.657 110.396 264.644 110.438 264.623C110.479 264.601 110.516 264.572 110.547 264.537C110.577 264.501 110.6 264.46 110.614 264.415C110.628 264.371 110.633 264.324 110.629 264.277C110.622 264.183 110.578 264.095 110.506 264.033C110.434 263.971 110.341 263.939 110.246 263.945L108.801 264.025C108.705 264.025 108.614 264.063 108.546 264.13C108.478 264.198 108.44 264.29 108.44 264.386C108.44 264.482 108.478 264.574 108.546 264.641Z" fill="#263238"/>
<path d="M87.1228 264.538L88.568 264.646L88.5825 264.61C88.6708 264.616 88.7584 264.59 88.828 264.535C88.8975 264.48 88.944 264.401 88.9582 264.314C88.9622 264.266 88.9567 264.218 88.9421 264.173C88.9275 264.128 88.9041 264.086 88.8732 264.049C88.8423 264.013 88.8046 263.983 88.7621 263.962C88.7196 263.94 88.6733 263.927 88.6258 263.923L87.1806 263.815C87.0848 263.807 86.9898 263.838 86.9167 263.9C86.8435 263.963 86.7981 264.052 86.7904 264.147C86.7827 264.243 86.8134 264.338 86.8758 264.411C86.9381 264.484 87.027 264.53 87.1228 264.538Z" fill="#263238"/>
<path d="M112.159 264.41C112.227 264.478 112.318 264.516 112.414 264.516H112.487L113.932 264.407C113.978 264.403 114.024 264.389 114.065 264.367C114.106 264.345 114.143 264.315 114.172 264.279C114.202 264.242 114.224 264.201 114.237 264.156C114.25 264.111 114.255 264.064 114.25 264.017C114.246 263.97 114.233 263.923 114.211 263.881C114.19 263.839 114.16 263.801 114.124 263.77C114.088 263.739 114.046 263.716 114 263.701C113.955 263.686 113.907 263.681 113.86 263.685L112.414 263.793C112.318 263.793 112.227 263.831 112.159 263.899C112.091 263.967 112.053 264.059 112.053 264.155C112.053 264.25 112.091 264.342 112.159 264.41Z" fill="#263238"/>
<path d="M83.5531 264.183C84.03 264.241 84.5142 264.292 84.9983 264.335H85.0417C85.0891 264.337 85.1365 264.33 85.1811 264.313C85.2257 264.297 85.2666 264.272 85.3015 264.24C85.3364 264.208 85.3646 264.169 85.3845 264.126C85.4044 264.082 85.4156 264.036 85.4174 263.988C85.4204 263.941 85.4138 263.894 85.3983 263.85C85.3827 263.805 85.3584 263.764 85.3267 263.729C85.2951 263.694 85.2568 263.666 85.214 263.646C85.1713 263.626 85.125 263.614 85.0778 263.613L83.6326 263.461C83.5851 263.456 83.5371 263.46 83.4913 263.473C83.4454 263.487 83.4027 263.509 83.3655 263.539C83.3282 263.568 83.2972 263.605 83.2742 263.647C83.2513 263.689 83.2367 263.735 83.2315 263.782C83.2263 263.83 83.2305 263.878 83.2438 263.924C83.2571 263.97 83.2794 264.012 83.3092 264.05C83.3391 264.087 83.376 264.118 83.4178 264.141C83.4597 264.164 83.5056 264.178 83.5531 264.183Z" fill="#263238"/>
<path d="M115.76 264.129C115.828 264.189 115.915 264.222 116.006 264.22H116.049L117.494 264.082C117.541 264.078 117.586 264.064 117.627 264.042C117.669 264.02 117.705 263.99 117.735 263.954C117.764 263.917 117.786 263.875 117.8 263.831C117.813 263.786 117.817 263.739 117.812 263.692C117.808 263.645 117.794 263.598 117.771 263.556C117.749 263.514 117.718 263.477 117.681 263.447C117.644 263.416 117.602 263.394 117.556 263.38C117.51 263.366 117.462 263.362 117.415 263.367L115.97 263.497C115.922 263.502 115.876 263.515 115.834 263.538C115.792 263.56 115.754 263.591 115.724 263.628C115.694 263.665 115.671 263.707 115.658 263.753C115.644 263.799 115.639 263.847 115.644 263.894C115.652 263.985 115.693 264.068 115.76 264.129Z" fill="#263238"/>
<path d="M81.3636 263.923H81.4069L81.3925 263.887C81.4825 263.897 81.5727 263.87 81.6432 263.813C81.7137 263.756 81.7586 263.674 81.7682 263.584C81.7778 263.494 81.7512 263.403 81.6943 263.333C81.6374 263.263 81.5548 263.218 81.4647 263.208L80.0195 263.013C79.9249 263 79.8291 263.025 79.7523 263.081C79.6755 263.138 79.6236 263.222 79.6076 263.316C79.5988 263.411 79.6257 263.506 79.6832 263.582C79.7407 263.659 79.8245 263.711 79.9183 263.728L81.3636 263.923Z" fill="#263238"/>
<path d="M119.349 263.772C119.415 263.833 119.501 263.866 119.59 263.866H119.64L121.086 263.707C121.133 263.701 121.179 263.686 121.221 263.662C121.262 263.639 121.299 263.608 121.328 263.57C121.358 263.532 121.38 263.489 121.393 263.443C121.406 263.397 121.409 263.349 121.404 263.302C121.398 263.254 121.383 263.209 121.36 263.167C121.336 263.125 121.305 263.089 121.267 263.059C121.23 263.03 121.187 263.008 121.141 262.995C121.095 262.982 121.046 262.978 120.999 262.984L119.554 263.143C119.459 263.154 119.372 263.202 119.313 263.276C119.253 263.351 119.226 263.446 119.236 263.54C119.243 263.629 119.284 263.712 119.349 263.772Z" fill="#263238"/>
<path d="M214.852 8.27661L169.862 13.3855L181.229 21.8545L214.852 8.27661Z" fill="white"/>
<path d="M181.229 22.2159C181.152 22.2166 181.076 22.1939 181.012 22.1509L169.653 13.6746C169.594 13.6319 169.549 13.5726 169.525 13.5043C169.5 13.436 169.497 13.3619 169.515 13.2916C169.533 13.2212 169.573 13.1581 169.629 13.1115C169.685 13.0648 169.754 13.0368 169.826 13.0315L214.809 7.97318C214.896 7.96371 214.984 7.98636 215.056 8.0369C215.128 8.08743 215.178 8.1624 215.199 8.24777C215.223 8.33118 215.215 8.42049 215.176 8.49807C215.137 8.57565 215.071 8.63588 214.99 8.66689L181.366 22.252C181.319 22.2474 181.273 22.2352 181.229 22.2159ZM170.816 13.6457L181.287 21.4499L212.265 8.93425L170.816 13.6457Z" fill="#263238"/>
<path d="M181.229 21.8545L181.142 31.039L214.852 8.27661L181.229 21.8545Z" fill="white"/>
<path d="M181.142 31.4003C181.084 31.4006 181.027 31.3857 180.976 31.3569C180.918 31.3261 180.87 31.2803 180.835 31.2245C180.801 31.1686 180.782 31.1045 180.781 31.039L180.868 21.8545C180.868 21.7832 180.889 21.7136 180.929 21.6544C180.969 21.5953 181.026 21.5492 181.092 21.5221L214.715 7.95143C214.798 7.91607 214.891 7.91357 214.975 7.94445C215.06 7.97532 215.13 8.03725 215.17 8.11764C215.212 8.19637 215.224 8.28794 215.203 8.37469C215.181 8.46143 215.128 8.53718 215.055 8.58733L181.345 31.3425C181.285 31.3831 181.214 31.4034 181.142 31.4003ZM181.59 22.1002L181.511 30.3525L211.81 9.89527L181.59 22.1002Z" fill="#263238"/>
<path d="M181.142 31.039L186.417 23.596L214.852 8.27661L181.142 31.039Z" fill="white"/>
<path d="M181.142 31.4004C181.095 31.4009 181.048 31.3916 181.004 31.3729C180.961 31.3543 180.922 31.3267 180.889 31.292C180.83 31.2314 180.794 31.1519 180.787 31.0673C180.781 30.9828 180.804 30.8986 180.853 30.8295L186.121 23.3866C186.153 23.3415 186.195 23.3044 186.244 23.2782L214.679 7.95153C214.761 7.90814 214.857 7.89743 214.946 7.92156C215.036 7.94568 215.114 8.00284 215.163 8.0816C215.209 8.16241 215.223 8.25735 215.203 8.34811C215.183 8.43886 215.13 8.51897 215.055 8.57297L181.345 31.3281C181.286 31.373 181.216 31.3983 181.142 31.4004ZM186.663 23.849L182.587 29.63L208.652 12.0271L186.663 23.849Z" fill="#263238"/>
<path d="M186.417 23.596L201.231 34.6665L214.852 8.27661L186.417 23.596Z" fill="white"/>
<path d="M201.231 35.028C201.152 35.0296 201.076 35.0041 201.014 34.9557L186.2 23.8853C186.15 23.8498 186.111 23.8016 186.085 23.7458C186.06 23.6899 186.05 23.6283 186.056 23.5673C186.06 23.5071 186.079 23.449 186.112 23.3984C186.145 23.3478 186.19 23.3064 186.244 23.2783L214.679 7.9516C214.747 7.91642 214.825 7.9031 214.901 7.91344C214.977 7.92378 215.048 7.95728 215.105 8.00941C215.16 8.06404 215.196 8.13501 215.208 8.21181C215.22 8.28861 215.207 8.36714 215.17 8.43575L201.556 34.8329C201.532 34.8804 201.497 34.9219 201.454 34.9544C201.412 34.9869 201.363 35.0096 201.31 35.0207L201.231 35.028ZM187.068 23.6468L201.094 34.1247L213.978 9.15114L187.068 23.6468Z" fill="#263238"/>
<path d="M124.316 114.66C123.998 114.66 123.689 114.555 123.437 114.362C123.185 114.168 123.004 113.897 122.921 113.59C122.755 112.969 106.127 51.2433 103.194 31.6966C101.279 18.9208 105.08 11.3622 108.606 7.27221C110.61 4.94737 113.101 3.09125 115.902 1.83509C118.703 0.578922 121.745 -0.046617 124.814 0.00270575C137.655 0.00270575 144.224 11.6513 145.9 17.8079C147.345 23.1697 149.817 32.4987 149.846 32.5926C149.925 32.9578 149.86 33.3397 149.665 33.6581C149.469 33.9764 149.157 34.2065 148.795 34.3C148.433 34.3936 148.049 34.3432 147.724 34.1596C147.398 33.976 147.156 33.6733 147.049 33.3152C147.049 33.2213 144.571 23.9212 143.111 18.5522C141.651 13.1832 135.906 2.89316 124.814 2.89316C122.162 2.85009 119.532 3.38869 117.11 4.47108C114.688 5.55347 112.533 7.15337 110.796 9.15823C107.667 12.7713 104.292 19.5783 106.055 31.2702C108.946 50.658 125.566 112.203 125.718 112.839C125.817 113.209 125.766 113.603 125.574 113.935C125.383 114.267 125.068 114.51 124.699 114.609C124.574 114.644 124.445 114.661 124.316 114.66Z" fill="#263238"/>
<path d="M42.8698 183.944C36.8288 183.944 31.915 181.856 29.4364 175.8C24.4576 163.668 39.9505 155.719 57.8857 146.506C63.6667 143.543 69.6355 140.472 75.3297 137.112C96.9286 124.242 95.3678 115.664 95.3461 115.578C95.2664 115.213 95.3313 114.831 95.5272 114.512C95.723 114.194 96.0346 113.964 96.3965 113.87C96.7584 113.777 97.1425 113.827 97.4681 114.011C97.7936 114.194 98.0354 114.497 98.1426 114.855C98.4244 115.925 100.209 125.694 76.811 139.605C71.0301 143.044 65.018 146.108 59.2081 149.121C42.5374 157.677 28.1357 165.07 32.1101 174.745C36.5325 185.534 51.6568 180.411 66.2898 175.468C75.3513 172.404 83.9071 169.506 89.2472 170.959C94.002 172.26 94.9776 175.555 95.4978 177.325C95.57 177.607 95.6642 177.882 95.7797 178.149C96.0287 178.433 96.1565 178.804 96.1357 179.181C96.1149 179.558 95.9472 179.912 95.6684 180.167C95.3897 180.423 95.0221 180.558 94.6444 180.546C94.2668 180.533 93.9091 180.373 93.6479 180.1C93.1885 179.531 92.8736 178.859 92.7302 178.142C92.2678 176.574 91.6897 174.623 88.4885 173.748C84.001 172.52 75.85 175.287 67.2147 178.207C58.9624 180.945 50.1032 183.944 42.8698 183.944Z" fill="#263238"/>
<path d="M194.727 155.524C194.475 155.528 194.226 155.465 194.005 155.343C193.838 155.251 193.692 155.127 193.574 154.979C193.456 154.83 193.368 154.66 193.315 154.477C193.263 154.295 193.247 154.104 193.269 153.915C193.29 153.726 193.349 153.544 193.441 153.378C200.985 139.807 214.585 135.796 226.595 132.263C230.784 131.114 234.907 129.734 238.944 128.129C243.547 126.186 246.17 121.416 244.92 117.29C242.788 110.238 230.099 104.673 200.884 110.209C187.79 112.687 177.76 111.654 171.062 107.036C165.281 103.084 164.276 97.9459 164.233 97.7291C164.171 97.3563 164.258 96.9741 164.474 96.6644C164.691 96.3547 165.02 96.1421 165.391 96.0722C165.763 96.0023 166.147 96.0806 166.461 96.2903C166.775 96.5001 166.995 96.8246 167.073 97.1944C167.21 97.8736 170.585 113.005 200.313 107.369C239.45 99.9547 246.452 112.427 247.659 116.452C249.357 122.074 246.083 128.245 240.042 130.796C235.907 132.451 231.68 133.868 227.382 135.038C215.343 138.586 202.907 142.264 195.941 154.787C195.819 155.004 195.644 155.186 195.431 155.315C195.218 155.444 194.976 155.516 194.727 155.524Z" fill="#263238"/>
<path d="M149.918 41.7555C149.286 41.7544 148.671 41.546 148.169 41.1623C147.666 40.7785 147.303 40.2406 147.136 39.631L144.18 28.7918C144.08 28.4255 144.053 28.043 144.101 27.6663C144.149 27.2896 144.27 26.926 144.458 26.5962C144.646 26.2664 144.898 25.9769 145.198 25.7442C145.498 25.5115 145.841 25.3402 146.207 25.2401C146.574 25.14 146.956 25.113 147.333 25.1607C147.709 25.2084 148.073 25.3298 148.403 25.518C148.733 25.7062 149.022 25.9576 149.255 26.2577C149.488 26.5578 149.659 26.9008 149.759 27.2671L152.714 38.1063C152.814 38.4726 152.841 38.8549 152.792 39.2315C152.744 39.608 152.623 39.9714 152.434 40.3009C152.245 40.6303 151.994 40.9194 151.694 41.1517C151.393 41.3839 151.05 41.5547 150.684 41.6543C150.435 41.7239 150.177 41.7579 149.918 41.7555Z" fill="#263238"/>
<path d="M190.832 153.587C190.832 153.587 194.279 147.676 197.726 150.14C201.173 152.604 193.788 157.525 196.743 158.508C199.699 159.491 205.603 157.063 207.583 163.436C209.563 169.81 203.637 172.787 197.733 171.313C191.83 169.839 186.894 163.928 190.832 153.587Z" fill="white"/>
<path d="M200.682 172.043C199.656 172.042 198.634 171.913 197.639 171.66C196.096 171.309 194.646 170.631 193.388 169.671C192.13 168.711 191.093 167.492 190.348 166.096C188.578 162.714 188.636 158.342 190.493 153.457V153.407C190.579 153.255 192.61 149.794 195.219 149.252C195.683 149.152 196.163 149.153 196.627 149.255C197.091 149.357 197.527 149.558 197.907 149.844C200.075 151.383 198.535 153.753 197.43 155.488C196.837 156.42 196.223 157.381 196.382 157.836C196.382 157.887 196.454 158.046 196.823 158.169C197.769 158.394 198.742 158.484 199.713 158.436C202.676 158.436 206.361 158.436 207.857 163.328C208.869 166.616 207.807 168.654 206.73 169.788C205.923 170.548 204.972 171.138 203.933 171.526C202.895 171.913 201.789 172.089 200.682 172.043ZM191.158 153.746C189.38 158.422 189.322 162.577 190.984 165.763C191.685 167.067 192.657 168.205 193.835 169.101C195.013 169.997 196.37 170.631 197.813 170.959C201.187 171.804 204.504 171.147 206.267 169.29C207.611 167.844 207.944 165.879 207.228 163.509C205.884 159.173 202.64 159.173 199.771 159.13C198.714 159.181 197.655 159.079 196.628 158.826C196.428 158.776 196.242 158.679 196.087 158.543C195.931 158.407 195.809 158.237 195.732 158.046C195.45 157.258 196.1 156.246 196.852 155.069C198.167 153.002 199.02 151.456 197.517 150.408C197.22 150.178 196.877 150.016 196.511 149.934C196.145 149.851 195.766 149.85 195.399 149.931C193.231 150.429 191.338 153.443 191.158 153.746Z" fill="#263238"/>
<path d="M205.068 170.98C204.996 170.98 204.926 170.96 204.865 170.923C204.786 170.87 204.731 170.788 204.712 170.694C204.693 170.601 204.712 170.504 204.764 170.424C208.905 164.108 202.221 159.404 201.932 159.209C201.853 159.154 201.799 159.07 201.782 158.975C201.764 158.881 201.784 158.783 201.838 158.703C201.864 158.664 201.898 158.63 201.937 158.604C201.976 158.578 202.021 158.56 202.067 158.551C202.114 158.542 202.161 158.543 202.208 158.553C202.254 158.563 202.298 158.582 202.336 158.609C202.409 158.66 209.895 163.913 205.357 170.814C205.326 170.864 205.284 170.905 205.233 170.934C205.183 170.962 205.126 170.979 205.068 170.98Z" fill="#263238"/>
<path d="M193.427 233.097L121.432 244.333C116.634 245.056 111.742 241.067 110.514 235.358L73.1257 61.8875C70.9578 53.7075 78.3213 49.3501 83.1194 48.5986L151.58 38.9589C156.378 38.2363 161.263 42.2251 162.499 47.9338L204.692 221.123C205.921 226.839 202.965 231.673 193.427 233.097Z" fill="white"/>
<path d="M120.276 244.788C115.717 244.788 111.33 240.843 110.16 235.438L72.7715 61.9597C72.3636 60.6054 72.2557 59.1785 72.4554 57.7783C72.6551 56.3781 73.1575 55.0383 73.9277 53.852C76.1823 50.4123 80.2578 48.6781 83.0688 48.2445L151.529 38.5976C156.501 37.8244 161.581 41.9794 162.845 47.8615L205.039 221.043C205.364 222.262 205.428 223.536 205.226 224.782C205.024 226.027 204.561 227.215 203.868 228.269C202.018 230.943 198.528 232.677 193.477 233.436L121.49 244.673C121.089 244.744 120.683 244.783 120.276 244.788ZM152.736 39.2263C152.366 39.2264 151.996 39.2554 151.63 39.313L83.1699 48.9599C80.5179 49.3718 76.6664 51.0049 74.5347 54.2494C73.8183 55.3534 73.3521 56.6007 73.1686 57.9039C72.9851 59.2071 73.0888 60.5346 73.4725 61.7935L110.868 235.279C112.06 240.8 116.772 244.673 121.375 243.95L193.369 232.685C198.217 231.962 201.549 230.322 203.268 227.821C203.908 226.847 204.334 225.748 204.519 224.598C204.703 223.447 204.641 222.27 204.338 221.144L162.144 48.0205C161.053 42.9405 156.971 39.2263 152.736 39.2263Z" fill="#263238"/>
<path d="M198.347 231.131L126.368 242.368C121.57 243.09 116.685 239.094 115.456 233.386L78.0466 59.9147C76.8182 54.206 79.7086 48.9743 84.5068 48.2228L156.501 36.9861C161.299 36.2635 166.191 40.2596 167.42 45.9682L204.808 219.439C206.043 225.148 203.146 230.379 198.347 231.131Z" fill="#263238"/>
<path d="M125.205 242.801C120.638 242.801 116.251 238.856 115.088 233.451L77.6926 59.9797C77.3424 58.5091 77.293 56.9829 77.5476 55.4927C77.8022 54.0026 78.3554 52.5793 79.174 51.3084C79.772 50.4088 80.5491 49.6423 81.4567 49.0567C82.3644 48.4711 83.383 48.079 84.4491 47.9048L156.443 36.6682C161.422 35.8878 166.502 40.0428 167.774 45.9249L205.133 219.352C205.495 220.828 205.553 222.362 205.305 223.862C205.056 225.361 204.506 226.794 203.688 228.074C203.088 228.973 202.309 229.74 201.4 230.325C200.492 230.911 199.472 231.303 198.405 231.478L126.411 242.715C126.012 242.776 125.608 242.805 125.205 242.801ZM157.664 37.2463C157.294 37.2464 156.925 37.2754 156.559 37.333L84.5647 48.5696C83.5946 48.7282 82.6677 49.0854 81.8421 49.6188C81.0164 50.1523 80.3098 50.8505 79.7665 51.6697C79.0003 52.867 78.4842 54.2071 78.2495 55.6092C78.0148 57.0112 78.0663 58.4463 78.4008 59.828L115.789 233.299C116.981 238.812 121.693 242.693 126.303 241.97L198.297 230.726C199.266 230.568 200.192 230.21 201.016 229.677C201.841 229.143 202.546 228.445 203.088 227.626C203.857 226.43 204.376 225.09 204.612 223.688C204.848 222.286 204.797 220.85 204.461 219.468L167.066 46.0405C165.974 40.9822 161.892 37.2607 157.672 37.2607L157.664 37.2463Z" fill="#263238"/>
<path d="M198.702 210.522L117.429 223.204L83.4012 65.3198L164.666 52.6307L198.702 210.522Z" fill="#92E3A9"/>
<path d="M117.429 223.565C117.348 223.565 117.269 223.537 117.206 223.486C117.142 223.435 117.099 223.363 117.082 223.283L83.0472 65.3921C83.0277 65.2951 83.0458 65.1944 83.0978 65.1103C83.1264 65.0697 83.1629 65.0354 83.2051 65.0093C83.2473 64.9833 83.2944 64.966 83.3435 64.9585L164.609 52.2766C164.7 52.2634 164.793 52.285 164.87 52.3372C164.946 52.3894 165 52.4684 165.021 52.5585L199.056 210.443C199.066 210.491 199.067 210.541 199.057 210.59C199.047 210.638 199.027 210.684 198.998 210.724C198.941 210.804 198.856 210.858 198.759 210.876L117.487 223.565H117.429ZM83.8348 65.6161L117.697 222.799L198.254 210.226L164.385 53.0426L83.8348 65.6161Z" fill="#263238"/>
<path d="M129.598 101.573C130.429 105.555 129.916 109.002 128.471 109.269C127.026 109.537 125.183 106.523 124.359 102.542C123.535 98.5601 124.041 95.1133 125.486 94.8459C126.932 94.5785 128.774 97.5557 129.598 101.573Z" fill="#263238"/>
<path d="M147.447 98.2349C148.27 102.217 147.765 105.663 146.312 105.938C144.86 106.213 143.024 103.192 142.2 99.2104C141.377 95.2288 141.882 91.782 143.328 91.5146C144.773 91.2472 146.601 94.2533 147.447 98.2349Z" fill="#263238"/>
<path d="M138.32 133.549C129.779 133.549 121.36 128.31 116.121 119.444C115.974 119.118 115.953 118.749 116.062 118.408C116.171 118.067 116.403 117.779 116.712 117.599C117.021 117.419 117.386 117.36 117.736 117.434C118.086 117.508 118.397 117.709 118.607 117.998C123.998 127.118 132.994 131.981 141.557 130.391C149.889 128.852 156.248 121.359 157.744 111.314C157.772 111.124 157.837 110.942 157.935 110.777C158.034 110.613 158.164 110.469 158.318 110.355C158.472 110.24 158.647 110.157 158.833 110.111C159.019 110.064 159.212 110.054 159.402 110.082C159.592 110.11 159.775 110.175 159.939 110.274C160.104 110.372 160.247 110.502 160.362 110.656C160.476 110.81 160.559 110.985 160.606 111.171C160.653 111.357 160.662 111.551 160.634 111.741C158.951 123.028 151.681 131.461 142.114 133.238C140.861 133.457 139.591 133.561 138.32 133.549Z" fill="#263238"/>
<path d="M103.348 123.759L99.6469 131.328L100.296 131.645L103.998 124.076L103.348 123.759Z" fill="white"/>
<path d="M134.39 60.3301L106.682 116.988L107.332 117.305L135.039 60.6476L134.39 60.3301Z" fill="white"/>
<path d="M125.735 60.8431L114.139 83.0513L114.78 83.3857L126.375 61.1775L125.735 60.8431Z" fill="white"/>
<path d="M180.139 186.579L167.276 212.019L167.921 212.345L180.783 186.905L180.139 186.579Z" fill="white"/>
<path d="M186.101 174.823L182.104 182.729L182.749 183.055L186.746 175.149L186.101 174.823Z" fill="white"/>
<path d="M133.702 50.0003L111.251 53.4761C110.773 53.5025 110.303 53.3485 109.934 53.0447C109.564 52.7409 109.323 52.3094 109.256 51.8358C109.185 51.6284 109.154 51.409 109.167 51.19C109.18 50.9709 109.237 50.7566 109.333 50.5593C109.429 50.362 109.562 50.1855 109.727 50.04C109.891 49.8945 110.082 49.7828 110.29 49.7113L110.434 49.6679L132.871 46.25C133.349 46.2236 133.819 46.3776 134.188 46.6814C134.558 46.9852 134.8 47.4167 134.866 47.8903C134.997 48.3129 134.955 48.7702 134.749 49.1618C134.543 49.5534 134.19 49.8472 133.767 49.9787L133.702 50.0003Z" fill="white"/>
<path d="M111.041 53.8809C110.627 53.8337 110.232 53.6827 109.892 53.4419C109.552 53.201 109.278 52.8781 109.097 52.5031C108.915 52.1282 108.831 51.7134 108.853 51.2973C108.874 50.8813 109.001 50.4774 109.22 50.1233C109.352 49.9292 109.523 49.7647 109.722 49.6403C109.921 49.5159 110.144 49.4343 110.376 49.4007L132.871 45.8671C133.439 45.8313 133.999 46.0085 134.443 46.364C134.887 46.7195 135.182 47.2277 135.27 47.7892C135.344 48.098 135.355 48.4186 135.302 48.7316C135.248 49.0445 135.132 49.3435 134.96 49.6102C134.826 49.8045 134.654 49.9691 134.454 50.0934C134.254 50.2178 134.03 50.2993 133.796 50.3328L111.337 53.8375C111.24 53.8595 111.141 53.874 111.041 53.8809ZM133.11 46.5752H132.951L110.47 50.0871C110.195 50.1386 109.95 50.2971 109.791 50.5279C109.673 50.7139 109.594 50.9219 109.56 51.1394C109.525 51.3568 109.535 51.5791 109.589 51.7925C109.64 52.1736 109.83 52.5226 110.121 52.773C110.413 53.0235 110.787 53.158 111.171 53.151L133.63 49.6463C133.767 49.6218 133.897 49.5694 134.013 49.4923C134.128 49.4152 134.227 49.3152 134.302 49.1983C134.541 48.8006 134.612 48.3245 134.499 47.8746C134.387 47.4247 134.1 47.0379 133.702 46.7992C133.513 46.6886 133.305 46.6127 133.088 46.5752H133.11Z" fill="#263238"/>
<path d="M162.499 223.5C162.087 221.6 160.461 220.256 158.886 220.509C157.31 220.762 156.328 222.503 156.718 224.404C157.108 226.304 158.756 227.648 160.331 227.395C161.906 227.142 162.903 225.401 162.499 223.5Z" fill="white"/>
<path d="M159.955 227.785C158.322 227.785 156.754 226.391 156.342 224.483C156.217 223.958 156.2 223.413 156.292 222.882C156.384 222.35 156.583 221.843 156.877 221.39C157.093 221.062 157.376 220.782 157.707 220.569C158.038 220.357 158.41 220.215 158.799 220.155C160.584 219.873 162.412 221.34 162.845 223.428C162.971 223.951 162.99 224.495 162.899 225.025C162.808 225.555 162.611 226.062 162.318 226.514C162.098 226.841 161.814 227.121 161.482 227.335C161.15 227.548 160.778 227.692 160.389 227.756C160.245 227.777 160.1 227.787 159.955 227.785ZM159.232 220.841H158.886C158.594 220.89 158.315 220.997 158.067 221.158C157.818 221.318 157.605 221.527 157.44 221.773C157.204 222.146 157.045 222.563 156.973 222.999C156.901 223.435 156.918 223.88 157.021 224.31C157.39 226.022 158.842 227.243 160.251 227.019C160.544 226.973 160.824 226.867 161.072 226.706C161.321 226.546 161.534 226.335 161.697 226.087C161.936 225.717 162.097 225.301 162.169 224.866C162.241 224.431 162.223 223.986 162.116 223.558C162.001 222.85 161.656 222.199 161.133 221.708C160.61 221.216 159.939 220.912 159.225 220.841H159.232Z" fill="#263238"/>
<path d="M152.83 166.009L119.648 171.725C117.48 172.101 116.035 173.893 116.381 175.714L120.659 196.315L120.775 196.85L123.008 207.617L129.258 198.816L158.611 193.757C160.779 193.382 162.224 191.589 161.87 189.776L157.44 168.632C157.086 166.811 155.012 165.633 152.83 166.009Z" fill="white"/>
<path d="M122.82 208.506L116.027 175.786C115.938 175.344 115.94 174.888 116.033 174.447C116.126 174.006 116.309 173.589 116.569 173.221C116.923 172.727 117.372 172.309 117.889 171.992C118.407 171.674 118.982 171.463 119.583 171.371L152.772 165.655C155.135 165.25 157.404 166.551 157.831 168.545L162.217 189.689C162.306 190.129 162.304 190.583 162.212 191.023C162.12 191.463 161.94 191.879 161.682 192.247C161.327 192.742 160.877 193.16 160.358 193.479C159.84 193.798 159.263 194.01 158.662 194.104L129.461 199.126L122.82 208.506ZM153.647 166.305C153.404 166.305 153.162 166.327 152.924 166.37L119.734 172.086C119.229 172.161 118.743 172.337 118.306 172.603C117.87 172.868 117.49 173.218 117.191 173.633C116.987 173.92 116.844 174.245 116.771 174.589C116.698 174.934 116.696 175.289 116.764 175.634L123.224 206.707L129.063 198.462L158.56 193.403C159.563 193.238 160.459 192.682 161.053 191.857C161.258 191.569 161.401 191.242 161.476 190.897C161.55 190.552 161.554 190.195 161.487 189.848L157.093 168.712C156.819 167.288 155.337 166.305 153.647 166.305Z" fill="#263238"/>
<path d="M150.453 178.387C150.474 178.102 150.453 177.814 150.388 177.535V177.376C149.824 174.644 146.717 172.896 143.458 173.452C140.892 173.893 138.999 175.62 138.58 177.694C137.863 176.759 136.897 176.044 135.793 175.633C134.689 175.221 133.491 175.129 132.337 175.367C129.078 175.931 126.895 178.597 127.459 181.321C127.459 181.321 127.372 183.655 132.908 187.044C137.453 189.834 141.29 192.103 141.362 192.009C141.456 192.059 144.216 188.685 147.461 184.544C148.727 183.061 149.687 181.342 150.286 179.486C150.364 179.236 150.418 178.98 150.445 178.72C150.44 178.609 150.443 178.498 150.453 178.387Z" fill="#92E3A9"/>
<path d="M141.304 192.363C141.256 192.36 141.209 192.345 141.167 192.319C140.495 192.095 138.631 191.019 132.684 187.369C127.423 184.139 127.083 181.769 127.062 181.379C126.941 180.747 126.948 180.097 127.084 179.467C127.219 178.838 127.479 178.242 127.849 177.715C128.368 177 129.024 176.394 129.778 175.933C130.532 175.471 131.369 175.164 132.243 175.027C133.346 174.817 134.483 174.881 135.556 175.214C136.628 175.546 137.602 176.137 138.392 176.935C138.818 175.923 139.499 175.038 140.37 174.368C141.24 173.698 142.269 173.265 143.357 173.112C146.804 172.52 150.099 174.406 150.706 177.318V177.434C150.779 177.758 150.806 178.091 150.785 178.424C150.79 178.538 150.778 178.652 150.749 178.763C150.719 179.045 150.663 179.323 150.583 179.594C149.965 181.49 148.983 183.248 147.692 184.768C143.479 190.159 142.107 191.799 141.565 192.233C141.541 192.267 141.508 192.295 141.47 192.312C141.432 192.33 141.39 192.338 141.348 192.334L141.304 192.363ZM133.529 175.598C133.144 175.596 132.759 175.629 132.38 175.699C131.601 175.814 130.852 176.084 130.18 176.494C129.507 176.903 128.923 177.444 128.464 178.084C128.146 178.535 127.923 179.045 127.808 179.583C127.692 180.122 127.687 180.679 127.792 181.22V181.307C127.792 181.307 127.857 183.511 133.067 186.712C137.243 189.27 140.481 191.17 141.261 191.568C141.854 190.932 144.188 188.07 147.143 184.291C148.377 182.841 149.317 181.165 149.911 179.356C149.98 179.12 150.029 178.878 150.055 178.633V178.337C150.074 178.095 150.057 177.851 150.005 177.614C149.997 177.576 149.997 177.537 150.005 177.499C149.47 174.904 146.551 173.271 143.501 173.806C141.16 174.203 139.317 175.793 138.92 177.759C138.91 177.805 138.892 177.849 138.865 177.888C138.838 177.927 138.804 177.96 138.765 177.986C138.725 178.011 138.68 178.029 138.634 178.037C138.587 178.045 138.54 178.044 138.493 178.033C138.448 178.026 138.405 178.009 138.367 177.984C138.328 177.959 138.295 177.927 138.269 177.889C137.72 177.155 137.003 176.565 136.178 176.166C135.353 175.767 134.445 175.573 133.529 175.598Z" fill="#263238"/>
<path d="M99.2627 179.731C99.2627 179.731 97.1815 173.228 93.2867 174.868C89.3918 176.509 95.5195 182.933 92.4267 183.251C89.3339 183.569 84.095 179.883 80.7782 185.7C77.4614 191.517 82.592 195.687 88.6764 195.535C94.7608 195.383 100.86 190.679 99.2627 179.731Z" fill="white"/>
<path d="M88.3512 195.896C84.7381 195.896 81.5658 194.451 80.164 192.074C79.3619 190.737 78.7621 188.511 80.4675 185.527C82.9822 181.104 86.588 181.914 89.4785 182.521C90.4199 182.779 91.3927 182.906 92.3689 182.897C92.7519 182.853 92.8386 182.709 92.8675 182.665C93.1277 182.253 92.7375 181.22 92.3617 180.143C91.6391 178.214 90.6925 175.569 93.1205 174.536C93.5529 174.34 94.0222 174.238 94.497 174.238C94.9719 174.238 95.4412 174.34 95.8736 174.536C98.2944 175.649 99.5301 179.457 99.5879 179.594V179.652C100.347 184.826 99.4433 189.104 96.9864 192.023C95.9539 193.223 94.6756 194.187 93.2382 194.85C91.8008 195.514 90.2377 195.861 88.6547 195.867L88.3512 195.896ZM86.0677 182.752C84.2612 182.752 82.498 183.417 81.0962 185.881C79.8822 188.005 79.7738 190.022 80.7782 191.705C82.0934 193.873 85.1862 195.26 88.6692 195.174C90.1508 195.166 91.6133 194.839 92.9574 194.215C94.3015 193.592 95.4957 192.687 96.4589 191.561C98.7785 188.815 99.624 184.746 98.9086 179.797C98.793 179.457 97.6296 176.111 95.5918 175.179C95.2521 175.022 94.8822 174.94 94.5079 174.94C94.1335 174.94 93.7637 175.022 93.424 175.179C91.7547 175.902 92.2244 177.571 93.0627 179.876C93.5396 181.184 93.9515 182.318 93.5034 183.027C93.3857 183.195 93.2303 183.333 93.0497 183.431C92.8691 183.529 92.6682 183.584 92.4629 183.59C91.4043 183.619 90.3474 183.489 89.3267 183.207C88.2596 182.941 87.1671 182.788 86.0677 182.752Z" fill="#263238"/>
<path d="M85.6269 185.895C85.4174 186.676 84.9043 187.21 84.4418 187.088C83.9794 186.965 83.7987 186.242 84.0155 185.462C84.2323 184.681 84.7381 184.139 85.2006 184.262C85.6631 184.385 85.8365 185.115 85.6269 185.895Z" fill="#263238"/>
<path d="M82.7292 187.16C82.5197 187.94 82.0066 188.475 81.5441 188.359C81.0817 188.244 80.901 187.507 81.1106 186.726C81.3201 185.946 81.8332 185.411 82.3029 185.534C82.7726 185.657 82.9388 186.358 82.7292 187.16Z" fill="#263238"/>
<path d="M84.543 190.332C84.3334 191.113 83.8203 191.655 83.3579 191.532C82.8954 191.409 82.722 190.679 82.9315 189.899C83.1411 189.118 83.6541 188.583 84.1166 188.706C84.5791 188.829 84.7525 189.552 84.543 190.332Z" fill="#263238"/>
<path d="M84.8464 194.783C84.7749 194.784 84.7048 194.763 84.6455 194.723C84.5861 194.683 84.5403 194.626 84.514 194.559C84.4951 194.517 84.485 194.471 84.4843 194.424C84.4836 194.378 84.4922 194.331 84.5098 194.288C84.5273 194.245 84.5533 194.206 84.5864 194.173C84.6194 194.14 84.6587 194.114 84.7019 194.097C85.305 193.845 85.86 193.49 86.3422 193.049C86.4141 192.992 86.5052 192.963 86.5971 192.971C86.6889 192.978 86.7745 193.02 86.8363 193.088C86.8981 193.157 86.9315 193.246 86.9297 193.338C86.9279 193.43 86.8909 193.518 86.8264 193.584C86.2837 194.084 85.6576 194.485 84.9765 194.769C84.9341 194.78 84.8902 194.785 84.8464 194.783Z" fill="#263238"/>
<path d="M87.484 192.688C87.4056 192.69 87.329 192.664 87.2672 192.616C87.2292 192.587 87.1973 192.552 87.1731 192.511C87.1489 192.47 87.133 192.425 87.1263 192.378C87.1196 192.331 87.1222 192.283 87.134 192.237C87.1458 192.191 87.1665 192.148 87.1949 192.11C87.7478 191.375 88.1661 190.548 88.4306 189.667C88.7411 188.765 88.8628 187.809 88.7882 186.858C88.7136 185.907 88.4443 184.982 87.997 184.139C87.9493 184.056 87.9361 183.957 87.9605 183.864C87.9848 183.77 88.0446 183.69 88.1271 183.641C88.2115 183.597 88.3094 183.585 88.4016 183.609C88.4938 183.633 88.5737 183.691 88.6257 183.771C89.1192 184.701 89.4179 185.723 89.5037 186.773C89.5894 187.822 89.4603 188.879 89.1243 189.877C88.836 190.839 88.3784 191.742 87.773 192.543C87.7386 192.587 87.6948 192.623 87.6448 192.648C87.5948 192.673 87.5399 192.687 87.484 192.688Z" fill="#263238"/>
</svg>
