<svg width="340" height="333" viewBox="0 0 340 333" fill="none" xmlns="http://www.w3.org/2000/svg">
<path d="M292.873 95.9663H8.90845V115.216H292.873V95.9663Z" fill="#263238"/>
<path d="M29.7581 0.472656V101.513" stroke="#263238" stroke-width="2" stroke-miterlimit="10"/>
<path d="M70.1391 0.472656V101.513" stroke="#263238" stroke-width="2" stroke-miterlimit="10"/>
<path d="M110.513 0.472656V101.513" stroke="#263238" stroke-width="2" stroke-miterlimit="10"/>
<path d="M150.894 0.472656V101.513" stroke="#263238" stroke-width="2" stroke-miterlimit="10"/>
<path d="M191.268 0.472656V101.513" stroke="#263238" stroke-width="2" stroke-miterlimit="10"/>
<path d="M231.649 0.472656V101.513" stroke="#263238" stroke-width="2" stroke-miterlimit="10"/>
<path d="M272.023 0.472656V101.513" stroke="#263238" stroke-width="2" stroke-miterlimit="10"/>
<path d="M9.57101 26.3828H292.21" stroke="#263238" stroke-width="2" stroke-miterlimit="10"/>
<path d="M9.57101 64.875H292.21" stroke="#263238" stroke-width="2" stroke-miterlimit="10"/>
<path d="M335.531 0H263.628V115.208H335.531V0Z" fill="#263238"/>
<path d="M29.6734 309.17V288.44" stroke="#E25F00" stroke-linecap="round" stroke-linejoin="round"/>
<path d="M25.4443 309.106H33.8039L31.7175 331.964H27.5378L25.4443 309.106Z" fill="#263238" stroke="#263238" stroke-linecap="round" stroke-linejoin="round"/>
<path d="M29.5113 307.302C28.8413 306.368 27.9963 305.573 27.0232 304.962C25.8415 304.451 24.5678 304.187 23.2804 304.187C23.2804 304.187 24.528 308.705 29.5113 307.302Z" fill="#E25F00"/>
<path d="M29.6734 307.302C30.3434 306.368 31.1885 305.573 32.1616 304.962C33.3432 304.451 34.6169 304.187 35.9043 304.187C35.9043 304.187 34.6567 308.705 29.6734 307.302Z" fill="#E25F00"/>
<path d="M29.5113 301.691C28.8434 300.755 27.998 299.96 27.0232 299.351C25.8427 298.835 24.5685 298.569 23.2804 298.568C23.2804 298.568 24.528 303.094 29.5113 301.691Z" fill="#E25F00"/>
<path d="M29.6734 301.691C30.3414 300.755 31.1868 299.96 32.1616 299.351C33.3421 298.835 34.6162 298.569 35.9043 298.568C35.9043 298.568 34.6567 303.094 29.6734 301.691Z" fill="#E25F00"/>
<path d="M29.5113 296.073C28.8423 295.141 27.997 294.348 27.0232 293.74C25.8427 293.225 24.5685 292.959 23.2804 292.958C23.2804 292.958 24.528 297.476 29.5113 296.073Z" fill="#E25F00"/>
<path d="M29.6734 296.073C30.3425 295.141 31.1878 294.348 32.1616 293.74C33.3421 293.225 34.6162 292.959 35.9043 292.958C35.9043 292.958 34.6567 297.476 29.6734 296.073Z" fill="#E25F00"/>
<path d="M29.5113 290.463C28.8413 289.529 27.9963 288.735 27.0232 288.123C25.8415 287.612 24.5678 287.348 23.2804 287.348C23.2804 287.348 24.528 291.866 29.5113 290.463Z" fill="#E25F00"/>
<path d="M29.6734 290.463C30.3434 289.529 31.1885 288.735 32.1616 288.123C33.3432 287.612 34.6169 287.348 35.9043 287.348C35.9043 287.348 34.6567 291.866 29.6734 290.463Z" fill="#E25F00"/>
<path d="M29.6735 288.44C28.9658 287.474 28.5147 286.344 28.3624 285.156C28.4352 283.87 28.771 282.613 29.3492 281.462C29.3492 281.462 33.1695 284.62 29.6735 288.44Z" fill="#E25F00"/>
<path d="M308.492 309.17V288.44" stroke="#E25F00" stroke-linecap="round" stroke-linejoin="round"/>
<path d="M304.27 309.106H312.63L310.536 331.964H306.357L304.27 309.106Z" fill="#263238" stroke="#263238" stroke-linecap="round" stroke-linejoin="round"/>
<path d="M308.316 307.302C307.643 306.369 306.795 305.574 305.821 304.962C304.642 304.451 303.37 304.187 302.085 304.187C302.085 304.187 303.382 308.705 308.316 307.302Z" fill="#E25F00"/>
<path d="M308.492 307.302C309.166 306.369 310.013 305.574 310.988 304.962C312.169 304.451 313.443 304.187 314.73 304.187C314.73 304.187 313.483 308.705 308.492 307.302Z" fill="#E25F00"/>
<path d="M308.316 301.691C307.645 300.756 306.797 299.961 305.821 299.351C304.643 298.836 303.371 298.569 302.085 298.568C302.085 298.568 303.382 303.094 308.316 301.691Z" fill="#E25F00"/>
<path d="M308.492 301.691C309.164 300.756 310.011 299.961 310.988 299.351C312.168 298.835 313.442 298.569 314.73 298.568C314.73 298.568 313.483 303.094 308.492 301.691Z" fill="#E25F00"/>
<path d="M308.316 296.073C307.644 295.141 306.796 294.349 305.821 293.74C304.643 293.225 303.371 292.959 302.085 292.958C302.085 292.958 303.382 297.476 308.316 296.073Z" fill="#E25F00"/>
<path d="M308.492 296.073C309.165 295.141 310.012 294.349 310.988 293.74C312.168 293.225 313.442 292.959 314.73 292.958C314.73 292.958 313.483 297.476 308.492 296.073Z" fill="#E25F00"/>
<path d="M308.316 290.463C307.643 289.53 306.795 288.735 305.821 288.123C304.642 287.612 303.37 287.348 302.085 287.348C302.085 287.348 303.382 291.866 308.316 290.463Z" fill="#E25F00"/>
<path d="M308.492 290.463C309.166 289.53 310.013 288.735 310.988 288.123C312.169 287.612 313.443 287.348 314.73 287.348C314.73 287.348 313.483 291.866 308.492 290.463Z" fill="#E25F00"/>
<path d="M308.492 288.44C307.785 287.474 307.334 286.344 307.181 285.156C307.255 283.869 307.593 282.612 308.175 281.462C308.175 281.462 311.996 284.62 308.492 288.44Z" fill="#E25F00"/>
<path d="M272.961 91.0317V70.2949" stroke="#E25F00" stroke-linecap="round" stroke-linejoin="round"/>
<path d="M268.739 90.9614H277.098L275.005 113.82H270.825L268.739 90.9614Z" fill="white" stroke="#263238" stroke-linecap="round" stroke-linejoin="round"/>
<path d="M272.806 89.1496C272.132 88.2164 271.285 87.4219 270.31 86.8095C269.131 86.2989 267.86 86.035 266.575 86.0342C266.575 86.0342 267.822 90.5593 272.806 89.1496Z" fill="#E25F00"/>
<path d="M272.961 89.1496C273.634 88.2164 274.481 87.4219 275.456 86.8095C276.638 86.2985 277.911 86.0346 279.199 86.0342C279.199 86.0342 277.951 90.5593 272.961 89.1496Z" fill="#E25F00"/>
<path d="M272.806 83.5461C272.132 82.6129 271.285 81.8184 270.31 81.206C269.131 80.6954 267.86 80.4315 266.575 80.4307C266.575 80.4307 267.822 84.9206 272.806 83.5461Z" fill="#E25F00"/>
<path d="M272.961 83.5461C273.634 82.6129 274.481 81.8184 275.456 81.206C276.638 80.695 277.911 80.4311 279.199 80.4307C279.199 80.4307 277.951 84.9206 272.961 83.5461Z" fill="#E25F00"/>
<path d="M272.806 77.9355C272.132 77.0023 271.285 76.2078 270.31 75.5954C269.132 75.0802 267.861 74.8138 266.575 74.813C266.575 74.813 267.822 79.3381 272.806 77.9355Z" fill="#E25F00"/>
<path d="M272.961 77.9355C273.634 77.0023 274.481 76.2078 275.456 75.5954C276.636 75.08 277.911 74.8137 279.199 74.813C279.199 74.813 277.951 79.3381 272.961 77.9355Z" fill="#E25F00"/>
<path d="M272.806 72.3251C272.134 71.3902 271.286 70.5953 270.31 69.985C269.132 69.4698 267.861 69.2035 266.575 69.2026C266.575 69.2026 267.822 73.7278 272.806 72.3251Z" fill="#E25F00"/>
<path d="M272.961 72.3251C273.632 71.3902 274.48 70.5953 275.456 69.985C276.636 69.4697 277.911 69.2033 279.199 69.2026C279.199 69.2026 277.951 73.7278 272.961 72.3251Z" fill="#E25F00"/>
<path d="M272.961 70.2947C272.253 69.3283 271.802 68.1982 271.65 67.0101C271.728 65.7267 272.066 64.4726 272.644 63.3237C272.644 63.3237 276.464 66.4744 272.961 70.2947Z" fill="#E25F00"/>
<path d="M295.636 4.39844H271.036V37.5547H295.636V4.39844Z" fill="#E25F00" stroke="#263238" stroke-linecap="round" stroke-linejoin="round"/>
<path d="M292.062 9.21289H274.603V32.748H292.062V9.21289Z" fill="white" stroke="#263238" stroke-linecap="round" stroke-linejoin="round"/>
<path d="M325.24 17.3252H305.222V44.307H325.24V17.3252Z" fill="#E25F00" stroke="#263238" stroke-linecap="round" stroke-linejoin="round"/>
<path d="M322.329 21.2373H308.126V40.3811H322.329V21.2373Z" fill="white" stroke="#263238" stroke-linecap="round" stroke-linejoin="round"/>
<path d="M304.165 47.0557H287.051V70.1185H304.165V47.0557Z" fill="#E25F00" stroke="#263238" stroke-linecap="round" stroke-linejoin="round"/>
<path d="M301.683 50.4043H289.539V66.771H301.683V50.4043Z" fill="white" stroke="#263238" stroke-linecap="round" stroke-linejoin="round"/>
<path d="M145.319 60.7866H123.067C122.825 60.7885 122.594 60.8858 122.423 61.0575C122.253 61.2291 122.157 61.4611 122.157 61.7029C122.157 61.9441 122.253 62.1754 122.424 62.3459C122.594 62.5164 122.825 62.6122 123.067 62.6122H146.2V61.7029C146.202 61.4654 146.111 61.2365 145.946 61.0652C145.781 60.894 145.556 60.794 145.319 60.7866Z" fill="white" stroke="#263238" stroke-linecap="round" stroke-linejoin="round"/>
<path d="M135.909 37.9561H107.581C107.009 37.9561 106.545 38.4199 106.545 38.9922V57.9175C106.545 58.4897 107.009 58.9536 107.581 58.9536H135.909C136.481 58.9536 136.945 58.4897 136.945 57.9175V38.9922C136.945 38.4199 136.481 37.9561 135.909 37.9561Z" fill="#263238" stroke="#263238" stroke-linecap="round" stroke-linejoin="round"/>
<path d="M130.905 43.5605H111.38C110.808 43.5605 110.344 44.0244 110.344 44.5967V57.9255C110.344 58.4977 110.808 58.9616 111.38 58.9616H130.905C131.477 58.9616 131.941 58.4977 131.941 57.9255V44.5967C131.941 44.0244 131.477 43.5605 130.905 43.5605Z" fill="#474747" stroke="#263238" stroke-linecap="round" stroke-linejoin="round"/>
<path d="M122.108 53.1602H119.979C119.407 53.1602 118.943 53.6241 118.943 54.1963V62.725C118.943 63.2973 119.407 63.7612 119.979 63.7612H122.108C122.68 63.7612 123.144 63.2973 123.144 62.725V54.1963C123.144 53.6241 122.68 53.1602 122.108 53.1602Z" fill="white" stroke="#263238" stroke-linecap="round" stroke-linejoin="round"/>
<path d="M165.745 64.1632L173.689 34.4254C173.963 33.4059 174.594 32.5189 175.468 31.9262C176.341 31.3335 177.398 31.0748 178.447 31.1971L190.19 31.6412C190.763 31.7093 191.317 31.8898 191.82 32.1722C192.324 32.4546 192.766 32.8335 193.123 33.2872C193.48 33.7409 193.744 34.2604 193.9 34.8161C194.055 35.3718 194.1 35.9528 194.031 36.5258L190.606 64.3182L165.745 64.1632Z" fill="#B5B5B5" stroke="#263238" stroke-linecap="round" stroke-linejoin="round"/>
<path d="M169.594 43.0806H162.087L149.724 48.7687L150.323 53.9776L160.501 52.1591L160.741 64.7548H176.509L179.293 57.0014L182.817 64.05C182.844 64.1052 182.884 64.1532 182.933 64.19C182.982 64.2268 183.039 64.2514 183.1 64.2617C183.161 64.272 183.223 64.2678 183.281 64.2494C183.34 64.2309 183.393 64.1988 183.437 64.1557L195.54 51.9194L193.841 50.3406L184.882 55.0631L180.519 45.0119L169.594 43.0806Z" fill="#E25F00" stroke="#263238" stroke-linecap="round" stroke-linejoin="round"/>
<path d="M166.443 43.0811C166.443 43.0811 163.539 49.4953 163.539 53.6116C163.539 57.7279 166.084 62.817 166.084 62.817L170.44 63.6628C172.559 60.8506 173.971 57.5701 174.556 54.0979C174.998 50.807 175.121 47.4811 174.923 44.1666C174.923 44.1666 171.892 42.9542 166.443 43.0811Z" fill="#E25F00" stroke="#263238" stroke-linecap="round" stroke-linejoin="round"/>
<path d="M168.142 44.0395C167.336 47.3015 166.81 50.6264 166.57 53.9779C166.323 58.7004 166.084 64.7551 166.084 64.7551H169.96C169.96 64.7551 171.892 50.7074 172.625 47.4368C173.358 44.1663 171.892 41.9883 168.142 44.0395Z" fill="white" stroke="#263238" stroke-linecap="round" stroke-linejoin="round"/>
<path d="M165.936 31.2959C165.936 31.2959 163.307 30.8025 163.011 28.6386C162.715 26.4747 165.915 23.9654 170.059 23.035C174.204 22.1046 178.778 26.0024 179.384 29.5831C179.991 33.1637 181.337 37.6254 180.491 39.451C179.645 41.2766 175.698 41.9391 171.497 42.5171C167.296 43.0951 165.048 40.9524 164.97 39.4933C164.893 38.0343 165.936 31.2959 165.936 31.2959Z" fill="#263238" stroke="#263238" stroke-linecap="round" stroke-linejoin="round"/>
<path d="M169.594 42.4754C169.594 42.4754 168.382 42.4754 168.022 43.0815C167.663 43.6877 165.203 48.0155 165.203 48.0155L169.679 47.4093L174.648 49.2279C174.648 49.2279 174.768 44.5053 174.281 43.4128C173.795 42.3203 169.594 42.4754 169.594 42.4754Z" fill="white" stroke="#263238" stroke-linecap="round" stroke-linejoin="round"/>
<path d="M169.234 40.0503C169.234 40.0503 168.988 45.4988 168.988 46.7112C168.996 47.0245 169.108 47.3262 169.306 47.5687C169.505 47.8111 169.779 47.9805 170.084 48.05C170.39 48.1196 170.71 48.0853 170.994 47.9526C171.278 47.8199 171.509 47.5964 171.652 47.3173C172.498 45.9852 173.224 40.0503 173.224 40.0503H169.234Z" fill="white" stroke="#263238" stroke-linecap="round" stroke-linejoin="round"/>
<path d="M158.937 30.6053L162.813 39.4442L166.57 37.9922L162.813 29.6396L158.937 30.6053Z" fill="#263238" stroke="#263238" stroke-linecap="round" stroke-linejoin="round"/>
<path d="M169.552 27.5034C169.841 27.7854 167.656 30.1184 165.964 30.6048C165.146 30.8374 165.964 34.6013 165.717 36.1731C165.456 37.8859 169.023 41.5089 170.461 41.3115C173.59 40.8815 174.789 39.9018 175.205 38.4921C175.352 37.8579 175.46 37.2153 175.529 36.5678C175.529 36.5678 177.101 37.6533 177.347 36.0815C177.594 34.5097 176.741 34.0233 176.741 34.0233C176.741 34.0233 169.834 32.7616 169.552 27.5034Z" fill="white" stroke="#263238" stroke-linecap="round" stroke-linejoin="round"/>
<path d="M193.813 50.3412L195.385 46.2248L198.098 45.0477L198.176 45.0195V46.105L196.597 47.0777H199.381L200.96 45.379L201.566 45.7455L200.107 49.6152L195.511 51.92L193.813 50.3412Z" fill="white" stroke="#263238" stroke-linecap="round" stroke-linejoin="round"/>
<path d="M160.515 39.6903L158.697 34.6013L161.361 31.6973L162.066 32.1766C162.066 32.1766 161.46 34.7211 161.46 35.0876C161.996 36.4092 162.603 37.7009 163.278 38.9573L159.049 44.1661L157.238 42.2278L160.515 39.6903Z" fill="white" stroke="#263238" stroke-linecap="round" stroke-linejoin="round"/>
<path d="M157.245 42.2285L148.216 48.5722C147.796 48.8652 147.46 49.2623 147.24 49.7244C147.02 50.1865 146.924 50.6979 146.961 51.2083L147.01 51.9132C147.063 52.6088 147.361 53.2631 147.852 53.7589C148.343 54.2548 148.994 54.5599 149.689 54.6198C150.217 54.6651 150.748 54.5672 151.226 54.3365C151.703 54.1058 152.11 53.7508 152.403 53.3088L159.056 44.2233L157.245 42.2285Z" fill="#E25F00" stroke="#263238" stroke-linecap="round" stroke-linejoin="round"/>
<path d="M103.253 62.5137H225.404V111.853H103.253C102.978 111.853 102.715 111.744 102.52 111.55C102.326 111.356 102.217 111.092 102.217 110.817V63.5921C102.211 63.4525 102.234 63.3132 102.283 63.1826C102.333 63.052 102.408 62.9327 102.505 62.8319C102.602 62.7312 102.718 62.6511 102.847 62.5964C102.975 62.5417 103.113 62.5136 103.253 62.5137Z" fill="white" stroke="#263238" stroke-linecap="round" stroke-linejoin="round"/>
<path d="M186.038 57.5166H198.472L196.703 62.6056H184.269L186.038 57.5166Z" fill="#263238" stroke="#263238" stroke-linecap="round" stroke-linejoin="round"/>
<path d="M207.649 57.5166H186.362L188.132 62.6056H209.418L207.649 57.5166Z" fill="white" stroke="#263238" stroke-linecap="round" stroke-linejoin="round"/>
<path d="M192.65 59.2713L192.798 59.652C192.988 60.1242 192.861 60.3568 192.403 60.3568H192.184L192.629 61.4564H192.163L191 58.5312H191.705C191.921 58.5382 192.129 58.6137 192.299 58.7468C192.468 58.8799 192.591 59.0636 192.65 59.2713ZM191.628 58.9683L192.022 59.9621H192.241C192.382 59.9621 192.438 59.8916 192.354 59.6802L192.177 59.2432C192.093 59.0317 191.987 58.9683 191.839 58.9683H191.628Z" fill="#263238"/>
<path d="M194.708 61.4777C194.626 61.3685 194.562 61.2472 194.518 61.1182L194.334 60.66C194.229 60.3851 194.095 60.2865 193.883 60.2865H193.728L194.2 61.4777H193.742L192.572 58.5525H193.277C193.492 58.5439 193.704 58.6091 193.877 58.7373C194.05 58.8655 194.174 59.049 194.229 59.2574L194.32 59.49C194.438 59.786 194.417 59.9834 194.257 60.082C194.388 60.1386 194.506 60.2235 194.601 60.3307C194.696 60.4379 194.766 60.5648 194.807 60.7023L194.99 61.1534C195.032 61.2835 195.096 61.4052 195.18 61.5129L194.708 61.4777ZM193.199 58.9684L193.559 59.8635H193.742C193.911 59.8635 193.989 59.7931 193.89 59.5605L193.777 59.2715C193.693 59.06 193.587 58.9684 193.425 58.9684H193.199Z" fill="#263238"/>
<path d="M195.208 59.7857H195.836L196.005 60.2016H195.377L195.716 61.0545H196.512L196.681 61.4774H195.427L194.257 58.5522H195.54L195.702 58.9681H194.912L195.208 59.7857Z" fill="#263238"/>
<path d="M196.4 58.5176C196.615 58.5205 196.823 58.5898 196.997 58.7159C197.172 58.8421 197.302 59.019 197.372 59.2224V59.3141H196.949L196.9 59.1942C196.822 58.9828 196.703 58.9052 196.555 58.9052C196.407 58.9052 196.357 58.9828 196.442 59.1942C196.681 59.8004 197.626 59.8991 197.964 60.7449C198.148 61.2172 198.021 61.485 197.57 61.485C197.349 61.4822 197.135 61.4089 196.958 61.2757C196.782 61.1426 196.653 60.9566 196.59 60.7449L196.519 60.5687H196.949L197.027 60.7731C197.111 60.9846 197.238 61.0621 197.379 61.0621C197.52 61.0621 197.591 60.9846 197.506 60.7731C197.266 60.174 196.322 60.0683 195.991 59.2224C195.829 58.7854 195.955 58.5176 196.4 58.5176Z" fill="#263238"/>
<path d="M197.358 58.5522H197.816L198.986 61.4774H198.528L197.358 58.5522Z" fill="#263238"/>
<path d="M198.155 58.5523H198.859C199.076 58.5499 199.287 58.6171 199.462 58.744C199.637 58.8709 199.767 59.0509 199.832 59.2572L200.424 60.7374C200.615 61.2096 200.488 61.4422 200.03 61.4422H199.325L198.155 58.5523ZM198.782 58.9682L199.614 61.0827H199.874C200.022 61.0827 200.079 61.0123 199.994 60.8008L199.388 59.2783C199.304 59.0739 199.184 58.9964 199.036 58.9964L198.782 58.9682Z" fill="#263238"/>
<path d="M200.812 59.7857H201.439L201.608 60.2016H200.981L201.319 61.0545H202.116L202.285 61.4774H201.03L199.86 58.5522H201.115L201.277 58.9681H200.474L200.812 59.7857Z" fill="#263238"/>
<path d="M202.13 59.356L202.976 61.4706H202.588L201.425 58.5454H201.996L203.173 60.2934L202.468 58.5454H202.877L203.998 61.4776H203.526L202.13 59.356Z" fill="#263238"/>
<path d="M203.046 58.5522H204.456L204.625 58.9681H204.146L205.147 61.4774H204.703L203.695 58.9681H203.215L203.046 58.5522Z" fill="#263238"/>
<path d="M101.188 62.5137H227.469V64.9877H101.188C100.913 64.9877 100.65 64.8785 100.455 64.6842C100.261 64.4899 100.152 64.2264 100.152 63.9516V63.5498C100.152 63.275 100.261 63.0115 100.455 62.8172C100.65 62.6228 100.913 62.5137 101.188 62.5137Z" fill="#263238"/>
<path d="M215.409 185.454L234.194 190.036C234.393 190.098 234.576 190.203 234.73 190.345C234.883 190.486 235.004 190.66 235.082 190.853C235.16 191.047 235.194 191.256 235.182 191.464C235.17 191.672 235.112 191.876 235.011 192.059L219.441 221.021L226.025 226.54L219.025 225.053L213.506 222.804L214.324 219.329L224.269 195.322C224.318 195.192 224.335 195.052 224.318 194.914C224.301 194.776 224.251 194.645 224.172 194.53C224.093 194.416 223.988 194.322 223.865 194.258C223.742 194.193 223.605 194.159 223.466 194.159H202.588C202.588 194.159 198.359 190.219 202.447 184.869L215.409 185.454Z" fill="#263238" stroke="#263238" stroke-linecap="round" stroke-linejoin="round"/>
<path d="M209.178 221.162V202.209H206.507V199.671H213.401V202.209H210.729V220.909L223.677 224.278V225.265H222.268L210.729 223.094V225.265H209.178V223.277L198.62 225.265H197.217V224.278L209.178 221.162Z" fill="#263238"/>
<path d="M216.636 199.812H196.089L194.13 196.542C193.395 195.329 192.954 193.962 192.84 192.549C192.726 191.136 192.943 189.715 193.474 188.401L194.715 185.313" stroke="#263238" stroke-width="2" stroke-linecap="round" stroke-linejoin="round"/>
<path d="M217.341 166.452L221.57 171.872L232.544 172.859C232.544 172.859 237.112 170.744 238.099 170.744C239.085 170.744 241.799 175.065 241.799 175.065H232.03L220.682 176.919L215.501 173.458L217.341 166.452Z" fill="#5C5C5C" stroke="#263238" stroke-linecap="round" stroke-linejoin="round"/>
<path d="M217.059 163.921L219.681 180.132C219.892 181.436 219.991 185.214 218.483 185.933C218.193 186.046 217.883 186.094 217.573 186.074C215.494 186.074 213.485 185.475 211.441 185.475H203.737C203.261 185.475 202.796 185.338 202.397 185.079C201.998 184.82 201.682 184.451 201.489 184.016L201.348 183.699C201.13 183.209 201.079 182.663 201.2 182.141C202.109 178.257 206.056 163.307 206.93 161.7C207.91 159.875 211.293 158.606 211.293 158.606L217.059 163.921Z" fill="#E25F00" stroke="#263238" stroke-linecap="round" stroke-linejoin="round"/>
<path d="M219.998 158.148L217.75 159.149L216.121 162.673L211.617 158.296L212.865 155.42C212.865 155.42 211.237 153.038 211.617 150.909C211.998 148.781 215.994 146.532 218.123 148.534C220.252 150.536 219.998 158.148 219.998 158.148Z" fill="white" stroke="#263238" stroke-linecap="round" stroke-linejoin="round"/>
<path d="M220.837 148.358C220.837 148.358 222.324 148.027 222.162 146.708C222 145.39 220.837 146.871 220.837 145.39C220.837 143.91 222.162 143.41 221.337 142.571C220.513 141.732 217.869 141.253 217.214 142.409C216.558 143.565 216.713 144.22 216.22 144.22C215.727 144.22 214.408 143.064 213.401 144.552C212.393 146.039 212.745 146.532 212.745 146.532C212.745 146.532 208.953 148.012 208.953 150.486C208.953 152.96 212.851 155.364 212.851 155.364C212.851 155.364 215.381 155.597 216.537 154.448C217.693 153.299 218.024 151.311 218.349 150.486C218.673 149.662 220.837 148.358 220.837 148.358Z" fill="#263238" stroke="#263238" stroke-linecap="round" stroke-linejoin="round"/>
<path d="M220.252 147.265L221.372 150.642V151.516L222.98 153.123V153.165L221.746 154.645L221.866 157.902L219.046 158.106C218.379 158.154 217.714 157.985 217.149 157.626C216.584 157.267 216.15 156.736 215.91 156.111L215.24 154.391C214.895 154.251 214.602 154.006 214.401 153.692C214.2 153.378 214.102 153.009 214.119 152.636C214.119 151.227 213.993 150.761 214.74 150.761C215.29 150.78 215.837 150.863 216.368 151.008L217.122 150.635L216.995 149.38L218.123 148.506L218.25 147.258L220.252 147.265Z" fill="white" stroke="#263238" stroke-linecap="round" stroke-linejoin="round"/>
<path d="M211.991 156.463L218.609 162.934L217.341 166.451L210.306 158.571L211.991 156.463Z" fill="#E25F00" stroke="#263238" stroke-linecap="round" stroke-linejoin="round"/>
<path d="M200.875 199.114H222.409C223.343 199.114 224.1 198.357 224.1 197.423V195.456C224.1 194.522 223.343 193.764 222.409 193.764H200.875C199.941 193.764 199.184 194.522 199.184 195.456V197.423C199.184 198.357 199.941 199.114 200.875 199.114Z" fill="#B5B5B5" stroke="#263238" stroke-linecap="round" stroke-linejoin="round"/>
<path d="M196.546 191.582L198.776 191.293C199.394 191.212 199.83 190.647 199.749 190.029L197.74 174.539C197.66 173.922 197.095 173.486 196.477 173.566L194.247 173.855C193.629 173.935 193.194 174.501 193.274 175.119L195.283 190.608C195.363 191.226 195.929 191.662 196.546 191.582Z" fill="#B5B5B5" stroke="#263238" stroke-linecap="round" stroke-linejoin="round"/>
<path d="M211.991 162.088L218.447 173.563L230.571 173.07C230.571 173.07 235.78 171.942 236.625 171.801C237.471 171.66 239.861 174.48 239.861 174.48H231.403L216.044 179.054L206.493 167.438" fill="#E25F00"/>
<path d="M211.991 162.088L218.447 173.563L230.571 173.07C230.571 173.07 235.78 171.942 236.625 171.801C237.471 171.66 239.861 174.48 239.861 174.48H231.403L216.044 179.054L206.493 167.438" stroke="#263238" stroke-linecap="round" stroke-linejoin="round"/>
<path d="M230.592 174.67L230.282 173.063H230.571C230.571 173.063 235.78 171.936 236.625 171.795C237.471 171.654 239.861 174.473 239.861 174.473H231.403L230.592 174.67Z" fill="white" stroke="#263238" stroke-linecap="round" stroke-linejoin="round"/>
<path d="M297.426 193.468C297.426 193.468 310.473 217.61 310.882 218.575C311.274 219.68 311.474 220.843 311.474 222.015C311.474 222.015 311.326 222.311 310.727 222.311C310.128 222.311 304.002 225.003 302.36 225.003H299.372L301.613 223.058L304.15 220.239C304.15 220.239 305.56 220.563 305.56 217.87C305.56 215.178 289.659 193.786 289.06 192.143C288.46 190.501 291.752 189.458 292.795 189.606C293.838 189.754 296.834 190.205 296.834 190.205L297.426 193.468Z" fill="#5C5C5C" stroke="#263238" stroke-linecap="round" stroke-linejoin="round"/>
<path d="M308.936 184.122L286.564 190.522C286.36 190.582 286.171 190.687 286.013 190.829C285.855 190.972 285.731 191.149 285.651 191.346C285.571 191.544 285.537 191.756 285.551 191.969C285.565 192.182 285.627 192.388 285.733 192.573L303.382 219.548L296.235 225.955L301.169 226.568L305.053 225.159L307.245 223.34L306.427 219.865L296.475 195.83C296.425 195.7 296.408 195.56 296.425 195.423C296.442 195.285 296.492 195.154 296.572 195.04C296.651 194.926 296.756 194.833 296.88 194.769C297.003 194.705 297.139 194.673 297.278 194.674H320.891C320.891 194.674 326.17 189.62 322.089 184.27L308.936 184.122Z" fill="white" stroke="#263238" stroke-linecap="round" stroke-linejoin="round"/>
<path d="M300.76 158.149L303.009 159.149L304.637 162.674L309.141 158.297L307.893 155.407C307.893 155.407 309.514 153.024 309.141 150.896C308.767 148.767 304.764 146.518 302.635 148.52C300.506 150.522 300.76 158.149 300.76 158.149Z" fill="white" stroke="#263238" stroke-linecap="round" stroke-linejoin="round"/>
<path d="M300.506 147.266L299.386 150.642V151.516L297.779 153.123V153.165L299.012 154.645L298.892 157.902L301.712 158.106C302.379 158.155 303.045 157.988 303.611 157.63C304.177 157.272 304.613 156.743 304.855 156.119L305.518 154.399C305.864 154.259 306.159 154.015 306.361 153.701C306.563 153.386 306.663 153.017 306.646 152.644C306.646 151.234 306.772 150.769 306.018 150.769C305.47 150.788 304.926 150.871 304.397 151.015L303.643 150.642L303.77 149.387L302.642 148.513L302.515 147.266H300.506Z" fill="white" stroke="#263238" stroke-linecap="round" stroke-linejoin="round"/>
<path d="M304.602 165.979L299.174 172.887L283.505 172.513C283.505 172.513 278.818 170.54 278.078 170.913C277.338 171.287 275.731 173.994 275.731 173.994L279.438 173.38C280.262 173.746 281.133 173.995 282.025 174.121C282.658 174.091 283.284 173.965 283.879 173.747L302.875 177.574L308.429 172.02L304.602 165.979Z" fill="#5C5C5C" stroke="#263238" stroke-linecap="round" stroke-linejoin="round"/>
<path d="M303.854 164.358C303.854 164.358 302.959 173.021 303.854 174.226C304.75 175.431 308.485 176.764 308.64 177.215C308.795 177.666 308.64 183.192 308.936 183.643C309.751 184.382 310.711 184.941 311.756 185.285H321.166C321.166 185.285 322.667 184.087 322.667 183.044C322.667 182.001 319.418 178.11 319.418 178.11C319.418 178.11 317.881 166.311 316.387 163.308C314.892 160.305 308.732 158.466 308.224 158.275C307.717 158.085 303.854 164.358 303.854 164.358Z" fill="#E25F00" stroke="#263238" stroke-linecap="round" stroke-linejoin="round"/>
<path d="M308.76 156.463L302.149 162.934L303.417 166.451L310.452 158.571L308.76 156.463Z" fill="#E25F00" stroke="#263238" stroke-linecap="round" stroke-linejoin="round"/>
<path d="M308.76 162.088L302.311 173.563L290.18 173.07C290.18 173.07 284.978 171.942 284.133 171.801C283.287 171.66 280.89 174.48 280.89 174.48H289.349L304.707 179.054L314.258 167.438" fill="#E25F00"/>
<path d="M308.76 162.088L302.311 173.563L290.18 173.07C290.18 173.07 284.978 171.942 284.133 171.801C283.287 171.66 280.89 174.48 280.89 174.48H289.349L304.707 179.054L314.258 167.438" stroke="#263238" stroke-linecap="round" stroke-linejoin="round"/>
<path d="M290.166 174.67L290.476 173.063H290.18C290.18 173.063 284.978 171.936 284.133 171.795C283.287 171.654 280.89 174.473 280.89 174.473H289.349L290.166 174.67Z" fill="white" stroke="#263238" stroke-linecap="round" stroke-linejoin="round"/>
<path d="M298.448 147.173C298.448 147.173 305.772 155.752 308.612 155.836C313.687 155.984 312.644 148.217 311.002 146.271C309.987 145.038 299.372 140.745 298.448 147.173Z" fill="#263238" stroke="#263238" stroke-linecap="round" stroke-linejoin="round"/>
<path d="M306.096 150.472C306.096 150.472 306.843 154.06 305.652 156.597C304.461 159.135 302.508 158.839 302.959 159.29C303.41 159.741 306.244 162.278 308.936 160.932C311.629 159.586 312.545 154.194 312.545 151.952" fill="#263238"/>
<path d="M306.096 150.472C306.096 150.472 306.843 154.06 305.652 156.597C304.461 159.135 302.508 158.839 302.959 159.29C303.41 159.741 306.244 162.278 308.936 160.932C311.629 159.586 312.545 154.194 312.545 151.952" stroke="#263238" stroke-linecap="round" stroke-linejoin="round"/>
<path d="M322.089 183.783L308.936 183.635L288.496 189.486C290.131 190.374 293.881 192.876 296.524 194.673C296.658 194.391 300.387 195.012 300.753 195.012L320.891 194.173C320.891 194.173 326.17 189.133 322.089 183.783Z" fill="#263238"/>
<path d="M319.502 221.162V202.209H322.174V199.671H315.28V202.209H317.951V220.909L305.003 224.278V225.265H306.406L317.951 223.094V225.265H319.502V223.277L330.054 225.265H331.464V224.278L319.502 221.162Z" fill="#263238"/>
<path d="M312.038 199.812H332.591L334.579 196.542C335.316 195.33 335.76 193.963 335.875 192.55C335.99 191.136 335.773 189.715 335.242 188.401L333.994 185.313" stroke="#263238" stroke-width="2" stroke-linecap="round" stroke-linejoin="round"/>
<path d="M327.805 193.757H306.272C305.338 193.757 304.58 194.515 304.58 195.449V197.416C304.58 198.35 305.338 199.107 306.272 199.107H327.805C328.74 199.107 329.497 198.35 329.497 197.416V195.449C329.497 194.515 328.74 193.757 327.805 193.757Z" fill="#B5B5B5" stroke="#263238" stroke-linecap="round" stroke-linejoin="round"/>
<path d="M333.595 174.02L331.369 173.728C330.752 173.647 330.187 174.081 330.106 174.698L328.075 190.161C327.994 190.778 328.429 191.343 329.045 191.424L331.271 191.716C331.888 191.797 332.453 191.363 332.534 190.746L334.565 175.283C334.646 174.666 334.212 174.101 333.595 174.02Z" fill="#B5B5B5" stroke="#263238" stroke-width="0.998499" stroke-linecap="round" stroke-linejoin="round"/>
<path d="M255.142 175.375L252.879 163.223H251.723L253.986 175.375H249.517V176.207H254.141H255.297L255.142 175.375Z" fill="white" stroke="#263238" stroke-width="0.75" stroke-linecap="round" stroke-linejoin="round"/>
<path d="M248.495 170.702L249.757 170.941L251.9 154.243L250.638 153.997L248.495 170.702Z" fill="white" stroke="#263238" stroke-width="0.75" stroke-linecap="round" stroke-linejoin="round"/>
<path d="M251.723 155.118L252.879 157.042L251.082 170.159L249.757 170.942L251.723 155.118Z" fill="white" stroke="#263238" stroke-width="0.75" stroke-linecap="round" stroke-linejoin="round"/>
<path d="M246.627 175.516H235.885V176.136H246.627V175.516Z" fill="white" stroke="#263238" stroke-width="0.75" stroke-linecap="round" stroke-linejoin="round"/>
<path d="M268.908 175.375L271.177 163.223H272.333L270.071 175.375H274.54V176.207H269.916H268.76L268.908 175.375Z" fill="white" stroke="#263238" stroke-width="0.75" stroke-linecap="round" stroke-linejoin="round"/>
<path d="M275.562 170.702L274.3 170.941L272.157 154.243L273.419 153.997L275.562 170.702Z" fill="white" stroke="#263238" stroke-width="0.75" stroke-linecap="round" stroke-linejoin="round"/>
<path d="M272.333 155.118L271.177 157.042L272.975 170.159L274.3 170.942L272.333 155.118Z" fill="white" stroke="#263238" stroke-width="0.75" stroke-linecap="round" stroke-linejoin="round"/>
<path d="M277.429 176.136H288.171V175.516H277.429V176.136Z" fill="white" stroke="#263238" stroke-width="0.75" stroke-linecap="round" stroke-linejoin="round"/>
<path d="M299.054 178.786H231.177V226.561H299.054V178.786Z" fill="white" stroke="#263238" stroke-linecap="round" stroke-linejoin="round"/>
<path d="M260.576 193.92H227.702V226.569H260.576V193.92Z" fill="white" stroke="#263238" stroke-linecap="round" stroke-linejoin="round"/>
<path d="M303.403 193.92H270.529V226.569H303.403V193.92Z" fill="white" stroke="#263238" stroke-linecap="round" stroke-linejoin="round"/>
<path d="M300.358 175.883H229.873V179.012H300.358V175.883Z" fill="white" stroke="#263238" stroke-linecap="round" stroke-linejoin="round"/>
<path d="M115.511 173.605H101.639C100.082 173.605 98.8196 174.867 98.8196 176.424V188.562C98.8196 190.119 100.082 191.381 101.639 191.381H115.511C117.068 191.381 118.33 190.119 118.33 188.562V176.424C118.33 174.867 117.068 173.605 115.511 173.605Z" fill="#B5B5B5" stroke="#263238" stroke-linecap="round" stroke-linejoin="round"/>
<path d="M110.464 148.069C110.464 148.069 113.283 146.017 115.51 148.386C117.738 150.754 116.138 152.164 115.983 154.215C115.828 156.266 119.768 157.366 118.978 160.199C118.189 163.033 115.193 163.357 115.355 164.611C115.518 165.866 116.927 166.021 115.193 167.431C113.459 168.841 109.364 168.693 107.313 166.021C105.262 163.35 108.102 161.137 108.723 158.613C109.343 156.09 107.313 153.256 107.144 151.205C106.975 149.154 110.464 148.069 110.464 148.069Z" fill="#263238" stroke="#263238" stroke-linecap="round" stroke-linejoin="round"/>
<path d="M116.927 182.014L115.109 165.372C115.109 165.372 106.531 162.25 104.007 162.25C103.373 162.25 95.5984 165.372 95.5984 165.372L92.1305 175.487L92.2574 175.656C92.5399 176.024 92.8938 176.331 93.2979 176.558C93.7019 176.785 94.1478 176.929 94.6087 176.979C95.0695 177.03 95.5359 176.987 95.9797 176.853C96.4235 176.719 96.8357 176.496 97.1913 176.199L97.5438 175.91L99.6231 182.141L111.422 181.915L112.783 182.014H116.927Z" fill="white" stroke="#263238" stroke-linecap="round" stroke-linejoin="round"/>
<path d="M97.3323 175.558L97.7059 168.869" stroke="#263238" stroke-linecap="round" stroke-linejoin="round"/>
<path d="M112.071 180.759L111.57 169.503" stroke="#263238" stroke-linecap="round" stroke-linejoin="round"/>
<path d="M104.797 159.572C104.797 159.572 102.273 160.2 101.639 161.306C101.005 162.413 99.75 168.242 99.75 168.242L105.269 165.874L109.681 169.504C109.681 169.504 110.781 164.457 109.992 162.406C109.202 160.355 106.369 158.931 104.797 159.572Z" fill="white" stroke="#263238" stroke-linecap="round" stroke-linejoin="round"/>
<path d="M104.162 158.31C104.162 158.31 103.535 168.397 104.635 167.769C105.734 167.142 108.737 158.606 108.737 158.606L104.162 158.31Z" fill="white" stroke="#263238" stroke-linecap="round" stroke-linejoin="round"/>
<path d="M101.202 152.34C101.202 152.34 99.6865 150.93 99.4328 153.01C99.179 155.089 101.547 155.54 101.547 155.54L101.202 152.34Z" fill="white" stroke="#263238" stroke-linecap="round" stroke-linejoin="round"/>
<path d="M110.774 152.34C110.774 152.34 112.289 150.93 112.543 153.01C112.797 155.089 110.428 155.54 110.428 155.54L110.774 152.34Z" fill="white" stroke="#263238" stroke-linecap="round" stroke-linejoin="round"/>
<path d="M111.225 152.065C111.225 155.589 108.927 160.044 106.094 160.044C103.26 160.044 100.962 155.603 100.962 152.065C100.962 148.526 103.26 145.644 106.094 145.644C108.927 145.644 111.225 148.519 111.225 152.065Z" fill="white" stroke="#263238" stroke-linecap="round" stroke-linejoin="round"/>
<path d="M109.879 147.751C109.55 148.18 109.353 148.695 109.313 149.233C109.273 149.772 109.391 150.31 109.653 150.782C109.791 151.147 109.999 151.48 110.266 151.763C110.534 152.047 110.855 152.274 111.211 152.432C111.211 152.312 111.211 152.185 111.211 152.065C111.232 150.523 110.766 149.013 109.879 147.751Z" fill="#263238" stroke="#263238" stroke-linecap="round" stroke-linejoin="round"/>
<path d="M109.865 147.723C109.446 147.102 108.886 146.589 108.23 146.228C107.575 145.866 106.842 145.666 106.094 145.644C103.274 145.644 100.962 148.519 100.962 152.065C103.956 151.343 106.775 150.027 109.251 148.195C109.456 148.047 109.66 147.885 109.865 147.723Z" fill="#263238" stroke="#263238" stroke-linecap="round" stroke-linejoin="round"/>
<path d="M94.2944 172.09C94.2944 172.09 91.6935 171.441 90.608 172.308C89.8714 173.018 89.3466 173.919 89.0926 174.909H93.2089L94.9429 174.261C94.9429 174.261 95.1614 175.339 96.4654 174.472C97.7693 173.605 94.2944 172.09 94.2944 172.09Z" fill="white" stroke="#263238" stroke-linecap="round" stroke-linejoin="round"/>
<path d="M106.178 222.226V203.266H108.85V199.396H101.949V203.266H104.628V221.972L91.6794 225.342V226.328H93.082L104.628 224.158V226.328H106.178V224.341L116.73 226.328H118.14V225.342L106.178 222.226Z" fill="#263238"/>
<path d="M115.595 194.822H94.0618C93.1276 194.822 92.3702 195.58 92.3702 196.514V198.48C92.3702 199.415 93.1276 200.172 94.0618 200.172H115.595C116.529 200.172 117.287 199.415 117.287 198.48V196.514C117.287 195.58 116.529 194.822 115.595 194.822Z" fill="#B5B5B5" stroke="#263238" stroke-linecap="round" stroke-linejoin="round"/>
<path d="M99.5949 182.141C99.5949 182.141 97.2619 187.956 95.3658 188.252C86.9076 189.598 84.4617 193.271 84.4617 193.271C84.2156 194.16 84.2956 195.107 84.6873 195.942C85.3921 197.049 93.364 221.091 93.364 221.091L88.9164 226.427H90.6926C90.6926 226.427 94.2592 225.764 94.9217 224.651C95.5843 223.537 96.4795 222.649 96.705 221.754C96.9306 220.859 97.3746 220.64 96.4795 219.752C95.9885 219.24 95.3783 218.857 94.7032 218.638L92.3702 196.513L100.934 220.196C100.934 220.196 104.31 225.553 104.628 226.328C104.945 227.104 107.609 225.983 106.037 223.093C105.29 221.554 104.229 220.187 102.922 219.082L99.1368 195.717L112.494 194.828C113.109 194.581 113.632 194.148 113.991 193.59C114.35 193.032 114.526 192.376 114.496 191.713C114.496 189.26 111.38 181.916 111.38 181.916L99.5949 182.141Z" fill="#263238" stroke="#263238" stroke-linecap="round" stroke-linejoin="round"/>
<path d="M112.071 180.781L102.097 186.849L97.9808 187.505L95.8169 189.239C95.8169 189.239 100.582 189.845 101.886 189.408C102.604 189.191 103.267 188.824 103.831 188.33L114.89 184.425C114.89 184.425 117.054 182.472 116.843 181.387C116.631 180.301 112.071 180.111 112.071 180.781Z" fill="white" stroke="#263238" stroke-linecap="round" stroke-linejoin="round"/>
<path d="M84.6872 195.942C85.3921 197.049 92.8283 218.772 92.8283 218.772L91.4186 224.291L88.9375 226.406H90.7137C90.7137 226.406 94.2803 225.743 94.9429 224.63C95.6054 223.516 96.5006 222.628 96.7261 221.733C96.9517 220.838 97.3958 220.619 96.5006 219.731C96.0097 219.219 95.3994 218.836 94.7244 218.617L92.3913 196.492L100.955 220.175C100.955 220.175 104.332 225.532 104.649 226.307C104.966 227.083 107.63 225.962 106.058 223.072C105.311 221.532 104.25 220.166 102.943 219.061L99.1579 195.695L99.7006 195.66C99.7006 195.66 99.1438 193.433 98.4953 193.25C88.3948 190.381 84.4687 193.25 84.4687 193.25C84.2151 194.144 84.2927 195.1 84.6872 195.942Z" fill="white" stroke="#263238" stroke-linecap="round" stroke-linejoin="round"/>
<path d="M92.3701 196.513C92.3701 196.513 90.6715 193.088 90.8054 192.418L92.3701 196.513Z" fill="white"/>
<path d="M92.3701 196.513C92.3701 196.513 90.6715 193.088 90.8054 192.418" stroke="#263238" stroke-linecap="round" stroke-linejoin="round"/>
<path d="M155.229 185.637L138.313 190.621C138.108 190.68 137.92 190.785 137.761 190.928C137.603 191.071 137.48 191.247 137.399 191.445C137.319 191.642 137.285 191.855 137.299 192.068C137.313 192.28 137.375 192.487 137.481 192.672L151.169 221.218L145.453 226.597L151.599 225.285L157.118 223.037L156.3 219.548L146.355 195.541C146.306 195.411 146.289 195.271 146.306 195.134C146.322 194.996 146.373 194.865 146.452 194.751C146.531 194.637 146.637 194.544 146.76 194.48C146.883 194.416 147.02 194.384 147.158 194.385H168.05C168.05 194.385 172.279 190.445 168.191 185.095L155.229 185.637Z" fill="#263238" stroke="#263238" stroke-linecap="round" stroke-linejoin="round"/>
<path d="M155.363 163.371L144.283 169.883L141.414 172.851L143.211 174.162L154.397 172.583L155.363 163.371Z" fill="white" stroke="#263238" stroke-width="0.75" stroke-linecap="round" stroke-linejoin="round"/>
<path d="M146.087 162.772C146.087 162.772 140.265 170.864 140.251 171.625C140.237 172.386 141.661 173.577 142.577 174.078C143.493 174.578 145.241 173.239 145.241 173.239L147.969 163.907L146.087 162.772Z" fill="white" stroke="#263238" stroke-width="0.75" stroke-linecap="round" stroke-linejoin="round"/>
<path d="M153.573 164.097L152.769 183.079C152.744 183.723 152.975 184.351 153.41 184.827C153.64 185.082 153.92 185.286 154.234 185.425C154.547 185.565 154.886 185.637 155.229 185.637H166.901C167.377 185.636 167.841 185.496 168.239 185.236C168.637 184.976 168.951 184.606 169.143 184.171L169.291 183.854C169.505 183.366 169.557 182.823 169.439 182.303C168.53 178.413 164.582 163.463 163.708 161.863C162.722 160.03 159.345 158.761 159.345 158.761L153.573 164.097Z" fill="white" stroke="#263238" stroke-linecap="round" stroke-linejoin="round"/>
<path d="M150.274 159.614L150.408 158.021L149.245 157.753L148.702 158.768L146.905 159.234L146.045 163.054L148.032 164.005L151.134 160.672L150.274 159.614Z" fill="white" stroke="#263238" stroke-width="0.75" stroke-linecap="round" stroke-linejoin="round"/>
<path d="M150.274 159.635L147.743 159.452L147.602 160.157L149.012 160.544C149.012 160.544 147.927 161.284 147.821 161.7" fill="white"/>
<path d="M150.274 159.635L147.743 159.452L147.602 160.157L149.012 160.544C149.012 160.544 147.927 161.284 147.821 161.7" stroke="#263238" stroke-width="0.75" stroke-linecap="round" stroke-linejoin="round"/>
<path d="M150.64 158.325L152.889 159.325L154.517 162.85L159.021 158.473L157.773 155.597C157.773 155.597 159.395 153.221 159.021 151.093C158.648 148.964 154.644 146.709 152.515 148.71C150.387 150.712 150.64 158.325 150.64 158.325Z" fill="white" stroke="#263238" stroke-linecap="round" stroke-linejoin="round"/>
<path d="M150.14 148.315C150.14 148.315 149.139 147.068 149.139 146.201C149.139 145.334 151.141 144.326 152.142 144.326C153.143 144.326 157.52 144.579 159.021 145.954C159.794 146.727 160.36 147.682 160.667 148.732C160.974 149.782 161.011 150.891 160.776 151.959C160.276 154.074 158.774 155.963 157.252 156.09C155.729 156.217 154.75 154.461 154.496 153.834C153.687 152.268 152.766 150.763 151.74 149.33C151.311 148.85 150.757 148.498 150.14 148.315Z" fill="#263238" stroke="#263238" stroke-linecap="round" stroke-linejoin="round"/>
<path d="M150.387 147.441L149.259 150.818V151.699L147.61 153.292L148.857 154.793L148.73 158.049L151.55 158.254C152.217 158.302 152.883 158.135 153.449 157.778C154.015 157.42 154.451 156.89 154.693 156.266L155.356 154.546C155.703 154.407 155.998 154.164 156.2 153.849C156.403 153.534 156.502 153.165 156.484 152.791C156.484 151.381 156.61 150.916 155.856 150.916C155.308 150.935 154.764 151.018 154.235 151.163L153.481 150.789L153.608 149.542L152.48 148.661L152.353 147.413L150.387 147.441Z" fill="white" stroke="#263238" stroke-linecap="round" stroke-linejoin="round"/>
<path d="M158.64 156.64L152.029 163.111L153.291 166.635L160.332 158.748L158.64 156.64Z" fill="white" stroke="#263238" stroke-linecap="round" stroke-linejoin="round"/>
<path d="M158.64 162.271L153.298 172.964L140.061 173.246C140.061 173.246 134.852 172.118 134.013 171.977C133.174 171.836 130.771 174.655 130.771 174.655H139.229L155.694 178.454L164.152 167.614" fill="white"/>
<path d="M158.64 162.271L153.298 172.964L140.061 173.246C140.061 173.246 134.852 172.118 134.013 171.977C133.174 171.836 130.771 174.655 130.771 174.655H139.229L155.694 178.454L164.152 167.614" stroke="#263238" stroke-linecap="round" stroke-linejoin="round"/>
<path d="M140.046 174.846L140.35 173.239H140.061C140.061 173.239 134.852 172.111 134.013 171.97C133.174 171.829 130.771 174.648 130.771 174.648H139.229L140.046 174.846Z" fill="white" stroke="#263238" stroke-linecap="round" stroke-linejoin="round"/>
<path d="M161.46 221.345V202.385H164.131V199.854H157.238V202.385H159.909V221.085L146.961 224.461V225.448H148.371L159.909 223.27V225.448H161.46V223.46L172.019 225.448H173.421V224.461L161.46 221.345Z" fill="#263238"/>
<path d="M153.995 199.988H174.549L176.537 196.717C177.274 195.506 177.718 194.139 177.833 192.725C177.948 191.312 177.731 189.891 177.199 188.576L175.959 185.496" stroke="#263238" stroke-width="2" stroke-linecap="round" stroke-linejoin="round"/>
<path d="M169.763 193.941H148.23C147.296 193.941 146.538 194.698 146.538 195.633V197.599C146.538 198.533 147.296 199.291 148.23 199.291H169.763C170.697 199.291 171.455 198.533 171.455 197.599V195.633C171.455 194.698 170.697 193.941 169.763 193.941Z" fill="#B5B5B5" stroke="#263238" stroke-linecap="round" stroke-linejoin="round"/>
<path d="M176.398 174.026L174.168 173.737C173.55 173.657 172.985 174.093 172.904 174.71L170.895 190.2C170.815 190.818 171.251 191.383 171.869 191.463L174.099 191.753C174.716 191.833 175.282 191.397 175.362 190.779L177.371 175.29C177.451 174.672 177.015 174.106 176.398 174.026Z" fill="#B5B5B5" stroke="#263238" stroke-linecap="round" stroke-linejoin="round"/>
<path d="M128.48 174.676H122.333L119.007 165.069H125.146L128.48 174.676Z" fill="white" stroke="#263238" stroke-width="0.75" stroke-linecap="round" stroke-linejoin="round"/>
<path d="M137.932 173.732H122.333V174.677H137.932V173.732Z" fill="white" stroke="#263238" stroke-width="0.75" stroke-linecap="round" stroke-linejoin="round"/>
<path d="M137.932 173.732H130.989V174.677H137.932V173.732Z" fill="white" stroke="#263238" stroke-width="0.75" stroke-linecap="round" stroke-linejoin="round"/>
<path d="M93.2371 165H76.9479V173.697H93.2371V165Z" fill="white" stroke="#263238" stroke-width="0.75" stroke-linecap="round" stroke-linejoin="round"/>
<path d="M102.661 173.817H76.9479V174.677H102.661V173.817Z" fill="white" stroke="#263238" stroke-width="0.75" stroke-linecap="round" stroke-linejoin="round"/>
<path d="M102.661 173.817H93.1103V174.677H102.661V173.817Z" fill="white" stroke="#263238" stroke-width="0.75" stroke-linecap="round" stroke-linejoin="round"/>
<path d="M143.648 226.561H145.227L146.017 179.878H142.859L143.648 226.561Z" fill="white" stroke="#263238" stroke-linecap="round" stroke-linejoin="round"/>
<path d="M70.6888 226.561H72.2677L73.0501 179.878H69.8994L70.6888 226.561Z" fill="white" stroke="#263238" stroke-linecap="round" stroke-linejoin="round"/>
<path d="M148.068 175.783H67.8554V180.985H148.068V175.783Z" fill="white" stroke="#263238" stroke-linecap="round" stroke-linejoin="round"/>
<path d="M149.442 174.508H66.2765V176.418H149.442V174.508Z" fill="#263238" stroke="#263238" stroke-linecap="round" stroke-linejoin="round"/>
<path d="M51.2772 139.533L42.7203 143.1L46.9987 166.825H64.3029L65.7267 144.171L57.9874 139.611L51.2772 139.533Z" fill="white" stroke="#263238" stroke-linecap="round" stroke-linejoin="round"/>
<path d="M53.1732 144.474L54.7309 147.371L52.7292 159.177L54.9565 163.639L58.9671 158.289L56.0702 147.371L57.1838 144.699L54.9565 141.358L53.1732 144.474Z" fill="#E25F00" stroke="#263238" stroke-linecap="round" stroke-linejoin="round"/>
<path d="M52.8772 137.919C52.8772 137.919 51.6014 138.06 51.3124 138.772C51.0234 139.484 51.4604 146.314 51.4604 146.314L55.1539 144.199L58.6781 146.314C58.6781 146.314 58.2482 141.76 57.2684 139.624C56.2887 137.489 52.8772 137.919 52.8772 137.919Z" fill="white" stroke="#263238" stroke-linecap="round" stroke-linejoin="round"/>
<path d="M52.3486 136.318C52.3486 136.318 52.1724 138.102 52.1724 139.173C52.1724 140.244 54.4913 144.882 55.2032 144.523C55.9151 144.163 57.6984 141.309 57.6984 141.309L58.5936 140.237L60.3769 138.63C60.3769 138.63 56.2112 133.929 55.027 133.64C53.8429 133.351 52.3486 136.318 52.3486 136.318Z" fill="white" stroke="#263238" stroke-linecap="round" stroke-linejoin="round"/>
<path d="M60.2077 128.854C60.2077 128.854 61.2086 127.6 61.2086 126.74C61.2086 125.88 59.2068 124.865 58.2059 124.865C57.2051 124.865 52.8279 125.111 51.3266 126.493C50.5523 127.265 49.9856 128.221 49.6788 129.271C49.372 130.32 49.3351 131.43 49.5715 132.498C50.0719 134.613 51.5733 136.502 53.0958 136.629C54.6182 136.756 55.598 135.001 55.8517 134.373C56.6546 132.805 57.5734 131.3 58.6007 129.869C59.0304 129.387 59.5873 129.035 60.2077 128.854Z" fill="#263238" stroke="#263238" stroke-linecap="round" stroke-linejoin="round"/>
<path d="M59.9681 127.98L61.0958 131.356V132.23L62.724 133.858L61.4694 135.36L61.5963 138.616L58.7769 138.821C58.109 138.87 57.4428 138.704 56.8768 138.346C56.3107 137.988 55.8748 137.458 55.6332 136.833L54.9284 135.113C54.5936 134.963 54.3125 134.715 54.1223 134.402C53.9322 134.088 53.8421 133.724 53.864 133.358C53.864 131.984 53.7371 131.483 54.4843 131.483C55.0348 131.502 55.5812 131.585 56.1125 131.73L56.8667 131.356L56.7398 130.102L57.8676 129.228L57.9874 127.98H59.9681Z" fill="white" stroke="#263238" stroke-linecap="round" stroke-linejoin="round"/>
<path d="M46.9987 166.825L43.7917 220.154H47.182L55.2032 179.484H56.8103L64.1196 220.154L67.51 219.971L64.3029 166.825H46.9987Z" fill="#263238" stroke="#263238" stroke-linecap="round" stroke-linejoin="round"/>
<path d="M42.7202 143.099L38.914 156.491L29.9765 149.767L28.2426 152.149L39.781 163.427L45.4198 157.57C45.4198 157.57 43.4956 146.595 42.7202 143.099Z" fill="white" stroke="#263238" stroke-linecap="round" stroke-linejoin="round"/>
<path d="M64.4368 143.085L56.8667 156.992L43.9256 163.336L44.5317 165.556L61.6738 162.152L67.0941 153.292C67.0941 153.292 69.3708 143.748 64.4368 143.085Z" fill="white" stroke="#263238" stroke-linecap="round" stroke-linejoin="round"/>
<path d="M29.9765 149.767L28.8981 146.948L26.0787 145.651L24.9932 146.081L26.2901 146.948L23.6892 146.081L22.1738 144.565L21.0883 144.777L23.0408 149.119L28.2426 152.15L29.9765 149.767Z" fill="white" stroke="#263238" stroke-linecap="round" stroke-linejoin="round"/>
<path d="M43.9255 163.336L40.4647 162.237L37.8215 163.865L37.5889 165.007L39.0268 164.401L36.87 166.092L34.7625 166.522L34.3466 167.544L39.0409 168.313L44.4401 165.648L43.9255 163.336Z" fill="white" stroke="#263238" stroke-linecap="round" stroke-linejoin="round"/>
<path d="M43.7916 220.154L41.4092 223.502L37.9836 226.561H47.1749L47.182 220.154H43.7916Z" fill="#263238" stroke="#263238" stroke-linecap="round" stroke-linejoin="round"/>
<path d="M67.51 219.971L69.8924 223.502L73.318 226.561H64.1267L64.1196 220.154L67.51 219.971Z" fill="#263238" stroke="#263238" stroke-linecap="round" stroke-linejoin="round"/>
<path d="M21.2222 125.717H18.0222V186.969H21.2222V125.717Z" fill="#263238" stroke="#263238" stroke-linecap="round" stroke-linejoin="round"/>
<path d="M23.6399 125.717H20.4398V186.969H23.6399V125.717Z" fill="white" stroke="#263238" stroke-linecap="round" stroke-linejoin="round"/>
<path d="M25.0284 186.969H16.1684V189.387H25.0284V186.969Z" fill="#263238" stroke="#263238" stroke-linecap="round" stroke-linejoin="round"/>
<path d="M18.0504 160.114L4.08725 226.18H6.76569L19.6575 163.871L18.0504 160.114Z" fill="#263238" stroke="#263238" stroke-linecap="round" stroke-linejoin="round"/>
<path d="M20.602 188.175L27.9818 225.638H30.6743L23.1535 188.309L20.602 188.175Z" fill="#263238" stroke="#263238" stroke-linecap="round" stroke-linejoin="round"/>
<path d="M92.4688 264.681L89.2688 266.563V282.563H100.469V266.281L96.7966 264.779L92.4688 264.681Z" fill="white" stroke="#263238" stroke-linecap="round" stroke-linejoin="round"/>
<path d="M91.623 265.364V282.774H78.7312L82.3048 269.501C82.3048 269.501 90.8688 265.152 91.623 265.364Z" fill="#E25F00" stroke="#263238" stroke-linecap="round" stroke-linejoin="round"/>
<path d="M85.4062 282.654V274.936" stroke="#263238" stroke-linecap="round" stroke-linejoin="round"/>
<path d="M98.3967 265.364V282.774H111.288L107.708 269.501C107.708 269.501 99.1509 265.152 98.3967 265.364Z" fill="#E25F00" stroke="#263238" stroke-linecap="round" stroke-linejoin="round"/>
<path d="M104.606 282.654V274.936" stroke="#263238" stroke-linecap="round" stroke-linejoin="round"/>
<path d="M93.3358 262.988C93.3358 262.988 91.8274 263.179 91.4538 264.116C91.0803 265.054 89.6635 272.87 89.6635 272.87L93.2442 271.08L94.9358 272.208L97.0081 270.89L100.483 273.906C100.483 273.906 99.6372 264.962 97.9455 263.179C96.2539 261.395 93.3358 262.988 93.3358 262.988Z" fill="white" stroke="#263238" stroke-linecap="round" stroke-linejoin="round"/>
<path d="M92.9341 262.614C92.9748 264.942 93.1324 267.266 93.4063 269.578C93.7869 271.834 94.9147 272.489 95.5702 271.834C96.2257 271.178 96.5147 269.388 96.5147 269.388L97.4522 262.706L92.9341 262.614Z" fill="white" stroke="#263238" stroke-linecap="round" stroke-linejoin="round"/>
<path d="M95.2883 253.205C97.7835 253.205 99.8064 251.182 99.8064 248.687C99.8064 246.192 97.7835 244.169 95.2883 244.169C92.793 244.169 90.7701 246.192 90.7701 248.687C90.7701 251.182 92.793 253.205 95.2883 253.205Z" fill="#263238" stroke="#263238" stroke-linecap="round" stroke-linejoin="round"/>
<path d="M89.9243 255.27C89.9243 255.27 88.2327 253.67 87.9507 256.025C87.6688 258.379 90.3049 258.844 90.3049 258.844L89.9243 255.27Z" fill="white" stroke="#263238" stroke-linecap="round" stroke-linejoin="round"/>
<path d="M100.61 255.27C100.61 255.27 102.309 253.67 102.591 256.025C102.872 258.379 100.236 258.844 100.236 258.844L100.61 255.27Z" fill="white" stroke="#263238" stroke-linecap="round" stroke-linejoin="round"/>
<path d="M101.089 254.967C101.089 258.921 98.5235 263.883 95.3588 263.883C92.194 263.883 89.6212 258.949 89.6212 254.967C89.6212 250.984 92.1869 247.798 95.3588 247.798C98.5306 247.798 101.089 251.005 101.089 254.967Z" fill="white" stroke="#263238" stroke-linecap="round" stroke-linejoin="round"/>
<path d="M99.6161 250.146C99.248 250.623 99.0279 251.198 98.9828 251.799C98.9377 252.4 99.0696 253.002 99.3623 253.529C99.6752 254.35 100.298 255.016 101.096 255.383C101.096 255.242 101.096 255.101 101.096 254.967C101.122 253.244 100.604 251.557 99.6161 250.146Z" fill="#263238" stroke="#263238" stroke-linecap="round" stroke-linejoin="round"/>
<path d="M99.6019 250.124C99.1319 249.429 98.5032 248.856 97.7679 248.451C97.0326 248.047 96.2117 247.823 95.3728 247.798C92.201 247.798 89.6353 251.005 89.6353 254.967C92.9836 254.163 96.1358 252.694 98.9041 250.646L99.6019 250.124Z" fill="#263238" stroke="#263238" stroke-linecap="round" stroke-linejoin="round"/>
<path d="M74.5585 262.608H50.4384V279.271H74.5585V262.608Z" fill="#263238" stroke="#263238" stroke-linecap="round" stroke-linejoin="round"/>
<path d="M70.5902 267.048H53.4552V279.263H70.5902V267.048Z" fill="#474747" stroke="#263238" stroke-linecap="round" stroke-linejoin="round"/>
<path d="M63.6121 274.667H60.2782V283.076H63.6121V274.667Z" fill="#B5B5B5" stroke="#263238" stroke-linecap="round" stroke-linejoin="round"/>
<path d="M135.599 283.887H44.0384V331.958H135.599V283.887Z" fill="#E25F00" stroke="#263238" stroke-linecap="round" stroke-linejoin="round"/>
<path d="M131.356 277.389H106.728V283.387H131.356V277.389Z" fill="white" stroke="#263238" stroke-linecap="round" stroke-linejoin="round"/>
<path d="M137.735 282.689H42.8965V284.987H137.735V282.689Z" fill="#263238" stroke="#263238" stroke-linecap="round" stroke-linejoin="round"/>
<path d="M96.9235 295.539H83.7075C81.7105 295.539 80.0916 297.157 80.0916 299.154V312.37C80.0916 314.367 81.7105 315.986 83.7075 315.986H96.9235C98.9205 315.986 100.539 314.367 100.539 312.37V299.154C100.539 297.157 98.9205 295.539 96.9235 295.539Z" fill="#263238"/>
<path d="M87.8569 293.759L78.3124 303.304C76.9554 304.661 76.9554 306.861 78.3124 308.218L87.8569 317.762C89.2139 319.119 91.4141 319.119 92.7712 317.762L102.316 308.218C103.673 306.861 103.673 304.661 102.316 303.304L92.7712 293.759C91.4141 292.402 89.2139 292.402 87.8569 293.759Z" fill="white"/>
<path d="M90.312 312.216C93.8778 312.216 96.7685 309.325 96.7685 305.759C96.7685 302.193 93.8778 299.303 90.312 299.303C86.7462 299.303 83.8556 302.193 83.8556 305.759C83.8556 309.325 86.7462 312.216 90.312 312.216Z" fill="#263238"/>
<path d="M171.419 279.305H261.641C262.24 279.313 262.813 279.554 263.238 279.978C263.662 280.402 263.903 280.975 263.91 281.575V331.937H169.122V281.575C169.127 280.97 169.372 280.391 169.803 279.966C170.233 279.541 170.814 279.303 171.419 279.305Z" fill="#7D7D7D" stroke="#263238" stroke-linecap="round" stroke-linejoin="round"/>
<path d="M171.419 305.469H261.641C262.25 305.469 262.835 305.711 263.266 306.142C263.696 306.573 263.939 307.158 263.939 307.767V331.965H169.122V307.767C169.121 307.465 169.18 307.166 169.295 306.887C169.41 306.607 169.579 306.354 169.793 306.14C170.006 305.927 170.26 305.757 170.539 305.642C170.818 305.527 171.117 305.468 171.419 305.469Z" fill="#7D7D7D" stroke="#263238" stroke-linecap="round" stroke-linejoin="round"/>
<path d="M168.938 312.334H263.91" stroke="#263238" stroke-linecap="round" stroke-linejoin="round"/>
<path d="M164.181 299.196H174.993C175.603 299.196 176.187 299.438 176.618 299.869C177.049 300.3 177.291 300.885 177.291 301.494V332H161.883V301.459C161.89 300.855 162.136 300.279 162.566 299.855C162.996 299.431 163.577 299.194 164.181 299.196Z" fill="#7D7D7D" stroke="#263238" stroke-linecap="round" stroke-linejoin="round"/>
<path d="M258.504 299.196H269.317C269.924 299.196 270.507 299.438 270.936 299.867C271.366 300.297 271.607 300.88 271.607 301.487V331.993H256.213V301.459C256.221 300.856 256.465 300.281 256.894 299.857C257.323 299.434 257.901 299.196 258.504 299.196Z" fill="#7D7D7D" stroke="#263238" stroke-linecap="round" stroke-linejoin="round"/>
<path d="M282.194 281.441C282.194 281.441 278.853 283.76 278.853 293.423V313.998H286.092V280.609L282.194 281.441Z" fill="#7D7D7D" stroke="#263238" stroke-linecap="round" stroke-linejoin="round"/>
<path d="M284.485 279.305H292.33C292.94 279.305 293.524 279.547 293.955 279.978C294.386 280.409 294.628 280.994 294.628 281.603V331.965H282.194V281.575C282.2 280.971 282.444 280.394 282.873 279.969C283.302 279.544 283.881 279.305 284.485 279.305Z" fill="#7D7D7D" stroke="#263238" stroke-linecap="round" stroke-linejoin="round"/>
<path d="M251.082 299.196H292.33C292.94 299.196 293.524 299.438 293.955 299.869C294.386 300.3 294.628 300.885 294.628 301.494V332H248.812V301.459C248.82 300.86 249.061 300.288 249.486 299.865C249.91 299.442 250.483 299.202 251.082 299.196Z" fill="#7D7D7D" stroke="#263238" stroke-linecap="round" stroke-linejoin="round"/>
<path d="M187.088 117.429H181.908V229.204H187.088V117.429Z" fill="#E25F00"/>
<path d="M338.625 226.019H1V232.362H338.625V226.019Z" fill="#E25F00"/>
<path d="M1.46521 331.965H338.505" stroke="#263238" stroke-linecap="round" stroke-linejoin="round"/>
<path d="M338.625 111.832H1V118.176H338.625V111.832Z" fill="#E25F00"/>
</svg>
