<svg width="413" height="387" viewBox="0 0 413 387" fill="none"
  xmlns="http://www.w3.org/2000/svg">
  <path d="M59.8046 108.489L61.5425 111.997L65.4258 112.566L62.6152 115.301L63.2803 119.163L59.8046 117.34L56.3396 119.163L57.0047 115.301L54.1941 112.566L58.0775 111.997L59.8046 108.489Z" fill="#EBEBEB"/>
  <path d="M407.002 273.94L408.739 277.459L412.623 278.028L409.812 280.752L410.477 284.625L407.002 282.801L403.537 284.625L404.202 280.752L401.391 278.028L405.274 277.459L407.002 273.94Z" fill="#F5F5F5"/>
  <path d="M338.238 375.949L339.976 379.457L343.849 380.025L341.038 382.761L341.703 386.622L338.238 384.799L334.773 386.622L335.427 382.761L332.628 380.025L336.5 379.457L338.238 375.949Z" fill="#F5F5F5"/>
  <path d="M180.908 46.1624L181.552 47.4712L183 47.6857C183.081 47.6963 183.157 47.7297 183.219 47.7819C183.282 47.8342 183.328 47.9032 183.353 47.9809C183.378 48.0585 183.38 48.1416 183.359 48.2204C183.338 48.2993 183.296 48.3705 183.236 48.4259L182.163 49.445L182.41 50.8825C182.422 50.9625 182.413 51.0445 182.382 51.1194C182.351 51.1942 182.3 51.2591 182.234 51.3068C182.169 51.3545 182.092 51.3832 182.011 51.3897C181.93 51.3963 181.849 51.3804 181.777 51.3438L180.489 50.6573L179.202 51.3438C179.13 51.3804 179.049 51.3963 178.968 51.3897C178.887 51.3832 178.81 51.3545 178.745 51.3068C178.679 51.2591 178.628 51.1942 178.597 51.1194C178.566 51.0445 178.557 50.9625 178.569 50.8825L178.805 49.445L177.733 48.4259C177.672 48.3698 177.63 48.2977 177.61 48.218C177.589 48.1384 177.592 48.0546 177.618 47.9766C177.644 47.8987 177.692 47.8298 177.756 47.7783C177.82 47.7267 177.898 47.6946 177.979 47.6857L179.417 47.4712L180.06 46.1624C180.086 46.0698 180.142 45.9882 180.218 45.9301C180.295 45.8719 180.388 45.8405 180.484 45.8405C180.58 45.8405 180.674 45.8719 180.75 45.9301C180.827 45.9882 180.882 46.0698 180.908 46.1624V46.1624Z" fill="#EBEBEB"/>
  <path d="M3.73176 359.246L4.37541 360.544L5.8129 360.758C5.89451 360.77 5.97132 360.804 6.03459 360.856C6.09785 360.909 6.14503 360.979 6.17074 361.057C6.19646 361.135 6.19968 361.219 6.18003 361.299C6.16039 361.379 6.11867 361.452 6.05963 361.509L4.98688 362.518L5.23361 363.955C5.24628 364.035 5.23661 364.117 5.20567 364.192C5.17473 364.267 5.12371 364.332 5.05825 364.379C4.99279 364.427 4.91542 364.456 4.83469 364.462C4.75395 364.469 4.67297 364.453 4.60069 364.417L3.31338 363.741L2.02608 364.417C1.95379 364.453 1.87282 364.469 1.79208 364.462C1.71134 364.456 1.63398 364.427 1.56851 364.379C1.50305 364.332 1.45204 364.267 1.42109 364.192C1.39015 364.117 1.38048 364.035 1.39315 363.955L1.63989 362.518L0.567133 361.509C0.50829 361.453 0.466422 361.381 0.446236 361.301C0.42605 361.222 0.428343 361.139 0.452853 361.061C0.477364 360.983 0.523122 360.913 0.584996 360.86C0.64687 360.806 0.722409 360.771 0.803136 360.758L2.24063 360.544L2.89501 359.246C2.92368 359.157 2.9796 359.08 3.05477 359.026C3.12993 358.971 3.22046 358.942 3.31338 358.942C3.4063 358.942 3.49684 358.971 3.572 359.026C3.64716 359.08 3.70309 359.157 3.73176 359.246V359.246Z" fill="#F5F5F5"/>
  <path d="M32.6639 32.3775L33.3076 33.6863L34.7558 33.8901C34.8365 33.903 34.912 33.9381 34.9739 33.9915C35.0358 34.045 35.0816 34.1146 35.1061 34.1926C35.1306 34.2706 35.1329 34.3538 35.1127 34.433C35.0925 34.5123 35.0506 34.5843 34.9918 34.641L33.919 35.7138L34.1658 37.1406C34.1829 37.2215 34.1763 37.3058 34.1466 37.3831C34.117 37.4604 34.0656 37.5274 33.9987 37.5762C33.9318 37.6249 33.8522 37.6533 33.7696 37.6579C33.6869 37.6624 33.6047 37.643 33.5328 37.6018L32.2455 36.926L30.9582 37.6018C30.8864 37.643 30.8042 37.6624 30.7215 37.6579C30.6388 37.6533 30.5593 37.6249 30.4924 37.5762C30.4255 37.5274 30.3741 37.4604 30.3445 37.3831C30.3148 37.3058 30.3082 37.2215 30.3253 37.1406L30.5613 35.7138L29.4886 34.641C29.4295 34.5836 29.3878 34.5107 29.3682 34.4307C29.3485 34.3507 29.3517 34.2668 29.3774 34.1885C29.4032 34.1103 29.4503 34.0408 29.5136 33.988C29.5769 33.9353 29.6537 33.9013 29.7353 33.8901L31.1728 33.6863L31.8593 32.3775C31.8938 32.2996 31.9502 32.2333 32.0216 32.1868C32.093 32.1403 32.1764 32.1155 32.2616 32.1155C32.3469 32.1155 32.4303 32.1403 32.5017 32.1868C32.5731 32.2333 32.6295 32.2996 32.6639 32.3775Z" fill="#EBEBEB"/>
  <path d="M30.9261 290.933C30.9282 291.215 30.8464 291.492 30.6909 291.728C30.5354 291.964 30.3133 292.149 30.0528 292.259C29.7923 292.368 29.5051 292.398 29.2276 292.344C28.9502 292.29 28.6949 292.155 28.4943 291.956C28.2937 291.757 28.1568 291.503 28.1008 291.226C28.0449 290.949 28.0725 290.661 28.1802 290.4C28.2879 290.139 28.4707 289.915 28.7056 289.758C28.9404 289.601 29.2167 289.517 29.4994 289.517C29.8759 289.517 30.2372 289.666 30.5044 289.931C30.7717 290.196 30.9233 290.556 30.9261 290.933V290.933Z" fill="#EBEBEB"/>
  <path d="M234.256 112.394C234.258 112.677 234.176 112.954 234.021 113.19C233.865 113.426 233.643 113.61 233.383 113.72C233.122 113.83 232.835 113.859 232.557 113.806C232.28 113.752 232.025 113.617 231.824 113.418C231.624 113.219 231.487 112.964 231.431 112.687C231.375 112.41 231.402 112.123 231.51 111.862C231.618 111.6 231.801 111.377 232.035 111.219C232.27 111.062 232.547 110.978 232.829 110.978C233.016 110.977 233.201 111.012 233.374 111.083C233.547 111.153 233.705 111.258 233.837 111.389C233.97 111.521 234.075 111.677 234.147 111.85C234.219 112.022 234.256 112.207 234.256 112.394V112.394Z" fill="#EBEBEB"/>
  <path d="M160.279 33.5575C160.279 33.8397 160.195 34.1156 160.038 34.3502C159.882 34.5848 159.659 34.7677 159.398 34.8757C159.137 34.9837 158.85 35.0119 158.574 34.9569C158.297 34.9018 158.043 34.766 157.843 34.5664C157.644 34.3669 157.508 34.1127 157.453 33.8359C157.398 33.5591 157.426 33.2723 157.534 33.0115C157.642 32.7508 157.825 32.528 158.059 32.3712C158.294 32.2145 158.57 32.1308 158.852 32.1308C159.23 32.1336 159.591 32.2848 159.858 32.5518C160.125 32.8187 160.276 33.18 160.279 33.5575V33.5575Z" fill="#F5F5F5"/>
  <path d="M162.538 381.284C166.776 380.284 169.401 376.037 168.401 371.799C167.401 367.561 163.154 364.936 158.916 365.936C154.678 366.937 152.053 371.183 153.053 375.421C154.053 379.66 158.3 382.284 162.538 381.284Z" fill="#F0F0F0"/>
  <path d="M158.015 368.997C156.4 368.994 154.826 369.505 153.521 370.456C152.854 371.986 152.69 373.687 153.053 375.316C153.416 376.944 154.287 378.415 155.54 379.517C156.793 380.618 158.364 381.293 160.025 381.444C161.687 381.595 163.353 381.215 164.784 380.358C164.784 380.358 164.784 380.358 164.784 380.358C165.418 379.186 165.736 377.869 165.708 376.538C165.68 375.206 165.307 373.904 164.624 372.76C163.942 371.616 162.974 370.668 161.816 370.011C160.657 369.353 159.348 369.007 158.015 369.008V368.997Z" fill="#E6E6E6"/>
  <path d="M96.9541 236.566H31.677V207.097L96.9541 129.494H128.193V208.771H144.381V236.566H128.193V260.681H96.9541V236.566ZM96.9541 208.771V168.178L62.4543 208.771H96.9541Z" fill="#4FD1C5"/>
  <path d="M155.548 195.662C155.548 171.138 159.961 153.974 168.786 144.169C177.611 134.364 191.06 129.465 209.132 129.473C217.807 129.473 224.934 130.545 230.512 132.691C235.58 134.517 240.22 137.361 244.147 141.048C247.457 144.208 250.261 147.859 252.461 151.872C254.637 156.062 256.277 160.509 257.342 165.109C259.767 174.937 260.977 185.024 260.946 195.147C260.946 218.547 256.988 235.672 249.071 246.521C241.154 257.37 227.519 262.798 208.167 262.805C197.31 262.805 188.539 261.075 181.852 257.613C175.111 254.095 169.434 248.84 165.407 242.391C162.296 237.642 159.875 231.145 158.144 222.899C156.347 213.933 155.477 204.806 155.548 195.662ZM191.099 195.747C191.099 212.196 192.547 223.414 195.444 229.4C198.34 235.386 202.549 238.393 208.07 238.422C209.822 238.441 211.561 238.113 213.185 237.455C214.809 236.798 216.286 235.825 217.532 234.592C220.206 232.039 222.173 228.005 223.432 222.491C224.691 216.977 225.32 208.395 225.32 196.745C225.32 179.624 223.868 168.113 220.964 162.213C218.061 156.313 213.706 153.366 207.898 153.374C201.977 153.374 197.686 156.381 195.025 162.395C192.365 168.41 191.056 179.527 191.099 195.747Z" fill="#4FD1C5"/>
  <path d="M337.316 236.566H272.038V207.097L337.316 129.494H368.554V208.771H384.796V236.566H368.554V260.681H337.316V236.566ZM337.316 208.771V168.178L302.826 208.771H337.316Z" fill="#4FD1C5"/>
  <g opacity="0.3">
    <path opacity="0.3" d="M154.153 84.213C154.153 84.6102 154.035 84.9985 153.815 85.3286C153.594 85.6587 153.28 85.9159 152.912 86.0674C152.545 86.2189 152.141 86.258 151.752 86.1797C151.363 86.1014 151.005 85.9093 150.725 85.6277C150.445 85.3461 150.255 84.9876 150.178 84.5978C150.102 84.2079 150.144 83.8042 150.297 83.4379C150.451 83.0715 150.709 82.7589 151.041 82.5398C151.372 82.3207 151.761 82.2048 152.158 82.207C152.421 82.207 152.681 82.2589 152.924 82.3599C153.167 82.4608 153.387 82.6087 153.573 82.7952C153.758 82.9816 153.905 83.2028 154.005 83.4461C154.104 83.6895 154.155 83.9501 154.153 84.213Z" fill="#4FD1C5"/>
    <path opacity="0.3" d="M16.8086 161.269C17.5907 161.269 18.2246 160.635 18.2246 159.853C18.2246 159.071 17.5907 158.437 16.8086 158.437C16.0266 158.437 15.3926 159.071 15.3926 159.853C15.3926 160.635 16.0266 161.269 16.8086 161.269Z" fill="#4FD1C5"/>
    <path opacity="0.3" d="M250.755 368.064C251.875 368.064 252.782 367.156 252.782 366.036C252.782 364.917 251.875 364.009 250.755 364.009C249.635 364.009 248.727 364.917 248.727 366.036C248.727 367.156 249.635 368.064 250.755 368.064Z" fill="#4FD1C5"/>
    <path opacity="0.3" d="M299.512 285.569C300.294 285.569 300.928 284.935 300.928 284.153C300.928 283.371 300.294 282.737 299.512 282.737C298.729 282.737 298.095 283.371 298.095 284.153C298.095 284.935 298.729 285.569 299.512 285.569Z" fill="#4FD1C5"/>
    <path opacity="0.3" d="M393.56 30.5753C393.56 30.8554 393.477 31.1291 393.321 31.362C393.166 31.5949 392.945 31.7764 392.686 31.8835C392.427 31.9907 392.142 32.0188 391.868 31.9641C391.593 31.9095 391.341 31.7746 391.143 31.5766C390.945 31.3785 390.81 31.1262 390.755 30.8515C390.7 30.5769 390.729 30.2921 390.836 30.0334C390.943 29.7747 391.124 29.5535 391.357 29.3979C391.59 29.2423 391.864 29.1593 392.144 29.1593C392.52 29.1593 392.88 29.3084 393.145 29.574C393.411 29.8396 393.56 30.1997 393.56 30.5753Z" fill="#4FD1C5"/>
    <path opacity="0.3" d="M123.848 2.01856C123.848 2.29862 123.765 2.5724 123.609 2.80527C123.454 3.03813 123.233 3.21963 122.974 3.32681C122.715 3.43398 122.43 3.46203 122.156 3.40739C121.881 3.35275 121.629 3.21788 121.431 3.01985C121.233 2.82181 121.098 2.5695 121.043 2.29482C120.989 2.02013 121.017 1.73541 121.124 1.47667C121.231 1.21792 121.412 0.996763 121.645 0.841166C121.878 0.68557 122.152 0.602524 122.432 0.602524C122.807 0.605331 123.165 0.755421 123.43 1.02037C123.695 1.28533 123.845 1.64387 123.848 2.01856Z" fill="#4FD1C5"/>
    <path opacity="0.3" d="M236.434 76.3175C237.216 76.3175 237.85 75.6836 237.85 74.9015C237.85 74.1195 237.216 73.4855 236.434 73.4855C235.652 73.4855 235.018 74.1195 235.018 74.9015C235.018 75.6836 235.652 76.3175 236.434 76.3175Z" fill="#4FD1C5"/>
  </g>
  <path d="M90.0348 76.3283C103.016 76.3283 113.539 65.8051 113.539 52.8242C113.539 39.8433 103.016 29.3202 90.0348 29.3202C77.0539 29.3202 66.5308 39.8433 66.5308 52.8242C66.5308 65.8051 77.0539 76.3283 90.0348 76.3283Z" fill="#4FD1C5"/>
  <path opacity="0.7" d="M90.0348 76.3283C103.016 76.3283 113.539 65.8051 113.539 52.8242C113.539 39.8433 103.016 29.3202 90.0348 29.3202C77.0539 29.3202 66.5308 39.8433 66.5308 52.8242C66.5308 65.8051 77.0539 76.3283 90.0348 76.3283Z" fill="white"/>
  <path opacity="0.2" d="M81.9355 35.0916C78.7345 35.0818 75.5655 35.728 72.624 36.9904C69.0088 40.9637 66.863 46.0552 66.5437 51.4176C66.2243 56.78 67.7507 62.0901 70.8688 66.4644C73.9869 70.8387 78.5087 74.0136 83.682 75.4608C88.8553 76.908 94.3681 76.5403 99.3034 74.4188C102.363 71.0467 104.378 66.8588 105.104 62.3635C105.829 57.8683 105.234 53.2591 103.39 49.0957C101.546 44.9323 98.5336 41.3937 94.7174 38.9097C90.9013 36.4256 86.446 35.103 81.8926 35.1023L81.9355 35.0916Z" fill="#4FD1C5"/>
  <path opacity="0.2" d="M79.5969 41.3028C79.5969 41.7272 79.4711 42.142 79.2353 42.4948C78.9996 42.8476 78.6645 43.1226 78.2725 43.285C77.8804 43.4474 77.449 43.4899 77.0328 43.4071C76.6167 43.3243 76.2344 43.12 75.9343 42.8199C75.6343 42.5199 75.4299 42.1376 75.3471 41.7214C75.2643 41.3052 75.3068 40.8738 75.4692 40.4818C75.6316 40.0897 75.9066 39.7547 76.2594 39.5189C76.6123 39.2832 77.0271 39.1573 77.4514 39.1573C78.0204 39.1573 78.5662 39.3834 78.9685 39.7857C79.3709 40.1881 79.5969 40.7338 79.5969 41.3028Z" fill="#4FD1C5"/>
  <path opacity="0.2" d="M104.871 39.1573C104.871 39.5817 104.745 39.9965 104.509 40.3493C104.274 40.7021 103.939 40.9771 103.547 41.1395C103.154 41.3019 102.723 41.3444 102.307 41.2616C101.891 41.1788 101.508 40.9745 101.208 40.6744C100.908 40.3744 100.704 39.9921 100.621 39.5759C100.538 39.1597 100.581 38.7283 100.743 38.3363C100.906 37.9442 101.181 37.6092 101.533 37.3734C101.886 37.1377 102.301 37.0118 102.725 37.0118C103.294 37.0118 103.84 37.2379 104.243 37.6402C104.645 38.0426 104.871 38.5883 104.871 39.1573Z" fill="#4FD1C5"/>
  <path opacity="0.2" d="M100.58 54.4763C100.58 55.1722 100.374 55.8525 99.987 56.4311C99.6004 57.0097 99.0508 57.4607 98.4079 57.7271C97.7649 57.9934 97.0575 58.063 96.3749 57.9273C95.6924 57.7915 95.0654 57.4564 94.5733 56.9643C94.0812 56.4722 93.7461 55.8453 93.6103 55.1627C93.4746 54.4802 93.5443 53.7727 93.8106 53.1297C94.0769 52.4868 94.5279 51.9373 95.1065 51.5506C95.6852 51.164 96.3654 50.9576 97.0614 50.9576C97.9946 50.9576 98.8895 51.3283 99.5494 51.9882C100.209 52.6481 100.58 53.5431 100.58 54.4763Z" fill="#4FD1C5"/>
  <path opacity="0.2" d="M89.4018 64.5065C89.4018 65.4358 89.1263 66.3443 88.61 67.117C88.0937 67.8897 87.3599 68.4919 86.5013 68.8475C85.6427 69.2031 84.698 69.2962 83.7865 69.1149C82.8751 68.9336 82.0378 68.4861 81.3807 67.829C80.7236 67.1719 80.2761 66.3346 80.0948 65.4232C79.9135 64.5117 80.0066 63.567 80.3622 62.7084C80.7178 61.8499 81.3201 61.116 82.0927 60.5997C82.8654 60.0834 83.7739 59.8079 84.7032 59.8079C85.9493 59.8079 87.1445 60.3029 88.0256 61.1841C88.9068 62.0652 89.4018 63.2604 89.4018 64.5065Z" fill="#4FD1C5"/>
  <path d="M368.597 336.338C371.214 325.25 364.346 314.139 353.258 311.522C342.169 308.905 331.059 315.772 328.442 326.861C325.825 337.949 332.692 349.06 343.78 351.677C354.869 354.294 365.979 347.427 368.597 336.338Z" fill="#4FD1C5"/>
  <path opacity="0.3" d="M368.597 336.338C371.214 325.25 364.346 314.139 353.258 311.522C342.169 308.905 331.059 315.772 328.442 326.861C325.825 337.949 332.692 349.06 343.78 351.677C354.869 354.294 365.979 347.427 368.597 336.338Z" fill="white"/>
  <path opacity="0.4" d="M361.549 315.628C356.976 314.247 352.065 314.498 347.657 316.336C343.248 318.174 339.614 321.486 337.376 325.707C335.138 329.927 334.435 334.793 335.386 339.474C336.338 344.155 338.885 348.36 342.593 351.372C344.517 351.956 346.516 352.252 348.526 352.251C352.785 352.251 356.939 350.931 360.418 348.475C363.897 346.019 366.531 342.547 367.958 338.534C369.385 334.521 369.535 330.165 368.387 326.064C367.24 321.963 364.851 318.317 361.549 315.628Z" fill="#4FD1C5"/>
  <path d="M328.83 337.791C306.806 348.154 323.23 356.146 354.265 344.989C383.004 334.658 393.957 321.635 368.211 325.679C369.595 331.097 333.604 345.118 328.83 337.791Z" fill="#4FD1C5"/>
  <path opacity="0.2" d="M361.302 129.494C332.456 148.986 295.113 174.732 284.804 236.566H282.605C292.635 175.419 328.616 149.061 357.473 129.494H361.302Z" fill="black"/>
  <path d="M212.082 323.062C193.845 323.062 175.812 314.834 167.026 301.403C161.609 293.1 155.312 275.71 174.064 252.507L175.726 253.858C162.467 270.272 160.021 286.738 168.829 300.234C179.556 316.647 204.862 324.907 226.468 319.028C248.599 313.01 262.03 293.765 263.328 266.227C267.758 172.029 317.802 143.011 354.34 121.824C377.05 108.661 393.453 99.1565 389.848 79.0852C389.344 76.3068 388.239 74.3866 386.448 73.2066C381.781 70.1277 372.663 72.2625 362.107 74.7191C341.392 79.5465 313.028 86.1547 296.132 57.4156L297.988 56.3428C314.08 83.7303 340.437 77.5834 361.624 72.6487C372.663 70.0848 382.189 67.8642 387.628 71.4365C389.934 72.9491 391.35 75.3413 391.919 78.7312C395.791 100.272 377.973 110.613 355.391 123.701C319.272 144.641 269.818 173.316 265.441 266.377C264.089 294.913 250.079 314.877 226.993 321.152C222.13 322.447 217.115 323.09 212.082 323.062Z" fill="#4FD1C5"/>
  <path opacity="0.2" d="M212.082 323.062C193.845 323.062 175.812 314.834 167.026 301.403C161.609 293.1 155.312 275.71 174.064 252.507L175.726 253.858C162.467 270.272 160.021 286.738 168.829 300.234C179.556 316.647 204.862 324.907 226.468 319.028C248.599 313.01 262.03 293.765 263.328 266.227C267.758 172.029 317.802 143.011 354.34 121.824C377.05 108.661 393.453 99.1565 389.848 79.0852C389.344 76.3068 388.239 74.3866 386.448 73.2066C381.781 70.1277 372.663 72.2625 362.107 74.7191C341.392 79.5465 313.028 86.1547 296.132 57.4156L297.988 56.3428C314.08 83.7303 340.437 77.5834 361.624 72.6487C372.663 70.0848 382.189 67.8642 387.628 71.4365C389.934 72.9491 391.35 75.3413 391.919 78.7312C395.791 100.272 377.973 110.613 355.391 123.701C319.272 144.641 269.818 173.316 265.441 266.377C264.089 294.913 250.079 314.877 226.993 321.152C222.13 322.447 217.115 323.09 212.082 323.062Z" fill="white"/>
  <path d="M274.044 32.0557C278.987 32.0842 283.898 32.8544 288.612 34.3407C288.612 34.3407 300.413 54.4763 301.807 59.0891C301.314 63.6376 293.644 71.0932 293.644 71.0932L274.044 32.0557Z" fill="#4FD1C5"/>
  <path opacity="0.3" d="M274.044 32.0557C278.987 32.0842 283.898 32.8544 288.612 34.3407C288.612 34.3407 300.413 54.4763 301.807 59.0891C301.314 63.6376 293.644 71.0932 293.644 71.0932L274.044 32.0557Z" fill="white"/>
  <path d="M308.995 129.816C304.451 124.259 300.307 118.387 296.594 112.244C295.693 110.692 294.838 109.112 294.03 107.503C293.569 106.591 293.129 105.679 292.7 104.756C292.137 103.859 291.7 102.887 291.402 101.871C290.114 88.2788 294.77 78.27 290.329 67.36L272.65 74.2686C272.65 74.2686 274.152 93.7069 277.585 105.378C279.73 112.598 284.536 118.842 289.181 124.624C290.629 126.426 292.024 128.282 293.472 130.095C294.92 131.908 296.379 133.377 297.763 135.083C299.855 137.668 300.542 140.146 298.965 143.193L298.696 143.676C298.246 144.47 300.348 145.371 301.679 143.676C303.824 140.908 303.524 141.08 305.39 138.72C306.528 137.293 307.826 135.737 308.952 134.429C309.495 133.785 309.797 132.972 309.805 132.13C309.813 131.288 309.526 130.469 308.995 129.816Z" fill="#4FD1C5"/>
  <path opacity="0.7" d="M308.995 129.816C304.451 124.259 300.307 118.387 296.594 112.244C295.693 110.692 294.838 109.112 294.03 107.503C293.569 106.591 293.129 105.679 292.7 104.756C292.137 103.859 291.7 102.887 291.402 101.871C290.114 88.2788 294.77 78.27 290.329 67.36L272.65 74.2686C272.65 74.2686 274.152 93.7069 277.585 105.378C279.73 112.598 284.536 118.842 289.181 124.624C290.629 126.426 292.024 128.282 293.472 130.095C294.92 131.908 296.379 133.377 297.763 135.083C299.855 137.668 300.542 140.146 298.965 143.193L298.696 143.676C298.246 144.47 300.348 145.371 301.679 143.676C303.824 140.908 303.524 141.08 305.39 138.72C306.528 137.293 307.826 135.737 308.952 134.429C309.495 133.785 309.797 132.972 309.805 132.13C309.813 131.288 309.526 130.469 308.995 129.816Z" fill="white"/>
  <path opacity="0.3" d="M304.672 124.227C301.866 127.234 298.752 129.938 295.382 132.294C295.843 132.809 296.293 133.367 296.755 133.86C300.13 131.58 303.195 128.872 305.873 125.804L304.672 124.227Z" fill="#4FD1C5"/>
  <path opacity="0.3" d="M308.995 129.816L308.866 129.666C308.041 130.613 307.56 131.811 307.504 133.066C307.435 133.927 307.575 134.792 307.911 135.587L308.93 134.375C309.463 133.738 309.76 132.937 309.772 132.107C309.784 131.277 309.509 130.468 308.995 129.816Z" fill="#4FD1C5"/>
  <path d="M269.839 44.9288C267.923 47.7985 265.624 50.3934 263.006 52.6419C261.554 53.8931 259.963 54.9729 258.264 55.8601C257.372 56.3174 256.447 56.7083 255.497 57.0294L254.767 57.2654L254.531 57.3298L254.027 57.4693C253.716 57.5429 253.401 57.5931 253.083 57.6194C252.178 57.6887 251.268 57.6052 250.39 57.3727C249.284 57.0587 248.223 56.6006 247.236 56.0103C246.442 55.546 245.672 55.0411 244.93 54.4977C243.589 53.5001 242.306 52.4255 241.089 51.2795C238.743 49.0561 236.59 46.6373 234.653 44.0491C234.28 43.5449 234.095 42.9263 234.129 42.3001C234.164 41.6739 234.416 41.0794 234.841 40.6191C235.267 40.1588 235.841 39.8616 236.462 39.7788C237.084 39.6961 237.715 39.8329 238.247 40.1657H238.332C240.864 41.7749 243.417 43.4698 245.906 44.9824C247.172 45.7226 248.395 46.4735 249.607 47.0528C250.161 47.3425 250.73 47.6004 251.313 47.8252C251.676 47.9855 252.065 48.0799 252.461 48.1041C252.525 48.1041 252.461 48.029 252.064 48.0397C251.939 48.0323 251.813 48.0323 251.688 48.0397L251.452 48.0934L251.806 47.911C252.283 47.6545 252.745 47.3716 253.19 47.0635C254.15 46.3867 255.048 45.6257 255.872 44.7893C257.746 42.8253 259.501 40.7512 261.129 38.578C262.02 37.5807 263.252 36.9524 264.583 36.8165C265.914 36.6806 267.247 37.0469 268.322 37.8435C269.396 38.6401 270.135 39.8095 270.392 41.1223C270.648 42.4351 270.406 43.7965 269.711 44.9395L269.839 44.9288Z" fill="#4FD1C5"/>
  <path opacity="0.7" d="M269.839 44.9288C267.923 47.7985 265.624 50.3934 263.006 52.6419C261.554 53.8931 259.963 54.9729 258.264 55.8601C257.372 56.3174 256.447 56.7083 255.497 57.0294L254.767 57.2654L254.531 57.3298L254.027 57.4693C253.716 57.5429 253.401 57.5931 253.083 57.6194C252.178 57.6887 251.268 57.6052 250.39 57.3727C249.284 57.0587 248.223 56.6006 247.236 56.0103C246.442 55.546 245.672 55.0411 244.93 54.4977C243.589 53.5001 242.306 52.4255 241.089 51.2795C238.743 49.0561 236.59 46.6373 234.653 44.0491C234.28 43.5449 234.095 42.9263 234.129 42.3001C234.164 41.6739 234.416 41.0794 234.841 40.6191C235.267 40.1588 235.841 39.8616 236.462 39.7788C237.084 39.6961 237.715 39.8329 238.247 40.1657H238.332C240.864 41.7749 243.417 43.4698 245.906 44.9824C247.172 45.7226 248.395 46.4735 249.607 47.0528C250.161 47.3425 250.73 47.6004 251.313 47.8252C251.676 47.9855 252.065 48.0799 252.461 48.1041C252.525 48.1041 252.461 48.029 252.064 48.0397C251.939 48.0323 251.813 48.0323 251.688 48.0397L251.452 48.0934L251.806 47.911C252.283 47.6545 252.745 47.3716 253.19 47.0635C254.15 46.3867 255.048 45.6257 255.872 44.7893C257.746 42.8253 259.501 40.7512 261.129 38.578C262.02 37.5807 263.252 36.9524 264.583 36.8165C265.914 36.6806 267.247 37.0469 268.322 37.8435C269.396 38.6401 270.135 39.8095 270.392 41.1223C270.648 42.4351 270.406 43.7965 269.711 44.9395L269.839 44.9288Z" fill="white"/>
  <path d="M230.63 37.87L231.885 40.0155C231.885 40.0155 232.84 42.8261 234.76 43.3411L239.974 41.6568L239.706 41.217C239.04 40.2086 239.116 38.2455 239.341 36.6149C239.566 34.9843 238.729 34.9307 238.107 35.3383C237.666 35.8455 237.357 36.4534 237.206 37.1084C236.95 36.7541 236.667 36.4205 236.359 36.1107L234.771 34.523C234.438 34.1975 233.994 34.0099 233.528 33.998C233.063 33.986 232.61 34.1506 232.261 34.4587L230.973 35.6065C230.668 35.889 230.468 36.2669 230.405 36.6781C230.343 37.0894 230.422 37.5097 230.63 37.87Z" fill="#4FD1C5"/>
  <path opacity="0.7" d="M230.63 37.87L231.885 40.0155C231.885 40.0155 232.84 42.8261 234.76 43.3411L239.974 41.6568L239.706 41.217C239.04 40.2086 239.116 38.2455 239.341 36.6149C239.566 34.9843 238.729 34.9307 238.107 35.3383C237.666 35.8455 237.357 36.4534 237.206 37.1084C236.95 36.7541 236.667 36.4205 236.359 36.1107L234.771 34.523C234.438 34.1975 233.994 34.0099 233.528 33.998C233.063 33.986 232.61 34.1506 232.261 34.4587L230.973 35.6065C230.668 35.889 230.468 36.2669 230.405 36.6781C230.343 37.0894 230.422 37.5097 230.63 37.87Z" fill="white"/>
  <path d="M279.312 30.1462C273.529 31.679 267.989 34.0153 262.856 37.0869C262.055 37.5882 261.426 38.3223 261.054 39.1908C260.682 40.0594 260.585 41.0209 260.774 41.9465C262.845 52.0733 267.554 65.6329 272.639 74.2686L296.358 64.4529C296.519 60.2691 290.758 46.731 284.89 33.6434C283.839 31.294 281.811 29.5454 279.312 30.1462Z" fill="#4FD1C5"/>
  <path opacity="0.8" d="M279.312 30.1462C273.529 31.679 267.989 34.0153 262.856 37.0869C262.055 37.5882 261.426 38.3223 261.054 39.1908C260.682 40.0594 260.585 41.0209 260.774 41.9465C262.845 52.0733 267.554 65.6329 272.639 74.2686L296.358 64.4529C296.519 60.2691 290.758 46.731 284.89 33.6434C283.839 31.294 281.811 29.5454 279.312 30.1462Z" fill="white"/>
  <path opacity="0.3" d="M288.569 41.9358L283.86 40.3588C284.933 43.1158 288.72 46.6022 291.369 48.6512C290.511 46.5057 289.556 44.2529 288.569 41.9358Z" fill="#4FD1C5"/>
  <path d="M277.756 19.5259C275.793 15.7927 271.556 13.9154 266.471 14.3338C262.18 14.6985 258.382 19.0754 258.833 21.4354C259.283 23.7955 262.888 24.8039 263.574 25.6192L260.603 27.7647C260.251 28.0187 259.954 28.3414 259.73 28.7133C259.506 29.0851 259.359 29.4985 259.299 29.9284C259.239 30.3583 259.267 30.796 259.38 31.2151C259.493 31.6341 259.69 32.0259 259.959 32.3668C261.214 33.9545 262.866 35.5851 263.821 36.7865C272.038 36.572 278.121 33.4395 280.32 30.4251C279.494 26.6061 279.666 23.2376 277.756 19.5259Z" fill="#4FD1C5"/>
  <path opacity="0.8" d="M277.756 19.5259C275.793 15.7927 271.556 13.9154 266.471 14.3338C262.18 14.6985 258.382 19.0754 258.833 21.4354C259.283 23.7955 262.888 24.8039 263.574 25.6192L260.603 27.7647C260.251 28.0187 259.954 28.3414 259.73 28.7133C259.506 29.0851 259.359 29.4985 259.299 29.9284C259.239 30.3583 259.267 30.796 259.38 31.2151C259.493 31.6341 259.69 32.0259 259.959 32.3668C261.214 33.9545 262.866 35.5851 263.821 36.7865C272.038 36.572 278.121 33.4395 280.32 30.4251C279.494 26.6061 279.666 23.2376 277.756 19.5259Z" fill="white"/>
  <path d="M273.723 21.8431C274.306 23.3391 274.433 24.9746 274.087 26.5427C273.741 28.1107 272.938 29.541 271.779 30.6528C270.62 31.7646 269.158 32.5079 267.577 32.7887C265.996 33.0696 264.367 32.8754 262.897 32.2308C261.426 31.5861 260.179 30.5199 259.314 29.167C258.45 27.814 258.005 26.235 258.038 24.6295C258.07 23.0241 258.577 21.4642 259.496 20.1472C260.415 18.8302 261.703 17.8151 263.199 17.2302C265.206 16.4482 267.442 16.4948 269.415 17.3596C271.388 18.2245 272.937 19.837 273.723 21.8431Z" fill="#263238"/>
  <path d="M343.377 118.52C343.259 114.99 343.098 115.301 343.001 112.33C342.937 110.506 342.926 108.479 342.915 106.73C342.912 105.9 342.622 105.096 342.094 104.455C341.566 103.814 340.833 103.375 340.019 103.211C338.603 102.922 337.176 102.654 335.728 102.353C333.872 101.956 332.038 101.527 330.225 101.002C328.809 100.594 327.414 100.143 326.03 99.6392C324.646 99.135 323.091 98.5665 321.653 97.9014C319.958 97.1826 318.285 96.4102 316.633 95.6057C314.777 94.726 312.943 93.8034 311.108 92.8701C304.049 81.1878 303.899 73.4855 296.326 64.4529L280.063 71.812C280.063 71.812 292.013 93.0096 300.145 101.999C304.833 107.17 312.181 109.509 318.735 111.204C323.466 112.416 328.261 113.349 333.057 114.239C334.923 114.583 336.951 114.711 338.56 115.827C339.75 116.74 340.567 118.056 340.856 119.528C340.927 119.828 340.992 120.129 341.049 120.429C341.253 121.33 343.452 120.644 343.377 118.52Z" fill="#4FD1C5"/>
  <path opacity="0.8" d="M343.377 118.52C343.259 114.99 343.098 115.301 343.001 112.33C342.937 110.506 342.926 108.479 342.915 106.73C342.912 105.9 342.622 105.096 342.094 104.455C341.566 103.814 340.833 103.375 340.019 103.211C338.603 102.922 337.176 102.654 335.728 102.353C333.872 101.956 332.038 101.527 330.225 101.002C328.809 100.594 327.414 100.143 326.03 99.6392C324.646 99.135 323.091 98.5665 321.653 97.9014C319.958 97.1826 318.285 96.4102 316.633 95.6057C314.777 94.726 312.943 93.8034 311.108 92.8701C304.049 81.1878 303.899 73.4855 296.326 64.4529L280.063 71.812C280.063 71.812 292.013 93.0096 300.145 101.999C304.833 107.17 312.181 109.509 318.735 111.204C323.466 112.416 328.261 113.349 333.057 114.239C334.923 114.583 336.951 114.711 338.56 115.827C339.75 116.74 340.567 118.056 340.856 119.528C340.927 119.828 340.992 120.129 341.049 120.429C341.253 121.33 343.452 120.644 343.377 118.52Z" fill="white"/>
  <path opacity="0.3" d="M335.127 102.214C334.483 102.074 333.84 101.935 333.185 101.774C333.239 105.486 331.501 111.879 330.868 113.821L332.907 114.207C334.242 110.343 334.991 106.3 335.127 102.214Z" fill="#4FD1C5"/>
  <path opacity="0.3" d="M342.958 106.73C342.955 105.901 342.666 105.099 342.141 104.458C341.615 103.817 340.885 103.377 340.073 103.212L339 103.008C339.172 104.227 339.796 105.337 340.748 106.119C341.361 106.685 342.095 107.103 342.894 107.342C342.958 107.149 342.958 106.934 342.958 106.73Z" fill="#4FD1C5"/>
  <path d="M272.21 21.9074C272.639 23.538 270.815 25.2437 269.367 23.8384C268.016 22.3891 266.536 21.0643 264.948 19.8799C263.456 18.9466 265.441 17.316 267.79 17.949C268.793 18.2008 269.719 18.6928 270.489 19.3824C271.259 20.072 271.85 20.9386 272.21 21.9074Z" fill="white"/>
  <path d="M272.328 73.7429C271.577 74.0218 272.95 75.3092 272.95 75.3092C272.95 75.3092 287.969 70.1706 297.087 64.882C297.109 64.5618 297.055 64.241 296.928 63.9462C296.801 63.6514 296.605 63.3911 296.358 63.187C288.554 67.1568 280.531 70.6811 272.328 73.7429Z" fill="#4FD1C5"/>
  <path opacity="0.5" d="M272.328 73.7429C271.577 74.0218 272.95 75.3092 272.95 75.3092C272.95 75.3092 287.969 70.1706 297.087 64.882C297.109 64.5618 297.055 64.241 296.928 63.9462C296.801 63.6514 296.605 63.3911 296.358 63.187C288.554 67.1568 280.531 70.6811 272.328 73.7429Z" fill="white"/>
  <path d="M283.377 29.4382C286.338 30.94 289.117 32.517 291.959 34.2656C293.343 35.1452 294.716 36.0356 296.079 37.0011C297.441 37.9666 298.793 38.9535 300.155 40.0692L300.66 40.4875L301.292 41.0668C301.67 41.4043 302.028 41.7624 302.365 42.1396C302.709 42.515 302.998 42.8798 303.277 43.2123C303.556 43.5449 303.856 43.9418 304.103 44.2851C305.103 45.6642 306.027 47.0967 306.871 48.5761C308.533 51.445 309.968 54.4401 311.162 57.5336C311.382 58.1181 311.394 58.761 311.194 59.3529C310.994 59.9449 310.596 60.4493 310.066 60.7806C309.536 61.1118 308.908 61.2493 308.288 61.1698C307.669 61.0902 307.096 60.7985 306.667 60.3442L306.613 60.2799C304.468 57.9949 302.397 55.5919 300.316 53.3499C298.235 51.1078 296.122 48.8336 294.373 47.8359C291.938 46.3233 289.224 44.8107 286.531 43.3303L278.421 38.8248C277.164 38.159 276.222 37.021 275.804 35.661C275.385 34.301 275.524 32.8305 276.19 31.573C276.856 30.3154 277.994 29.3738 279.354 28.9554C280.714 28.5369 282.184 28.6759 283.442 29.3416L283.377 29.4382Z" fill="#4FD1C5"/>
  <path opacity="0.8" d="M283.377 29.4382C286.338 30.94 289.117 32.517 291.959 34.2656C293.343 35.1452 294.716 36.0356 296.079 37.0011C297.441 37.9666 298.793 38.9535 300.155 40.0692L300.66 40.4875L301.292 41.0668C301.67 41.4043 302.028 41.7624 302.365 42.1396C302.709 42.515 302.998 42.8798 303.277 43.2123C303.556 43.5449 303.856 43.9418 304.103 44.2851C305.103 45.6642 306.027 47.0967 306.871 48.5761C308.533 51.445 309.968 54.4401 311.162 57.5336C311.382 58.1181 311.394 58.761 311.194 59.3529C310.994 59.9449 310.596 60.4493 310.066 60.7806C309.536 61.1118 308.908 61.2493 308.288 61.1698C307.669 61.0902 307.096 60.7985 306.667 60.3442L306.613 60.2799C304.468 57.9949 302.397 55.5919 300.316 53.3499C298.235 51.1078 296.122 48.8336 294.373 47.8359C291.938 46.3233 289.224 44.8107 286.531 43.3303L278.421 38.8248C277.164 38.159 276.222 37.021 275.804 35.661C275.385 34.301 275.524 32.8305 276.19 31.573C276.856 30.3154 277.994 29.3738 279.354 28.9554C280.714 28.5369 282.184 28.6759 283.442 29.3416L283.377 29.4382Z" fill="white"/>
  <path d="M313.704 62.8867L312.792 60.6017C312.792 60.6017 312.288 57.6838 310.475 56.8685L305.111 57.716L305.294 58.188C305.787 59.2607 305.412 61.2239 304.929 62.7901C304.446 64.3563 305.262 64.5602 305.948 64.2491C306.334 64.0774 306.71 63.3801 307.117 62.6399C307.317 63.0128 307.543 63.3713 307.793 63.7127L309.113 65.5256C309.388 65.9013 309.796 66.1588 310.254 66.2464C310.711 66.3339 311.185 66.2451 311.58 65.9976L313.039 65.0643C313.381 64.8307 313.632 64.4878 313.753 64.0921C313.874 63.6963 313.857 63.2713 313.704 62.8867Z" fill="#4FD1C5"/>
  <path opacity="0.8" d="M313.704 62.8867L312.792 60.6017C312.792 60.6017 312.288 57.6838 310.475 56.8685L305.111 57.716L305.294 58.188C305.787 59.2607 305.412 61.2239 304.929 62.7901C304.446 64.3563 305.262 64.5602 305.948 64.2491C306.334 64.0774 306.71 63.3801 307.117 62.6399C307.317 63.0128 307.543 63.3713 307.793 63.7127L309.113 65.5256C309.388 65.9013 309.796 66.1588 310.254 66.2464C310.711 66.3339 311.185 66.2451 311.58 65.9976L313.039 65.0643C313.381 64.8307 313.632 64.4878 313.753 64.0921C313.874 63.6963 313.857 63.2713 313.704 62.8867Z" fill="white"/>
  <path opacity="0.3" d="M278.85 41.7748L277.542 41.8821L269.507 61.2775C269.946 61.3091 270.387 61.2729 270.815 61.1702C270.815 61.1702 281.286 57.2654 284.45 55.8065C282.326 51.4189 278.85 41.7748 278.85 41.7748Z" fill="#4FD1C5"/>
  <path d="M264.186 46.8597C265.162 51.9298 266.975 56.8022 269.55 61.2775C273.476 59.9258 280.02 57.3727 283.195 55.9137C281.061 51.3384 279.167 46.6548 277.52 41.8821C274.163 42.1074 266.793 44.9287 264.186 46.8597Z" fill="white"/>
  <path opacity="0.3" d="M272.156 51.0542C272 51.5788 271.691 52.0451 271.269 52.3941C270.847 52.7431 270.331 52.9591 269.786 53.0148C269.242 53.0705 268.693 52.9634 268.209 52.707C267.725 52.4506 267.328 52.0565 267.068 51.5745C266.808 51.0925 266.698 50.5443 266.749 49.9992C266.801 49.4541 267.014 48.9367 267.36 48.5124C267.706 48.088 268.17 47.7758 268.693 47.6153C269.217 47.4548 269.776 47.4532 270.301 47.6106C271.003 47.8215 271.593 48.3027 271.941 48.9484C272.289 49.594 272.366 50.3514 272.156 51.0542Z" fill="#4FD1C5"/>
  <path opacity="0.6" d="M274.205 47.3639C274.164 47.543 274.069 47.7052 273.933 47.8293C273.797 47.9535 273.627 48.0337 273.445 48.0594C273.263 48.0852 273.077 48.0553 272.913 47.9737C272.748 47.8921 272.612 47.7625 272.522 47.6021C272.432 47.4417 272.393 47.2578 272.409 47.0747C272.426 46.8915 272.497 46.7177 272.614 46.5759C272.731 46.4341 272.889 46.3311 273.065 46.2802C273.242 46.2294 273.43 46.2332 273.605 46.2911C273.822 46.3607 274.005 46.5101 274.116 46.7092C274.228 46.9083 274.26 47.1423 274.205 47.3639Z" fill="#4FD1C5"/>
  <path opacity="0.6" d="M276.608 46.4306C276.583 46.555 276.532 46.6729 276.459 46.7765C276.386 46.8801 276.291 46.9673 276.182 47.0325C276.073 47.0976 275.952 47.1393 275.826 47.1548C275.7 47.1703 275.572 47.1593 275.451 47.1226C275.329 47.0858 275.217 47.0241 275.12 46.9413C275.024 46.8586 274.946 46.7566 274.891 46.642C274.837 46.5274 274.807 46.4026 274.803 46.2757C274.799 46.1488 274.822 46.0225 274.87 45.905C274.905 45.7914 274.961 45.6858 275.036 45.5941C275.112 45.5025 275.204 45.4265 275.309 45.3707C275.414 45.3149 275.528 45.2803 275.646 45.2689C275.764 45.2575 275.883 45.2695 275.997 45.3042C276.226 45.3738 276.419 45.531 276.534 45.7419C276.648 45.9527 276.675 46.2002 276.608 46.4306Z" fill="#4FD1C5"/>
  <path opacity="0.5" d="M279.977 54.7874L270.054 58.7029L269.464 56.7505L279.376 52.835L279.977 54.7874Z" fill="#4FD1C5"/>
  <path opacity="0.2" d="M225.234 203.879C225.211 210.125 224.608 216.356 223.432 222.491C222.166 228.005 220.199 232.039 217.532 234.592C216.289 235.825 214.814 236.799 213.191 237.456C211.569 238.114 209.831 238.442 208.081 238.421C202.567 238.421 198.358 235.414 195.454 229.4C194.944 228.319 194.51 227.204 194.156 226.063C188.024 231.33 182.314 237.069 177.078 243.227L171.382 249.943C174.447 253.05 177.985 255.653 181.863 257.656C188.542 261.11 197.31 262.841 208.167 262.848C210.076 262.848 211.921 262.794 213.713 262.687C220.281 252.969 225.716 242.531 229.911 231.577L245.842 190.04L225.234 203.879Z" fill="black"/>
  <path d="M81.6245 260.552L100.398 279.326L152.963 229.796C134.844 222.877 99.6146 242.519 81.6245 260.552Z" fill="#263238"/>
  <path d="M147.095 325.99C141.098 319.983 128.322 307.217 128.322 307.217L177.851 254.652C184.727 272.728 165.085 307.99 147.095 325.99Z" fill="#263238"/>
  <path d="M218.948 207.666L239.427 168.177L199.939 188.678C187.255 195.256 175.544 203.559 165.138 213.351L97.8231 276.719L130.896 309.792L194.264 242.476C204.06 232.069 212.367 220.354 218.948 207.666Z" fill="#4FD1C5"/>
  <path opacity="0.6" d="M218.948 207.666L239.427 168.177L199.939 188.678C187.255 195.256 175.544 203.559 165.138 213.351L97.8231 276.719L130.896 309.792L194.264 242.476C204.06 232.069 212.367 220.354 218.948 207.666Z" fill="white"/>
  <path d="M176.896 244.547C184.539 244.547 190.734 238.351 190.734 230.708C190.734 223.066 184.539 216.87 176.896 216.87C169.253 216.87 163.057 223.066 163.057 230.708C163.057 238.351 169.253 244.547 176.896 244.547Z" fill="white"/>
  <path d="M176.896 239.602C181.807 239.602 185.789 235.62 185.789 230.708C185.789 225.797 181.807 221.815 176.896 221.815C171.984 221.815 168.003 225.797 168.003 230.708C168.003 235.62 171.984 239.602 176.896 239.602Z" fill="#4FD1C5"/>
  <path opacity="0.3" d="M142.085 297.906L109.698 265.519L136.217 240.567L167.037 271.398L142.085 297.906Z" fill="#4FD1C5"/>
  <path d="M88.9514 290.182C64.7071 292.145 56.6722 307.668 53.9259 328.297C52.5313 338.821 51.9091 349.473 43.0804 355.631C42.5492 355.992 42.1494 356.515 41.9406 357.122C41.7318 357.73 41.7254 358.388 41.9223 358.999C42.1192 359.611 42.5088 360.142 43.0328 360.513C43.5568 360.884 44.187 361.076 44.829 361.059C77.3763 360.04 92.5558 344.109 94.4653 337.458C93.9641 340.935 93.0679 344.343 91.7942 347.617C91.56 348.195 91.5142 348.832 91.6632 349.437C91.8121 350.042 92.1483 350.585 92.6239 350.988C93.0994 351.391 93.69 351.634 94.3115 351.681C94.933 351.729 95.5537 351.579 96.0852 351.254C105.214 345.536 116.671 335.002 117.433 317.913C110.718 308.397 88.9514 290.182 88.9514 290.182Z" fill="#4FD1C5"/>
  <path opacity="0.2" d="M88.9514 290.182C64.7071 292.145 56.6722 307.668 53.9259 328.297C52.5313 338.821 51.9091 349.473 43.0804 355.631C42.5492 355.992 42.1494 356.515 41.9406 357.122C41.7318 357.73 41.7254 358.388 41.9223 358.999C42.1192 359.611 42.5088 360.142 43.0328 360.513C43.5568 360.884 44.187 361.076 44.829 361.059C77.3763 360.04 92.5558 344.109 94.4653 337.458C93.9641 340.935 93.0679 344.343 91.7942 347.617C91.56 348.195 91.5142 348.832 91.6632 349.437C91.8121 350.042 92.1483 350.585 92.6239 350.988C93.0994 351.391 93.69 351.634 94.3115 351.681C94.933 351.729 95.5537 351.579 96.0852 351.254C105.214 345.536 116.671 335.002 117.433 317.913C110.718 308.397 88.9514 290.182 88.9514 290.182Z" fill="white"/>
  <path d="M121.198 325.239L82.3647 286.406L103.047 281.932L125.672 304.557L121.198 325.239Z" fill="#4FD1C5"/>
</svg>
