<svg width="100" height="32" viewBox="0 0 100 32" fill="none" xmlns="http://www.w3.org/2000/svg">
<path d="M15.0208 0C19.149 0 22.7334 1.49231 25.7738 4.47694C28.8142 7.46157 30.3344 11.2412 30.3344 15.8157C30.3344 20.0835 28.8839 23.7794 25.983 26.9035C23.082 29.9997 19.5535 31.5478 15.3973 31.5478C11.0738 31.5478 7.41973 30.0136 4.43511 26.9453C1.47838 23.877 0 20.2229 0 15.9831C0 13.6679 0.418408 11.5062 1.25522 9.4978C2.09203 7.46156 3.20778 5.76005 4.60247 4.39326C5.99715 3.02647 7.60104 1.95256 9.41413 1.17154C11.2272 0.390516 13.0961 0 15.0208 0ZM15.1463 24.142C17.1546 24.142 18.9538 23.3889 20.5437 21.8826C22.1337 20.3763 22.9286 18.3401 22.9286 15.7739C22.9286 13.2635 22.1197 11.2412 20.5019 9.70701C18.9119 8.17285 17.1407 7.40578 15.1881 7.40578C13.1798 7.40578 11.3806 8.1868 9.7907 9.74885C8.20076 11.283 7.40579 13.3053 7.40579 15.8157C7.40579 18.2704 8.20076 20.2787 9.7907 21.8408C11.4085 23.3749 13.1937 24.142 15.1463 24.142Z" fill="#03DAC6"/>
<path d="M64.7576 9.16304C66.5428 9.94406 67.4354 10.9064 67.4354 12.05C67.4354 12.5242 67.3099 13.0403 67.0588 13.5981C66.4173 15.1323 65.9431 16.2899 65.6363 17.0709L61.0338 28.2842C61.0059 28.3678 60.9641 28.4794 60.9083 28.6189C60.8804 28.7305 60.7688 28.9536 60.5736 29.2883C60.3783 29.6231 60.1552 29.9159 59.9041 30.167C59.681 30.418 59.3602 30.6551 58.9418 30.8783C58.5234 31.0735 58.0631 31.1712 57.561 31.1712C56.78 31.1712 56.0827 30.9341 55.469 30.4599C54.8833 29.9578 54.4928 29.4557 54.2975 28.9536L53.9627 28.2423C53.7954 27.8239 53.363 26.6942 52.6657 24.8532C51.9683 22.9844 51.5778 21.9383 51.4942 21.7152C51.2152 22.3846 50.7968 23.4864 50.2389 25.0206C49.709 26.5269 49.3045 27.6147 49.0256 28.2842C48.9977 28.3678 48.9558 28.4794 48.9001 28.6189C48.8722 28.7305 48.7606 28.9536 48.5653 29.2883C48.3701 29.6231 48.1469 29.9159 47.8959 30.167C47.6448 30.418 47.2962 30.6551 46.8499 30.8783C46.4315 31.0735 45.9712 31.1712 45.4691 31.1712C44.6881 31.1712 44.0047 30.9341 43.4189 30.4599C42.8332 29.9578 42.4427 29.4557 42.2474 28.9536L41.9127 28.2423L35.9295 13.5563C35.6505 12.7195 35.5111 12.1756 35.5111 11.9245C35.5111 10.8088 36.306 9.93011 37.896 9.28855C38.7886 8.92594 39.5417 8.74463 40.1554 8.74463C40.6575 8.74463 41.0759 8.87015 41.4106 9.1212C41.7732 9.34434 42.0243 9.58144 42.1637 9.83248C42.3032 10.0556 42.4566 10.3625 42.624 10.753C42.6519 10.8367 43.0982 12.064 43.9629 14.4349C44.8555 16.778 45.3576 18.103 45.4691 18.4098L47.9377 11.6316C47.9656 11.5479 48.0075 11.4503 48.0632 11.3387C48.119 11.2272 48.2446 11.018 48.4398 10.7111C48.663 10.4043 48.8861 10.1393 49.1093 9.91616C49.3603 9.66512 49.695 9.44197 50.1134 9.24671C50.5318 9.05146 50.9642 8.95383 51.4105 8.95383C52.1915 8.95383 52.8749 9.17698 53.4607 9.62328C54.0744 10.0696 54.4927 10.5159 54.7159 10.9622L55.0506 11.6735C56.4453 15.5786 57.2681 17.8101 57.5192 18.368L60.0715 11.4224C60.7409 9.63723 61.7451 8.74463 63.084 8.74463C63.614 8.74463 64.1719 8.8841 64.7576 9.16304Z" fill="#636363"/>
<path d="M96.3599 0.418457C97.0572 0.418457 97.643 0.488192 98.1172 0.62766C98.6193 0.767129 98.9819 0.93449 99.205 1.12975C99.4561 1.325 99.6374 1.61789 99.749 2.0084C99.8884 2.37102 99.9581 2.6918 99.9581 2.97073C99.986 3.22178 100 3.61229 100 4.14227V27.3638C100 28.0332 99.9721 28.5214 99.9163 28.8282C99.8884 29.135 99.7629 29.4976 99.5397 29.916C99.3166 30.3344 98.94 30.6273 98.41 30.7947C97.8801 30.9621 97.1688 31.0457 96.2762 31.0457C95.1883 31.0457 94.4352 30.9621 94.0168 30.7947C93.5984 30.6273 93.2497 30.3623 92.9708 29.9997C86.6947 21.6316 82.5664 16.1644 80.586 13.5982V27.3638C80.586 28.0332 80.5581 28.5214 80.5023 28.8282C80.4744 29.135 80.3489 29.4976 80.1257 29.916C79.9026 30.3344 79.526 30.6273 78.996 30.7947C78.466 30.9621 77.7548 31.0457 76.8622 31.0457C75.9975 31.0457 75.3001 30.9621 74.7701 30.7947C74.2681 30.6273 73.9054 30.3344 73.6823 29.916C73.4591 29.4976 73.3197 29.1211 73.2639 28.7863C73.236 28.4516 73.222 27.9635 73.222 27.3219V3.9749C73.222 3.33335 73.2499 2.85916 73.3057 2.55233C73.3615 2.2455 73.487 1.89682 73.6823 1.50631C73.9054 1.1158 74.282 0.836862 74.812 0.6695C75.3419 0.502138 76.0533 0.418457 76.9459 0.418457C77.7269 0.418457 78.3545 0.502138 78.8287 0.6695C79.3308 0.808968 79.6794 0.976334 79.8747 1.17159C80.0699 1.33895 80.321 1.61789 80.6278 2.0084L80.837 2.25944C86.7226 10.2649 90.6556 15.5508 92.6361 18.117V3.9749C92.6361 3.33335 92.6639 2.85916 92.7197 2.55233C92.7755 2.2455 92.9011 1.89682 93.0963 1.50631C93.3195 1.1158 93.696 0.836862 94.226 0.6695C94.756 0.502138 95.4673 0.418457 96.3599 0.418457Z" fill="#919191"/>
</svg>
